M48
; DRILL file KiCad 10.0.3 date 2026-06-30T17:05:33
; FORMAT={-:-/ absolute / metric / decimal}
; #@! TF.CreationDate,2026-06-30T17:05:33+07:00
; #@! TF.GenerationSoftware,Kicad,Pcbnew,10.0.3
; #@! TF.FileFunction,Plated,1,2,PTH
FMAT,2
METRIC
; #@! TA.AperFunction,Plated,PTH,ViaDrill
T1C0.200
; #@! TA.AperFunction,Plated,PTH,ViaDrill
T2C0.300
; #@! TA.AperFunction,Plated,PTH,ComponentDrill
T3C0.600
; #@! TA.AperFunction,Plated,PTH,ComponentDrill
T4C0.850
; #@! TA.AperFunction,Plated,PTH,ComponentDrill
T5C1.100
; #@! TA.AperFunction,Plated,PTH,ComponentDrill
T6C2.800
%
G90
G05
T1
X115.5Y-84.5
X116.25Y-84.0
X124.234Y-84.234
X130.0Y-92.0
X130.278Y-77.104
X130.396Y-93.104
X131.518Y-81.768
X134.5Y-73.865
X135.646Y-98.354
X135.75Y-68.5
X140.004Y-69.504
X146.429Y-84.604
X147.707Y-76.0
X152.0Y-88.0
X153.854Y-80.354
X167.099Y-49.599
X167.818Y-45.525
X168.0Y-57.5
X168.815Y-46.604
T2
X123.0Y-90.5
X141.0Y-51.5
X142.559Y-84.91
X148.0Y-80.4
X166.875Y-58.5
T5
X139.95Y-92.656
X139.95Y-100.956
X145.5Y-89.956
X151.05Y-92.656
X151.45Y-100.256
X159.95Y-74.656
X159.95Y-82.956
X160.95Y-90.35
X160.95Y-98.65
X165.5Y-71.956
X166.5Y-87.65
X171.05Y-74.656
X171.45Y-82.256
X172.05Y-90.35
X172.45Y-97.95
T6
X139.95Y-96.806
X151.05Y-96.806
X159.95Y-78.806
X160.95Y-94.5
X171.05Y-78.806
X172.05Y-94.5
T3
G00X164.75Y-63.5
M15
G01X165.15Y-63.5
M16
G05
G00X172.3Y-63.5
M15
G01X172.7Y-63.5
M16
G05
T4
G00X164.375Y-60.43
M15
G01X164.875Y-60.43
M16
G05
G00X164.375Y-66.57
M15
G01X164.875Y-66.57
M16
G05
G00X172.575Y-60.43
M15
G01X173.075Y-60.43
M16
G05
G00X172.575Y-66.57
M15
G01X173.075Y-66.57
M16
G05
M30
