%TF.GenerationSoftware,KiCad,Pcbnew,10.0.3*%
%TF.CreationDate,2026-06-30T17:06:10+07:00*%
%TF.ProjectId,simpad,73696d70-6164-42e6-9b69-6361645f7063,rev?*%
%TF.SameCoordinates,Original*%
%TF.FileFunction,Soldermask,Top*%
%TF.FilePolarity,Negative*%
%FSLAX46Y46*%
G04 Gerber Fmt 4.6, Leading zero omitted, Abs format (unit mm)*
G04 Created by KiCad (PCBNEW 10.0.3) date 2026-06-30 17:06:10*
%MOMM*%
%LPD*%
G01*
G04 APERTURE LIST*
G04 Aperture macros list*
%AMRoundRect*
0 Rectangle with rounded corners*
0 $1 Rounding radius*
0 $2 $3 $4 $5 $6 $7 $8 $9 X,Y pos of 4 corners*
0 Add a 4 corners polygon primitive as box body*
4,1,4,$2,$3,$4,$5,$6,$7,$8,$9,$2,$3,0*
0 Add four circle primitives for the rounded corners*
1,1,$1+$1,$2,$3*
1,1,$1+$1,$4,$5*
1,1,$1+$1,$6,$7*
1,1,$1+$1,$8,$9*
0 Add four rect primitives between the rounded corners*
20,1,$1+$1,$2,$3,$4,$5,0*
20,1,$1+$1,$4,$5,$6,$7,0*
20,1,$1+$1,$6,$7,$8,$9,0*
20,1,$1+$1,$8,$9,$2,$3,0*%
G04 Aperture macros list end*
%ADD10C,0.010000*%
%ADD11RoundRect,0.200000X-0.200000X-0.275000X0.200000X-0.275000X0.200000X0.275000X-0.200000X0.275000X0*%
%ADD12RoundRect,0.500000X-0.500000X-0.500000X0.500000X-0.500000X0.500000X0.500000X-0.500000X0.500000X0*%
%ADD13RoundRect,0.102000X-1.908000X-1.908000X1.908000X-1.908000X1.908000X1.908000X-1.908000X1.908000X0*%
%ADD14C,1.854000*%
%ADD15RoundRect,0.100000X-0.130000X-0.100000X0.130000X-0.100000X0.130000X0.100000X-0.130000X0.100000X0*%
%ADD16R,2.510000X1.000000*%
%ADD17O,1.954000X1.454000*%
%ADD18O,1.604000X1.204000*%
%ADD19RoundRect,0.102000X-0.125000X-0.800000X0.125000X-0.800000X0.125000X0.800000X-0.125000X0.800000X0*%
%ADD20R,1.000000X1.800000*%
%ADD21RoundRect,0.102000X-0.600000X-1.110000X0.600000X-1.110000X0.600000X1.110000X-0.600000X1.110000X0*%
%ADD22RoundRect,0.102000X-1.050000X-0.700000X1.050000X-0.700000X1.050000X0.700000X-1.050000X0.700000X0*%
%ADD23RoundRect,0.060500X-0.181500X-0.776500X0.181500X-0.776500X0.181500X0.776500X-0.181500X0.776500X0*%
%ADD24RoundRect,0.060500X-0.776500X-0.181500X0.776500X-0.181500X0.776500X0.181500X-0.776500X0.181500X0*%
G04 APERTURE END LIST*
D10*
%TO.C,U2*%
X167325000Y-47800000D02*
X167175000Y-47800000D01*
X167172000Y-47800000D01*
X167170000Y-47800000D01*
X167167000Y-47799000D01*
X167165000Y-47799000D01*
X167162000Y-47798000D01*
X167160000Y-47798000D01*
X167157000Y-47797000D01*
X167155000Y-47796000D01*
X167152000Y-47795000D01*
X167150000Y-47793000D01*
X167148000Y-47792000D01*
X167146000Y-47790000D01*
X167144000Y-47789000D01*
X167142000Y-47787000D01*
X167140000Y-47785000D01*
X167138000Y-47783000D01*
X167136000Y-47781000D01*
X167135000Y-47779000D01*
X167133000Y-47777000D01*
X167132000Y-47775000D01*
X167130000Y-47773000D01*
X167129000Y-47770000D01*
X167128000Y-47768000D01*
X167127000Y-47765000D01*
X167127000Y-47763000D01*
X167126000Y-47760000D01*
X167126000Y-47758000D01*
X167125000Y-47755000D01*
X167125000Y-47753000D01*
X167125000Y-47750000D01*
X167125000Y-47450000D01*
X166875000Y-47450000D01*
X166875000Y-47750000D01*
X166875000Y-47753000D01*
X166875000Y-47755000D01*
X166874000Y-47758000D01*
X166874000Y-47760000D01*
X166873000Y-47763000D01*
X166873000Y-47765000D01*
X166872000Y-47768000D01*
X166871000Y-47770000D01*
X166870000Y-47773000D01*
X166868000Y-47775000D01*
X166867000Y-47777000D01*
X166865000Y-47779000D01*
X166864000Y-47781000D01*
X166862000Y-47783000D01*
X166860000Y-47785000D01*
X166858000Y-47787000D01*
X166856000Y-47789000D01*
X166854000Y-47790000D01*
X166852000Y-47792000D01*
X166850000Y-47793000D01*
X166848000Y-47795000D01*
X166845000Y-47796000D01*
X166843000Y-47797000D01*
X166840000Y-47798000D01*
X166838000Y-47798000D01*
X166835000Y-47799000D01*
X166833000Y-47799000D01*
X166830000Y-47800000D01*
X166828000Y-47800000D01*
X166825000Y-47800000D01*
X166675000Y-47800000D01*
X166672000Y-47800000D01*
X166670000Y-47800000D01*
X166667000Y-47799000D01*
X166665000Y-47799000D01*
X166662000Y-47798000D01*
X166660000Y-47798000D01*
X166657000Y-47797000D01*
X166655000Y-47796000D01*
X166652000Y-47795000D01*
X166650000Y-47793000D01*
X166648000Y-47792000D01*
X166646000Y-47790000D01*
X166644000Y-47789000D01*
X166642000Y-47787000D01*
X166640000Y-47785000D01*
X166638000Y-47783000D01*
X166636000Y-47781000D01*
X166635000Y-47779000D01*
X166633000Y-47777000D01*
X166632000Y-47775000D01*
X166630000Y-47773000D01*
X166629000Y-47770000D01*
X166628000Y-47768000D01*
X166627000Y-47765000D01*
X166627000Y-47763000D01*
X166626000Y-47760000D01*
X166626000Y-47758000D01*
X166625000Y-47755000D01*
X166625000Y-47753000D01*
X166625000Y-47750000D01*
X166625000Y-47250000D01*
X166625000Y-47247000D01*
X166625000Y-47245000D01*
X166626000Y-47242000D01*
X166626000Y-47240000D01*
X166627000Y-47237000D01*
X166627000Y-47235000D01*
X166628000Y-47232000D01*
X166629000Y-47230000D01*
X166630000Y-47227000D01*
X166632000Y-47225000D01*
X166633000Y-47223000D01*
X166635000Y-47221000D01*
X166636000Y-47219000D01*
X166638000Y-47217000D01*
X166640000Y-47215000D01*
X166642000Y-47213000D01*
X166644000Y-47211000D01*
X166646000Y-47210000D01*
X166648000Y-47208000D01*
X166650000Y-47207000D01*
X166652000Y-47205000D01*
X166655000Y-47204000D01*
X166657000Y-47203000D01*
X166660000Y-47202000D01*
X166662000Y-47202000D01*
X166665000Y-47201000D01*
X166667000Y-47201000D01*
X166670000Y-47200000D01*
X166672000Y-47200000D01*
X166675000Y-47200000D01*
X167325000Y-47200000D01*
X167328000Y-47200000D01*
X167330000Y-47200000D01*
X167333000Y-47201000D01*
X167335000Y-47201000D01*
X167338000Y-47202000D01*
X167340000Y-47202000D01*
X167343000Y-47203000D01*
X167345000Y-47204000D01*
X167348000Y-47205000D01*
X167350000Y-47207000D01*
X167352000Y-47208000D01*
X167354000Y-47210000D01*
X167356000Y-47211000D01*
X167358000Y-47213000D01*
X167360000Y-47215000D01*
X167362000Y-47217000D01*
X167364000Y-47219000D01*
X167365000Y-47221000D01*
X167367000Y-47223000D01*
X167368000Y-47225000D01*
X167370000Y-47227000D01*
X167371000Y-47230000D01*
X167372000Y-47232000D01*
X167373000Y-47235000D01*
X167373000Y-47237000D01*
X167374000Y-47240000D01*
X167374000Y-47242000D01*
X167375000Y-47245000D01*
X167375000Y-47247000D01*
X167375000Y-47250000D01*
X167375000Y-47750000D01*
X167375000Y-47753000D01*
X167375000Y-47755000D01*
X167374000Y-47758000D01*
X167374000Y-47760000D01*
X167373000Y-47763000D01*
X167373000Y-47765000D01*
X167372000Y-47768000D01*
X167371000Y-47770000D01*
X167370000Y-47773000D01*
X167368000Y-47775000D01*
X167367000Y-47777000D01*
X167365000Y-47779000D01*
X167364000Y-47781000D01*
X167362000Y-47783000D01*
X167360000Y-47785000D01*
X167358000Y-47787000D01*
X167356000Y-47789000D01*
X167354000Y-47790000D01*
X167352000Y-47792000D01*
X167350000Y-47793000D01*
X167348000Y-47795000D01*
X167345000Y-47796000D01*
X167343000Y-47797000D01*
X167340000Y-47798000D01*
X167338000Y-47798000D01*
X167335000Y-47799000D01*
X167333000Y-47799000D01*
X167330000Y-47800000D01*
X167328000Y-47800000D01*
X167325000Y-47800000D01*
G36*
X167333000Y-47201000D02*
G01*
X167335000Y-47201000D01*
X167338000Y-47202000D01*
X167340000Y-47202000D01*
X167343000Y-47203000D01*
X167345000Y-47204000D01*
X167348000Y-47205000D01*
X167350000Y-47207000D01*
X167352000Y-47208000D01*
X167354000Y-47210000D01*
X167356000Y-47211000D01*
X167358000Y-47213000D01*
X167360000Y-47215000D01*
X167362000Y-47217000D01*
X167364000Y-47219000D01*
X167365000Y-47221000D01*
X167367000Y-47223000D01*
X167368000Y-47225000D01*
X167370000Y-47227000D01*
X167371000Y-47230000D01*
X167372000Y-47232000D01*
X167373000Y-47235000D01*
X167373000Y-47237000D01*
X167374000Y-47240000D01*
X167374000Y-47242000D01*
X167375000Y-47245000D01*
X167375000Y-47247000D01*
X167375000Y-47250000D01*
X167375000Y-47750000D01*
X167375000Y-47753000D01*
X167375000Y-47755000D01*
X167374000Y-47758000D01*
X167374000Y-47760000D01*
X167373000Y-47763000D01*
X167373000Y-47765000D01*
X167372000Y-47768000D01*
X167371000Y-47770000D01*
X167370000Y-47773000D01*
X167368000Y-47775000D01*
X167367000Y-47777000D01*
X167365000Y-47779000D01*
X167364000Y-47781000D01*
X167362000Y-47783000D01*
X167360000Y-47785000D01*
X167358000Y-47787000D01*
X167356000Y-47789000D01*
X167354000Y-47790000D01*
X167352000Y-47792000D01*
X167350000Y-47793000D01*
X167348000Y-47795000D01*
X167345000Y-47796000D01*
X167343000Y-47797000D01*
X167340000Y-47798000D01*
X167338000Y-47798000D01*
X167335000Y-47799000D01*
X167333000Y-47799000D01*
X167330000Y-47800000D01*
X167328000Y-47800000D01*
X167325000Y-47800000D01*
X167175000Y-47800000D01*
X167172000Y-47800000D01*
X167170000Y-47800000D01*
X167167000Y-47799000D01*
X167165000Y-47799000D01*
X167162000Y-47798000D01*
X167160000Y-47798000D01*
X167157000Y-47797000D01*
X167155000Y-47796000D01*
X167152000Y-47795000D01*
X167150000Y-47793000D01*
X167148000Y-47792000D01*
X167146000Y-47790000D01*
X167144000Y-47789000D01*
X167142000Y-47787000D01*
X167140000Y-47785000D01*
X167138000Y-47783000D01*
X167136000Y-47781000D01*
X167135000Y-47779000D01*
X167133000Y-47777000D01*
X167132000Y-47775000D01*
X167130000Y-47773000D01*
X167129000Y-47770000D01*
X167128000Y-47768000D01*
X167127000Y-47765000D01*
X167127000Y-47763000D01*
X167126000Y-47760000D01*
X167126000Y-47758000D01*
X167125000Y-47755000D01*
X167125000Y-47753000D01*
X167125000Y-47750000D01*
X167125000Y-47450000D01*
X166875000Y-47450000D01*
X166875000Y-47750000D01*
X166875000Y-47753000D01*
X166875000Y-47755000D01*
X166874000Y-47758000D01*
X166874000Y-47760000D01*
X166873000Y-47763000D01*
X166873000Y-47765000D01*
X166872000Y-47768000D01*
X166871000Y-47770000D01*
X166870000Y-47773000D01*
X166868000Y-47775000D01*
X166867000Y-47777000D01*
X166865000Y-47779000D01*
X166864000Y-47781000D01*
X166862000Y-47783000D01*
X166860000Y-47785000D01*
X166858000Y-47787000D01*
X166856000Y-47789000D01*
X166854000Y-47790000D01*
X166852000Y-47792000D01*
X166850000Y-47793000D01*
X166848000Y-47795000D01*
X166845000Y-47796000D01*
X166843000Y-47797000D01*
X166840000Y-47798000D01*
X166838000Y-47798000D01*
X166835000Y-47799000D01*
X166833000Y-47799000D01*
X166830000Y-47800000D01*
X166828000Y-47800000D01*
X166825000Y-47800000D01*
X166675000Y-47800000D01*
X166672000Y-47800000D01*
X166670000Y-47800000D01*
X166667000Y-47799000D01*
X166665000Y-47799000D01*
X166662000Y-47798000D01*
X166660000Y-47798000D01*
X166657000Y-47797000D01*
X166655000Y-47796000D01*
X166652000Y-47795000D01*
X166650000Y-47793000D01*
X166648000Y-47792000D01*
X166646000Y-47790000D01*
X166644000Y-47789000D01*
X166642000Y-47787000D01*
X166640000Y-47785000D01*
X166638000Y-47783000D01*
X166636000Y-47781000D01*
X166635000Y-47779000D01*
X166633000Y-47777000D01*
X166632000Y-47775000D01*
X166630000Y-47773000D01*
X166629000Y-47770000D01*
X166628000Y-47768000D01*
X166627000Y-47765000D01*
X166627000Y-47763000D01*
X166626000Y-47760000D01*
X166626000Y-47758000D01*
X166625000Y-47755000D01*
X166625000Y-47753000D01*
X166625000Y-47750000D01*
X166625000Y-47250000D01*
X166625000Y-47247000D01*
X166625000Y-47245000D01*
X166626000Y-47242000D01*
X166626000Y-47240000D01*
X166627000Y-47237000D01*
X166627000Y-47235000D01*
X166628000Y-47232000D01*
X166629000Y-47230000D01*
X166630000Y-47227000D01*
X166632000Y-47225000D01*
X166633000Y-47223000D01*
X166635000Y-47221000D01*
X166636000Y-47219000D01*
X166638000Y-47217000D01*
X166640000Y-47215000D01*
X166642000Y-47213000D01*
X166644000Y-47211000D01*
X166646000Y-47210000D01*
X166648000Y-47208000D01*
X166650000Y-47207000D01*
X166652000Y-47205000D01*
X166655000Y-47204000D01*
X166657000Y-47203000D01*
X166660000Y-47202000D01*
X166662000Y-47202000D01*
X166665000Y-47201000D01*
X166667000Y-47201000D01*
X166670000Y-47200000D01*
X166672000Y-47200000D01*
X166675000Y-47200000D01*
X167325000Y-47200000D01*
X167328000Y-47200000D01*
X167330000Y-47200000D01*
X167333000Y-47201000D01*
G37*
X166675000Y-44400000D02*
X166825000Y-44400000D01*
X166828000Y-44400000D01*
X166830000Y-44400000D01*
X166833000Y-44401000D01*
X166835000Y-44401000D01*
X166838000Y-44402000D01*
X166840000Y-44402000D01*
X166843000Y-44403000D01*
X166845000Y-44404000D01*
X166848000Y-44405000D01*
X166850000Y-44407000D01*
X166852000Y-44408000D01*
X166854000Y-44410000D01*
X166856000Y-44411000D01*
X166858000Y-44413000D01*
X166860000Y-44415000D01*
X166862000Y-44417000D01*
X166864000Y-44419000D01*
X166865000Y-44421000D01*
X166867000Y-44423000D01*
X166868000Y-44425000D01*
X166870000Y-44427000D01*
X166871000Y-44430000D01*
X166872000Y-44432000D01*
X166873000Y-44435000D01*
X166873000Y-44437000D01*
X166874000Y-44440000D01*
X166874000Y-44442000D01*
X166875000Y-44445000D01*
X166875000Y-44447000D01*
X166875000Y-44450000D01*
X166875000Y-44750000D01*
X167125000Y-44750000D01*
X167125000Y-44450000D01*
X167125000Y-44447000D01*
X167125000Y-44445000D01*
X167126000Y-44442000D01*
X167126000Y-44440000D01*
X167127000Y-44437000D01*
X167127000Y-44435000D01*
X167128000Y-44432000D01*
X167129000Y-44430000D01*
X167130000Y-44427000D01*
X167132000Y-44425000D01*
X167133000Y-44423000D01*
X167135000Y-44421000D01*
X167136000Y-44419000D01*
X167138000Y-44417000D01*
X167140000Y-44415000D01*
X167142000Y-44413000D01*
X167144000Y-44411000D01*
X167146000Y-44410000D01*
X167148000Y-44408000D01*
X167150000Y-44407000D01*
X167152000Y-44405000D01*
X167155000Y-44404000D01*
X167157000Y-44403000D01*
X167160000Y-44402000D01*
X167162000Y-44402000D01*
X167165000Y-44401000D01*
X167167000Y-44401000D01*
X167170000Y-44400000D01*
X167172000Y-44400000D01*
X167175000Y-44400000D01*
X167325000Y-44400000D01*
X167328000Y-44400000D01*
X167330000Y-44400000D01*
X167333000Y-44401000D01*
X167335000Y-44401000D01*
X167338000Y-44402000D01*
X167340000Y-44402000D01*
X167343000Y-44403000D01*
X167345000Y-44404000D01*
X167348000Y-44405000D01*
X167350000Y-44407000D01*
X167352000Y-44408000D01*
X167354000Y-44410000D01*
X167356000Y-44411000D01*
X167358000Y-44413000D01*
X167360000Y-44415000D01*
X167362000Y-44417000D01*
X167364000Y-44419000D01*
X167365000Y-44421000D01*
X167367000Y-44423000D01*
X167368000Y-44425000D01*
X167370000Y-44427000D01*
X167371000Y-44430000D01*
X167372000Y-44432000D01*
X167373000Y-44435000D01*
X167373000Y-44437000D01*
X167374000Y-44440000D01*
X167374000Y-44442000D01*
X167375000Y-44445000D01*
X167375000Y-44447000D01*
X167375000Y-44450000D01*
X167375000Y-44950000D01*
X167375000Y-44953000D01*
X167375000Y-44955000D01*
X167374000Y-44958000D01*
X167374000Y-44960000D01*
X167373000Y-44963000D01*
X167373000Y-44965000D01*
X167372000Y-44968000D01*
X167371000Y-44970000D01*
X167370000Y-44973000D01*
X167368000Y-44975000D01*
X167367000Y-44977000D01*
X167365000Y-44979000D01*
X167364000Y-44981000D01*
X167362000Y-44983000D01*
X167360000Y-44985000D01*
X167358000Y-44987000D01*
X167356000Y-44989000D01*
X167354000Y-44990000D01*
X167352000Y-44992000D01*
X167350000Y-44993000D01*
X167348000Y-44995000D01*
X167345000Y-44996000D01*
X167343000Y-44997000D01*
X167340000Y-44998000D01*
X167338000Y-44998000D01*
X167335000Y-44999000D01*
X167333000Y-44999000D01*
X167330000Y-45000000D01*
X167328000Y-45000000D01*
X167325000Y-45000000D01*
X166675000Y-45000000D01*
X166672000Y-45000000D01*
X166670000Y-45000000D01*
X166667000Y-44999000D01*
X166665000Y-44999000D01*
X166662000Y-44998000D01*
X166660000Y-44998000D01*
X166657000Y-44997000D01*
X166655000Y-44996000D01*
X166652000Y-44995000D01*
X166650000Y-44993000D01*
X166648000Y-44992000D01*
X166646000Y-44990000D01*
X166644000Y-44989000D01*
X166642000Y-44987000D01*
X166640000Y-44985000D01*
X166638000Y-44983000D01*
X166636000Y-44981000D01*
X166635000Y-44979000D01*
X166633000Y-44977000D01*
X166632000Y-44975000D01*
X166630000Y-44973000D01*
X166629000Y-44970000D01*
X166628000Y-44968000D01*
X166627000Y-44965000D01*
X166627000Y-44963000D01*
X166626000Y-44960000D01*
X166626000Y-44958000D01*
X166625000Y-44955000D01*
X166625000Y-44953000D01*
X166625000Y-44950000D01*
X166625000Y-44450000D01*
X166625000Y-44447000D01*
X166625000Y-44445000D01*
X166626000Y-44442000D01*
X166626000Y-44440000D01*
X166627000Y-44437000D01*
X166627000Y-44435000D01*
X166628000Y-44432000D01*
X166629000Y-44430000D01*
X166630000Y-44427000D01*
X166632000Y-44425000D01*
X166633000Y-44423000D01*
X166635000Y-44421000D01*
X166636000Y-44419000D01*
X166638000Y-44417000D01*
X166640000Y-44415000D01*
X166642000Y-44413000D01*
X166644000Y-44411000D01*
X166646000Y-44410000D01*
X166648000Y-44408000D01*
X166650000Y-44407000D01*
X166652000Y-44405000D01*
X166655000Y-44404000D01*
X166657000Y-44403000D01*
X166660000Y-44402000D01*
X166662000Y-44402000D01*
X166665000Y-44401000D01*
X166667000Y-44401000D01*
X166670000Y-44400000D01*
X166672000Y-44400000D01*
X166675000Y-44400000D01*
G36*
X166833000Y-44401000D02*
G01*
X166835000Y-44401000D01*
X166838000Y-44402000D01*
X166840000Y-44402000D01*
X166843000Y-44403000D01*
X166845000Y-44404000D01*
X166848000Y-44405000D01*
X166850000Y-44407000D01*
X166852000Y-44408000D01*
X166854000Y-44410000D01*
X166856000Y-44411000D01*
X166858000Y-44413000D01*
X166860000Y-44415000D01*
X166862000Y-44417000D01*
X166864000Y-44419000D01*
X166865000Y-44421000D01*
X166867000Y-44423000D01*
X166868000Y-44425000D01*
X166870000Y-44427000D01*
X166871000Y-44430000D01*
X166872000Y-44432000D01*
X166873000Y-44435000D01*
X166873000Y-44437000D01*
X166874000Y-44440000D01*
X166874000Y-44442000D01*
X166875000Y-44445000D01*
X166875000Y-44447000D01*
X166875000Y-44450000D01*
X166875000Y-44750000D01*
X167125000Y-44750000D01*
X167125000Y-44450000D01*
X167125000Y-44447000D01*
X167125000Y-44445000D01*
X167126000Y-44442000D01*
X167126000Y-44440000D01*
X167127000Y-44437000D01*
X167127000Y-44435000D01*
X167128000Y-44432000D01*
X167129000Y-44430000D01*
X167130000Y-44427000D01*
X167132000Y-44425000D01*
X167133000Y-44423000D01*
X167135000Y-44421000D01*
X167136000Y-44419000D01*
X167138000Y-44417000D01*
X167140000Y-44415000D01*
X167142000Y-44413000D01*
X167144000Y-44411000D01*
X167146000Y-44410000D01*
X167148000Y-44408000D01*
X167150000Y-44407000D01*
X167152000Y-44405000D01*
X167155000Y-44404000D01*
X167157000Y-44403000D01*
X167160000Y-44402000D01*
X167162000Y-44402000D01*
X167165000Y-44401000D01*
X167167000Y-44401000D01*
X167170000Y-44400000D01*
X167172000Y-44400000D01*
X167175000Y-44400000D01*
X167325000Y-44400000D01*
X167328000Y-44400000D01*
X167330000Y-44400000D01*
X167333000Y-44401000D01*
X167335000Y-44401000D01*
X167338000Y-44402000D01*
X167340000Y-44402000D01*
X167343000Y-44403000D01*
X167345000Y-44404000D01*
X167348000Y-44405000D01*
X167350000Y-44407000D01*
X167352000Y-44408000D01*
X167354000Y-44410000D01*
X167356000Y-44411000D01*
X167358000Y-44413000D01*
X167360000Y-44415000D01*
X167362000Y-44417000D01*
X167364000Y-44419000D01*
X167365000Y-44421000D01*
X167367000Y-44423000D01*
X167368000Y-44425000D01*
X167370000Y-44427000D01*
X167371000Y-44430000D01*
X167372000Y-44432000D01*
X167373000Y-44435000D01*
X167373000Y-44437000D01*
X167374000Y-44440000D01*
X167374000Y-44442000D01*
X167375000Y-44445000D01*
X167375000Y-44447000D01*
X167375000Y-44450000D01*
X167375000Y-44950000D01*
X167375000Y-44953000D01*
X167375000Y-44955000D01*
X167374000Y-44958000D01*
X167374000Y-44960000D01*
X167373000Y-44963000D01*
X167373000Y-44965000D01*
X167372000Y-44968000D01*
X167371000Y-44970000D01*
X167370000Y-44973000D01*
X167368000Y-44975000D01*
X167367000Y-44977000D01*
X167365000Y-44979000D01*
X167364000Y-44981000D01*
X167362000Y-44983000D01*
X167360000Y-44985000D01*
X167358000Y-44987000D01*
X167356000Y-44989000D01*
X167354000Y-44990000D01*
X167352000Y-44992000D01*
X167350000Y-44993000D01*
X167348000Y-44995000D01*
X167345000Y-44996000D01*
X167343000Y-44997000D01*
X167340000Y-44998000D01*
X167338000Y-44998000D01*
X167335000Y-44999000D01*
X167333000Y-44999000D01*
X167330000Y-45000000D01*
X167328000Y-45000000D01*
X167325000Y-45000000D01*
X166675000Y-45000000D01*
X166672000Y-45000000D01*
X166670000Y-45000000D01*
X166667000Y-44999000D01*
X166665000Y-44999000D01*
X166662000Y-44998000D01*
X166660000Y-44998000D01*
X166657000Y-44997000D01*
X166655000Y-44996000D01*
X166652000Y-44995000D01*
X166650000Y-44993000D01*
X166648000Y-44992000D01*
X166646000Y-44990000D01*
X166644000Y-44989000D01*
X166642000Y-44987000D01*
X166640000Y-44985000D01*
X166638000Y-44983000D01*
X166636000Y-44981000D01*
X166635000Y-44979000D01*
X166633000Y-44977000D01*
X166632000Y-44975000D01*
X166630000Y-44973000D01*
X166629000Y-44970000D01*
X166628000Y-44968000D01*
X166627000Y-44965000D01*
X166627000Y-44963000D01*
X166626000Y-44960000D01*
X166626000Y-44958000D01*
X166625000Y-44955000D01*
X166625000Y-44953000D01*
X166625000Y-44950000D01*
X166625000Y-44450000D01*
X166625000Y-44447000D01*
X166625000Y-44445000D01*
X166626000Y-44442000D01*
X166626000Y-44440000D01*
X166627000Y-44437000D01*
X166627000Y-44435000D01*
X166628000Y-44432000D01*
X166629000Y-44430000D01*
X166630000Y-44427000D01*
X166632000Y-44425000D01*
X166633000Y-44423000D01*
X166635000Y-44421000D01*
X166636000Y-44419000D01*
X166638000Y-44417000D01*
X166640000Y-44415000D01*
X166642000Y-44413000D01*
X166644000Y-44411000D01*
X166646000Y-44410000D01*
X166648000Y-44408000D01*
X166650000Y-44407000D01*
X166652000Y-44405000D01*
X166655000Y-44404000D01*
X166657000Y-44403000D01*
X166660000Y-44402000D01*
X166662000Y-44402000D01*
X166665000Y-44401000D01*
X166667000Y-44401000D01*
X166670000Y-44400000D01*
X166672000Y-44400000D01*
X166675000Y-44400000D01*
X166825000Y-44400000D01*
X166828000Y-44400000D01*
X166830000Y-44400000D01*
X166833000Y-44401000D01*
G37*
X166575000Y-46525000D02*
X166575000Y-46675000D01*
X166575000Y-46678000D01*
X166575000Y-46680000D01*
X166576000Y-46683000D01*
X166576000Y-46685000D01*
X166577000Y-46688000D01*
X166577000Y-46690000D01*
X166578000Y-46693000D01*
X166579000Y-46695000D01*
X166580000Y-46698000D01*
X166582000Y-46700000D01*
X166583000Y-46702000D01*
X166585000Y-46704000D01*
X166586000Y-46706000D01*
X166588000Y-46708000D01*
X166590000Y-46710000D01*
X166592000Y-46712000D01*
X166594000Y-46714000D01*
X166596000Y-46715000D01*
X166598000Y-46717000D01*
X166600000Y-46718000D01*
X166602000Y-46720000D01*
X166605000Y-46721000D01*
X166607000Y-46722000D01*
X166610000Y-46723000D01*
X166612000Y-46723000D01*
X166615000Y-46724000D01*
X166617000Y-46724000D01*
X166620000Y-46725000D01*
X166622000Y-46725000D01*
X166625000Y-46725000D01*
X167875000Y-46725000D01*
X167878000Y-46725000D01*
X167880000Y-46725000D01*
X167883000Y-46724000D01*
X167885000Y-46724000D01*
X167888000Y-46723000D01*
X167890000Y-46723000D01*
X167893000Y-46722000D01*
X167895000Y-46721000D01*
X167898000Y-46720000D01*
X167900000Y-46718000D01*
X167902000Y-46717000D01*
X167904000Y-46715000D01*
X167906000Y-46714000D01*
X167908000Y-46712000D01*
X167910000Y-46710000D01*
X167912000Y-46708000D01*
X167914000Y-46706000D01*
X167915000Y-46704000D01*
X167917000Y-46702000D01*
X167918000Y-46700000D01*
X167920000Y-46698000D01*
X167921000Y-46695000D01*
X167922000Y-46693000D01*
X167923000Y-46690000D01*
X167923000Y-46688000D01*
X167924000Y-46685000D01*
X167924000Y-46683000D01*
X167925000Y-46680000D01*
X167925000Y-46678000D01*
X167925000Y-46675000D01*
X167925000Y-46525000D01*
X167925000Y-46522000D01*
X167925000Y-46520000D01*
X167924000Y-46517000D01*
X167924000Y-46515000D01*
X167923000Y-46512000D01*
X167923000Y-46510000D01*
X167922000Y-46507000D01*
X167921000Y-46505000D01*
X167920000Y-46502000D01*
X167918000Y-46500000D01*
X167917000Y-46498000D01*
X167915000Y-46496000D01*
X167914000Y-46494000D01*
X167912000Y-46492000D01*
X167910000Y-46490000D01*
X167908000Y-46488000D01*
X167906000Y-46486000D01*
X167904000Y-46485000D01*
X167902000Y-46483000D01*
X167900000Y-46482000D01*
X167898000Y-46480000D01*
X167895000Y-46479000D01*
X167893000Y-46478000D01*
X167890000Y-46477000D01*
X167888000Y-46477000D01*
X167885000Y-46476000D01*
X167883000Y-46476000D01*
X167880000Y-46475000D01*
X167878000Y-46475000D01*
X167875000Y-46475000D01*
X166625000Y-46475000D01*
X166622000Y-46475000D01*
X166620000Y-46475000D01*
X166617000Y-46476000D01*
X166615000Y-46476000D01*
X166612000Y-46477000D01*
X166610000Y-46477000D01*
X166607000Y-46478000D01*
X166605000Y-46479000D01*
X166602000Y-46480000D01*
X166600000Y-46482000D01*
X166598000Y-46483000D01*
X166596000Y-46485000D01*
X166594000Y-46486000D01*
X166592000Y-46488000D01*
X166590000Y-46490000D01*
X166588000Y-46492000D01*
X166586000Y-46494000D01*
X166585000Y-46496000D01*
X166583000Y-46498000D01*
X166582000Y-46500000D01*
X166580000Y-46502000D01*
X166579000Y-46505000D01*
X166578000Y-46507000D01*
X166577000Y-46510000D01*
X166577000Y-46512000D01*
X166576000Y-46515000D01*
X166576000Y-46517000D01*
X166575000Y-46520000D01*
X166575000Y-46522000D01*
X166575000Y-46525000D01*
G36*
X167883000Y-46476000D02*
G01*
X167885000Y-46476000D01*
X167888000Y-46477000D01*
X167890000Y-46477000D01*
X167893000Y-46478000D01*
X167895000Y-46479000D01*
X167898000Y-46480000D01*
X167900000Y-46482000D01*
X167902000Y-46483000D01*
X167904000Y-46485000D01*
X167906000Y-46486000D01*
X167908000Y-46488000D01*
X167910000Y-46490000D01*
X167912000Y-46492000D01*
X167914000Y-46494000D01*
X167915000Y-46496000D01*
X167917000Y-46498000D01*
X167918000Y-46500000D01*
X167920000Y-46502000D01*
X167921000Y-46505000D01*
X167922000Y-46507000D01*
X167923000Y-46510000D01*
X167923000Y-46512000D01*
X167924000Y-46515000D01*
X167924000Y-46517000D01*
X167925000Y-46520000D01*
X167925000Y-46522000D01*
X167925000Y-46525000D01*
X167925000Y-46675000D01*
X167925000Y-46678000D01*
X167925000Y-46680000D01*
X167924000Y-46683000D01*
X167924000Y-46685000D01*
X167923000Y-46688000D01*
X167923000Y-46690000D01*
X167922000Y-46693000D01*
X167921000Y-46695000D01*
X167920000Y-46698000D01*
X167918000Y-46700000D01*
X167917000Y-46702000D01*
X167915000Y-46704000D01*
X167914000Y-46706000D01*
X167912000Y-46708000D01*
X167910000Y-46710000D01*
X167908000Y-46712000D01*
X167906000Y-46714000D01*
X167904000Y-46715000D01*
X167902000Y-46717000D01*
X167900000Y-46718000D01*
X167898000Y-46720000D01*
X167895000Y-46721000D01*
X167893000Y-46722000D01*
X167890000Y-46723000D01*
X167888000Y-46723000D01*
X167885000Y-46724000D01*
X167883000Y-46724000D01*
X167880000Y-46725000D01*
X167878000Y-46725000D01*
X167875000Y-46725000D01*
X166625000Y-46725000D01*
X166622000Y-46725000D01*
X166620000Y-46725000D01*
X166617000Y-46724000D01*
X166615000Y-46724000D01*
X166612000Y-46723000D01*
X166610000Y-46723000D01*
X166607000Y-46722000D01*
X166605000Y-46721000D01*
X166602000Y-46720000D01*
X166600000Y-46718000D01*
X166598000Y-46717000D01*
X166596000Y-46715000D01*
X166594000Y-46714000D01*
X166592000Y-46712000D01*
X166590000Y-46710000D01*
X166588000Y-46708000D01*
X166586000Y-46706000D01*
X166585000Y-46704000D01*
X166583000Y-46702000D01*
X166582000Y-46700000D01*
X166580000Y-46698000D01*
X166579000Y-46695000D01*
X166578000Y-46693000D01*
X166577000Y-46690000D01*
X166577000Y-46688000D01*
X166576000Y-46685000D01*
X166576000Y-46683000D01*
X166575000Y-46680000D01*
X166575000Y-46678000D01*
X166575000Y-46675000D01*
X166575000Y-46525000D01*
X166575000Y-46522000D01*
X166575000Y-46520000D01*
X166576000Y-46517000D01*
X166576000Y-46515000D01*
X166577000Y-46512000D01*
X166577000Y-46510000D01*
X166578000Y-46507000D01*
X166579000Y-46505000D01*
X166580000Y-46502000D01*
X166582000Y-46500000D01*
X166583000Y-46498000D01*
X166585000Y-46496000D01*
X166586000Y-46494000D01*
X166588000Y-46492000D01*
X166590000Y-46490000D01*
X166592000Y-46488000D01*
X166594000Y-46486000D01*
X166596000Y-46485000D01*
X166598000Y-46483000D01*
X166600000Y-46482000D01*
X166602000Y-46480000D01*
X166605000Y-46479000D01*
X166607000Y-46478000D01*
X166610000Y-46477000D01*
X166612000Y-46477000D01*
X166615000Y-46476000D01*
X166617000Y-46476000D01*
X166620000Y-46475000D01*
X166622000Y-46475000D01*
X166625000Y-46475000D01*
X167875000Y-46475000D01*
X167878000Y-46475000D01*
X167880000Y-46475000D01*
X167883000Y-46476000D01*
G37*
X166575000Y-45525000D02*
X166575000Y-45675000D01*
X166575000Y-45678000D01*
X166575000Y-45680000D01*
X166576000Y-45683000D01*
X166576000Y-45685000D01*
X166577000Y-45688000D01*
X166577000Y-45690000D01*
X166578000Y-45693000D01*
X166579000Y-45695000D01*
X166580000Y-45698000D01*
X166582000Y-45700000D01*
X166583000Y-45702000D01*
X166585000Y-45704000D01*
X166586000Y-45706000D01*
X166588000Y-45708000D01*
X166590000Y-45710000D01*
X166592000Y-45712000D01*
X166594000Y-45714000D01*
X166596000Y-45715000D01*
X166598000Y-45717000D01*
X166600000Y-45718000D01*
X166602000Y-45720000D01*
X166605000Y-45721000D01*
X166607000Y-45722000D01*
X166610000Y-45723000D01*
X166612000Y-45723000D01*
X166615000Y-45724000D01*
X166617000Y-45724000D01*
X166620000Y-45725000D01*
X166622000Y-45725000D01*
X166625000Y-45725000D01*
X167875000Y-45725000D01*
X167878000Y-45725000D01*
X167880000Y-45725000D01*
X167883000Y-45724000D01*
X167885000Y-45724000D01*
X167888000Y-45723000D01*
X167890000Y-45723000D01*
X167893000Y-45722000D01*
X167895000Y-45721000D01*
X167898000Y-45720000D01*
X167900000Y-45718000D01*
X167902000Y-45717000D01*
X167904000Y-45715000D01*
X167906000Y-45714000D01*
X167908000Y-45712000D01*
X167910000Y-45710000D01*
X167912000Y-45708000D01*
X167914000Y-45706000D01*
X167915000Y-45704000D01*
X167917000Y-45702000D01*
X167918000Y-45700000D01*
X167920000Y-45698000D01*
X167921000Y-45695000D01*
X167922000Y-45693000D01*
X167923000Y-45690000D01*
X167923000Y-45688000D01*
X167924000Y-45685000D01*
X167924000Y-45683000D01*
X167925000Y-45680000D01*
X167925000Y-45678000D01*
X167925000Y-45675000D01*
X167925000Y-45525000D01*
X167925000Y-45522000D01*
X167925000Y-45520000D01*
X167924000Y-45517000D01*
X167924000Y-45515000D01*
X167923000Y-45512000D01*
X167923000Y-45510000D01*
X167922000Y-45507000D01*
X167921000Y-45505000D01*
X167920000Y-45502000D01*
X167918000Y-45500000D01*
X167917000Y-45498000D01*
X167915000Y-45496000D01*
X167914000Y-45494000D01*
X167912000Y-45492000D01*
X167910000Y-45490000D01*
X167908000Y-45488000D01*
X167906000Y-45486000D01*
X167904000Y-45485000D01*
X167902000Y-45483000D01*
X167900000Y-45482000D01*
X167898000Y-45480000D01*
X167895000Y-45479000D01*
X167893000Y-45478000D01*
X167890000Y-45477000D01*
X167888000Y-45477000D01*
X167885000Y-45476000D01*
X167883000Y-45476000D01*
X167880000Y-45475000D01*
X167878000Y-45475000D01*
X167875000Y-45475000D01*
X166625000Y-45475000D01*
X166622000Y-45475000D01*
X166620000Y-45475000D01*
X166617000Y-45476000D01*
X166615000Y-45476000D01*
X166612000Y-45477000D01*
X166610000Y-45477000D01*
X166607000Y-45478000D01*
X166605000Y-45479000D01*
X166602000Y-45480000D01*
X166600000Y-45482000D01*
X166598000Y-45483000D01*
X166596000Y-45485000D01*
X166594000Y-45486000D01*
X166592000Y-45488000D01*
X166590000Y-45490000D01*
X166588000Y-45492000D01*
X166586000Y-45494000D01*
X166585000Y-45496000D01*
X166583000Y-45498000D01*
X166582000Y-45500000D01*
X166580000Y-45502000D01*
X166579000Y-45505000D01*
X166578000Y-45507000D01*
X166577000Y-45510000D01*
X166577000Y-45512000D01*
X166576000Y-45515000D01*
X166576000Y-45517000D01*
X166575000Y-45520000D01*
X166575000Y-45522000D01*
X166575000Y-45525000D01*
G36*
X167883000Y-45476000D02*
G01*
X167885000Y-45476000D01*
X167888000Y-45477000D01*
X167890000Y-45477000D01*
X167893000Y-45478000D01*
X167895000Y-45479000D01*
X167898000Y-45480000D01*
X167900000Y-45482000D01*
X167902000Y-45483000D01*
X167904000Y-45485000D01*
X167906000Y-45486000D01*
X167908000Y-45488000D01*
X167910000Y-45490000D01*
X167912000Y-45492000D01*
X167914000Y-45494000D01*
X167915000Y-45496000D01*
X167917000Y-45498000D01*
X167918000Y-45500000D01*
X167920000Y-45502000D01*
X167921000Y-45505000D01*
X167922000Y-45507000D01*
X167923000Y-45510000D01*
X167923000Y-45512000D01*
X167924000Y-45515000D01*
X167924000Y-45517000D01*
X167925000Y-45520000D01*
X167925000Y-45522000D01*
X167925000Y-45525000D01*
X167925000Y-45675000D01*
X167925000Y-45678000D01*
X167925000Y-45680000D01*
X167924000Y-45683000D01*
X167924000Y-45685000D01*
X167923000Y-45688000D01*
X167923000Y-45690000D01*
X167922000Y-45693000D01*
X167921000Y-45695000D01*
X167920000Y-45698000D01*
X167918000Y-45700000D01*
X167917000Y-45702000D01*
X167915000Y-45704000D01*
X167914000Y-45706000D01*
X167912000Y-45708000D01*
X167910000Y-45710000D01*
X167908000Y-45712000D01*
X167906000Y-45714000D01*
X167904000Y-45715000D01*
X167902000Y-45717000D01*
X167900000Y-45718000D01*
X167898000Y-45720000D01*
X167895000Y-45721000D01*
X167893000Y-45722000D01*
X167890000Y-45723000D01*
X167888000Y-45723000D01*
X167885000Y-45724000D01*
X167883000Y-45724000D01*
X167880000Y-45725000D01*
X167878000Y-45725000D01*
X167875000Y-45725000D01*
X166625000Y-45725000D01*
X166622000Y-45725000D01*
X166620000Y-45725000D01*
X166617000Y-45724000D01*
X166615000Y-45724000D01*
X166612000Y-45723000D01*
X166610000Y-45723000D01*
X166607000Y-45722000D01*
X166605000Y-45721000D01*
X166602000Y-45720000D01*
X166600000Y-45718000D01*
X166598000Y-45717000D01*
X166596000Y-45715000D01*
X166594000Y-45714000D01*
X166592000Y-45712000D01*
X166590000Y-45710000D01*
X166588000Y-45708000D01*
X166586000Y-45706000D01*
X166585000Y-45704000D01*
X166583000Y-45702000D01*
X166582000Y-45700000D01*
X166580000Y-45698000D01*
X166579000Y-45695000D01*
X166578000Y-45693000D01*
X166577000Y-45690000D01*
X166577000Y-45688000D01*
X166576000Y-45685000D01*
X166576000Y-45683000D01*
X166575000Y-45680000D01*
X166575000Y-45678000D01*
X166575000Y-45675000D01*
X166575000Y-45525000D01*
X166575000Y-45522000D01*
X166575000Y-45520000D01*
X166576000Y-45517000D01*
X166576000Y-45515000D01*
X166577000Y-45512000D01*
X166577000Y-45510000D01*
X166578000Y-45507000D01*
X166579000Y-45505000D01*
X166580000Y-45502000D01*
X166582000Y-45500000D01*
X166583000Y-45498000D01*
X166585000Y-45496000D01*
X166586000Y-45494000D01*
X166588000Y-45492000D01*
X166590000Y-45490000D01*
X166592000Y-45488000D01*
X166594000Y-45486000D01*
X166596000Y-45485000D01*
X166598000Y-45483000D01*
X166600000Y-45482000D01*
X166602000Y-45480000D01*
X166605000Y-45479000D01*
X166607000Y-45478000D01*
X166610000Y-45477000D01*
X166612000Y-45477000D01*
X166615000Y-45476000D01*
X166617000Y-45476000D01*
X166620000Y-45475000D01*
X166622000Y-45475000D01*
X166625000Y-45475000D01*
X167875000Y-45475000D01*
X167878000Y-45475000D01*
X167880000Y-45475000D01*
X167883000Y-45476000D01*
G37*
X166225000Y-46025000D02*
X166225000Y-46175000D01*
X166225000Y-46178000D01*
X166225000Y-46180000D01*
X166226000Y-46183000D01*
X166226000Y-46185000D01*
X166227000Y-46188000D01*
X166227000Y-46190000D01*
X166228000Y-46193000D01*
X166229000Y-46195000D01*
X166230000Y-46198000D01*
X166232000Y-46200000D01*
X166233000Y-46202000D01*
X166235000Y-46204000D01*
X166236000Y-46206000D01*
X166238000Y-46208000D01*
X166240000Y-46210000D01*
X166242000Y-46212000D01*
X166244000Y-46214000D01*
X166246000Y-46215000D01*
X166248000Y-46217000D01*
X166250000Y-46218000D01*
X166252000Y-46220000D01*
X166255000Y-46221000D01*
X166257000Y-46222000D01*
X166260000Y-46223000D01*
X166262000Y-46223000D01*
X166265000Y-46224000D01*
X166267000Y-46224000D01*
X166270000Y-46225000D01*
X166272000Y-46225000D01*
X166275000Y-46225000D01*
X167875000Y-46225000D01*
X167878000Y-46225000D01*
X167880000Y-46225000D01*
X167883000Y-46224000D01*
X167885000Y-46224000D01*
X167888000Y-46223000D01*
X167890000Y-46223000D01*
X167893000Y-46222000D01*
X167895000Y-46221000D01*
X167898000Y-46220000D01*
X167900000Y-46218000D01*
X167902000Y-46217000D01*
X167904000Y-46215000D01*
X167906000Y-46214000D01*
X167908000Y-46212000D01*
X167910000Y-46210000D01*
X167912000Y-46208000D01*
X167914000Y-46206000D01*
X167915000Y-46204000D01*
X167917000Y-46202000D01*
X167918000Y-46200000D01*
X167920000Y-46198000D01*
X167921000Y-46195000D01*
X167922000Y-46193000D01*
X167923000Y-46190000D01*
X167923000Y-46188000D01*
X167924000Y-46185000D01*
X167924000Y-46183000D01*
X167925000Y-46180000D01*
X167925000Y-46178000D01*
X167925000Y-46175000D01*
X167925000Y-46025000D01*
X167925000Y-46022000D01*
X167925000Y-46020000D01*
X167924000Y-46017000D01*
X167924000Y-46015000D01*
X167923000Y-46012000D01*
X167923000Y-46010000D01*
X167922000Y-46007000D01*
X167921000Y-46005000D01*
X167920000Y-46002000D01*
X167918000Y-46000000D01*
X167917000Y-45998000D01*
X167915000Y-45996000D01*
X167914000Y-45994000D01*
X167912000Y-45992000D01*
X167910000Y-45990000D01*
X167908000Y-45988000D01*
X167906000Y-45986000D01*
X167904000Y-45985000D01*
X167902000Y-45983000D01*
X167900000Y-45982000D01*
X167898000Y-45980000D01*
X167895000Y-45979000D01*
X167893000Y-45978000D01*
X167890000Y-45977000D01*
X167888000Y-45977000D01*
X167885000Y-45976000D01*
X167883000Y-45976000D01*
X167880000Y-45975000D01*
X167878000Y-45975000D01*
X167875000Y-45975000D01*
X166275000Y-45975000D01*
X166272000Y-45975000D01*
X166270000Y-45975000D01*
X166267000Y-45976000D01*
X166265000Y-45976000D01*
X166262000Y-45977000D01*
X166260000Y-45977000D01*
X166257000Y-45978000D01*
X166255000Y-45979000D01*
X166252000Y-45980000D01*
X166250000Y-45982000D01*
X166248000Y-45983000D01*
X166246000Y-45985000D01*
X166244000Y-45986000D01*
X166242000Y-45988000D01*
X166240000Y-45990000D01*
X166238000Y-45992000D01*
X166236000Y-45994000D01*
X166235000Y-45996000D01*
X166233000Y-45998000D01*
X166232000Y-46000000D01*
X166230000Y-46002000D01*
X166229000Y-46005000D01*
X166228000Y-46007000D01*
X166227000Y-46010000D01*
X166227000Y-46012000D01*
X166226000Y-46015000D01*
X166226000Y-46017000D01*
X166225000Y-46020000D01*
X166225000Y-46022000D01*
X166225000Y-46025000D01*
G36*
X167883000Y-45976000D02*
G01*
X167885000Y-45976000D01*
X167888000Y-45977000D01*
X167890000Y-45977000D01*
X167893000Y-45978000D01*
X167895000Y-45979000D01*
X167898000Y-45980000D01*
X167900000Y-45982000D01*
X167902000Y-45983000D01*
X167904000Y-45985000D01*
X167906000Y-45986000D01*
X167908000Y-45988000D01*
X167910000Y-45990000D01*
X167912000Y-45992000D01*
X167914000Y-45994000D01*
X167915000Y-45996000D01*
X167917000Y-45998000D01*
X167918000Y-46000000D01*
X167920000Y-46002000D01*
X167921000Y-46005000D01*
X167922000Y-46007000D01*
X167923000Y-46010000D01*
X167923000Y-46012000D01*
X167924000Y-46015000D01*
X167924000Y-46017000D01*
X167925000Y-46020000D01*
X167925000Y-46022000D01*
X167925000Y-46025000D01*
X167925000Y-46175000D01*
X167925000Y-46178000D01*
X167925000Y-46180000D01*
X167924000Y-46183000D01*
X167924000Y-46185000D01*
X167923000Y-46188000D01*
X167923000Y-46190000D01*
X167922000Y-46193000D01*
X167921000Y-46195000D01*
X167920000Y-46198000D01*
X167918000Y-46200000D01*
X167917000Y-46202000D01*
X167915000Y-46204000D01*
X167914000Y-46206000D01*
X167912000Y-46208000D01*
X167910000Y-46210000D01*
X167908000Y-46212000D01*
X167906000Y-46214000D01*
X167904000Y-46215000D01*
X167902000Y-46217000D01*
X167900000Y-46218000D01*
X167898000Y-46220000D01*
X167895000Y-46221000D01*
X167893000Y-46222000D01*
X167890000Y-46223000D01*
X167888000Y-46223000D01*
X167885000Y-46224000D01*
X167883000Y-46224000D01*
X167880000Y-46225000D01*
X167878000Y-46225000D01*
X167875000Y-46225000D01*
X166275000Y-46225000D01*
X166272000Y-46225000D01*
X166270000Y-46225000D01*
X166267000Y-46224000D01*
X166265000Y-46224000D01*
X166262000Y-46223000D01*
X166260000Y-46223000D01*
X166257000Y-46222000D01*
X166255000Y-46221000D01*
X166252000Y-46220000D01*
X166250000Y-46218000D01*
X166248000Y-46217000D01*
X166246000Y-46215000D01*
X166244000Y-46214000D01*
X166242000Y-46212000D01*
X166240000Y-46210000D01*
X166238000Y-46208000D01*
X166236000Y-46206000D01*
X166235000Y-46204000D01*
X166233000Y-46202000D01*
X166232000Y-46200000D01*
X166230000Y-46198000D01*
X166229000Y-46195000D01*
X166228000Y-46193000D01*
X166227000Y-46190000D01*
X166227000Y-46188000D01*
X166226000Y-46185000D01*
X166226000Y-46183000D01*
X166225000Y-46180000D01*
X166225000Y-46178000D01*
X166225000Y-46175000D01*
X166225000Y-46025000D01*
X166225000Y-46022000D01*
X166225000Y-46020000D01*
X166226000Y-46017000D01*
X166226000Y-46015000D01*
X166227000Y-46012000D01*
X166227000Y-46010000D01*
X166228000Y-46007000D01*
X166229000Y-46005000D01*
X166230000Y-46002000D01*
X166232000Y-46000000D01*
X166233000Y-45998000D01*
X166235000Y-45996000D01*
X166236000Y-45994000D01*
X166238000Y-45992000D01*
X166240000Y-45990000D01*
X166242000Y-45988000D01*
X166244000Y-45986000D01*
X166246000Y-45985000D01*
X166248000Y-45983000D01*
X166250000Y-45982000D01*
X166252000Y-45980000D01*
X166255000Y-45979000D01*
X166257000Y-45978000D01*
X166260000Y-45977000D01*
X166262000Y-45977000D01*
X166265000Y-45976000D01*
X166267000Y-45976000D01*
X166270000Y-45975000D01*
X166272000Y-45975000D01*
X166275000Y-45975000D01*
X167875000Y-45975000D01*
X167878000Y-45975000D01*
X167880000Y-45975000D01*
X167883000Y-45976000D01*
G37*
X166075000Y-47250000D02*
X166075000Y-47750000D01*
X166075000Y-47755000D01*
X166076000Y-47760000D01*
X166076000Y-47766000D01*
X166077000Y-47771000D01*
X166078000Y-47776000D01*
X166080000Y-47781000D01*
X166082000Y-47786000D01*
X166084000Y-47791000D01*
X166086000Y-47795000D01*
X166088000Y-47800000D01*
X166091000Y-47804000D01*
X166094000Y-47809000D01*
X166097000Y-47813000D01*
X166101000Y-47817000D01*
X166104000Y-47821000D01*
X166108000Y-47824000D01*
X166112000Y-47828000D01*
X166116000Y-47831000D01*
X166121000Y-47834000D01*
X166125000Y-47837000D01*
X166130000Y-47839000D01*
X166134000Y-47841000D01*
X166139000Y-47843000D01*
X166144000Y-47845000D01*
X166149000Y-47847000D01*
X166154000Y-47848000D01*
X166159000Y-47849000D01*
X166165000Y-47849000D01*
X166170000Y-47850000D01*
X166175000Y-47850000D01*
X166325000Y-47850000D01*
X166330000Y-47850000D01*
X166335000Y-47849000D01*
X166341000Y-47849000D01*
X166346000Y-47848000D01*
X166351000Y-47847000D01*
X166356000Y-47845000D01*
X166361000Y-47843000D01*
X166366000Y-47841000D01*
X166370000Y-47839000D01*
X166375000Y-47837000D01*
X166379000Y-47834000D01*
X166384000Y-47831000D01*
X166388000Y-47828000D01*
X166392000Y-47824000D01*
X166396000Y-47821000D01*
X166399000Y-47817000D01*
X166403000Y-47813000D01*
X166406000Y-47809000D01*
X166409000Y-47804000D01*
X166412000Y-47800000D01*
X166414000Y-47795000D01*
X166416000Y-47791000D01*
X166418000Y-47786000D01*
X166420000Y-47781000D01*
X166422000Y-47776000D01*
X166423000Y-47771000D01*
X166424000Y-47766000D01*
X166424000Y-47760000D01*
X166425000Y-47755000D01*
X166425000Y-47750000D01*
X166425000Y-47250000D01*
X166425000Y-47245000D01*
X166424000Y-47240000D01*
X166424000Y-47234000D01*
X166423000Y-47229000D01*
X166422000Y-47224000D01*
X166420000Y-47219000D01*
X166418000Y-47214000D01*
X166416000Y-47209000D01*
X166414000Y-47205000D01*
X166412000Y-47200000D01*
X166409000Y-47196000D01*
X166406000Y-47191000D01*
X166403000Y-47187000D01*
X166399000Y-47183000D01*
X166396000Y-47179000D01*
X166392000Y-47176000D01*
X166388000Y-47172000D01*
X166384000Y-47169000D01*
X166379000Y-47166000D01*
X166375000Y-47163000D01*
X166370000Y-47161000D01*
X166366000Y-47159000D01*
X166361000Y-47157000D01*
X166356000Y-47155000D01*
X166351000Y-47153000D01*
X166346000Y-47152000D01*
X166341000Y-47151000D01*
X166335000Y-47151000D01*
X166330000Y-47150000D01*
X166325000Y-47150000D01*
X166175000Y-47150000D01*
X166170000Y-47150000D01*
X166165000Y-47151000D01*
X166159000Y-47151000D01*
X166154000Y-47152000D01*
X166149000Y-47153000D01*
X166144000Y-47155000D01*
X166139000Y-47157000D01*
X166134000Y-47159000D01*
X166130000Y-47161000D01*
X166125000Y-47163000D01*
X166121000Y-47166000D01*
X166116000Y-47169000D01*
X166112000Y-47172000D01*
X166108000Y-47176000D01*
X166104000Y-47179000D01*
X166101000Y-47183000D01*
X166097000Y-47187000D01*
X166094000Y-47191000D01*
X166091000Y-47196000D01*
X166088000Y-47200000D01*
X166086000Y-47205000D01*
X166084000Y-47209000D01*
X166082000Y-47214000D01*
X166080000Y-47219000D01*
X166078000Y-47224000D01*
X166077000Y-47229000D01*
X166076000Y-47234000D01*
X166076000Y-47240000D01*
X166075000Y-47245000D01*
X166075000Y-47250000D01*
G36*
X166335000Y-47151000D02*
G01*
X166341000Y-47151000D01*
X166346000Y-47152000D01*
X166351000Y-47153000D01*
X166356000Y-47155000D01*
X166361000Y-47157000D01*
X166366000Y-47159000D01*
X166370000Y-47161000D01*
X166375000Y-47163000D01*
X166379000Y-47166000D01*
X166384000Y-47169000D01*
X166388000Y-47172000D01*
X166392000Y-47176000D01*
X166396000Y-47179000D01*
X166399000Y-47183000D01*
X166403000Y-47187000D01*
X166406000Y-47191000D01*
X166409000Y-47196000D01*
X166412000Y-47200000D01*
X166414000Y-47205000D01*
X166416000Y-47209000D01*
X166418000Y-47214000D01*
X166420000Y-47219000D01*
X166422000Y-47224000D01*
X166423000Y-47229000D01*
X166424000Y-47234000D01*
X166424000Y-47240000D01*
X166425000Y-47245000D01*
X166425000Y-47250000D01*
X166425000Y-47750000D01*
X166425000Y-47755000D01*
X166424000Y-47760000D01*
X166424000Y-47766000D01*
X166423000Y-47771000D01*
X166422000Y-47776000D01*
X166420000Y-47781000D01*
X166418000Y-47786000D01*
X166416000Y-47791000D01*
X166414000Y-47795000D01*
X166412000Y-47800000D01*
X166409000Y-47804000D01*
X166406000Y-47809000D01*
X166403000Y-47813000D01*
X166399000Y-47817000D01*
X166396000Y-47821000D01*
X166392000Y-47824000D01*
X166388000Y-47828000D01*
X166384000Y-47831000D01*
X166379000Y-47834000D01*
X166375000Y-47837000D01*
X166370000Y-47839000D01*
X166366000Y-47841000D01*
X166361000Y-47843000D01*
X166356000Y-47845000D01*
X166351000Y-47847000D01*
X166346000Y-47848000D01*
X166341000Y-47849000D01*
X166335000Y-47849000D01*
X166330000Y-47850000D01*
X166325000Y-47850000D01*
X166175000Y-47850000D01*
X166170000Y-47850000D01*
X166165000Y-47849000D01*
X166159000Y-47849000D01*
X166154000Y-47848000D01*
X166149000Y-47847000D01*
X166144000Y-47845000D01*
X166139000Y-47843000D01*
X166134000Y-47841000D01*
X166130000Y-47839000D01*
X166125000Y-47837000D01*
X166121000Y-47834000D01*
X166116000Y-47831000D01*
X166112000Y-47828000D01*
X166108000Y-47824000D01*
X166104000Y-47821000D01*
X166101000Y-47817000D01*
X166097000Y-47813000D01*
X166094000Y-47809000D01*
X166091000Y-47804000D01*
X166088000Y-47800000D01*
X166086000Y-47795000D01*
X166084000Y-47791000D01*
X166082000Y-47786000D01*
X166080000Y-47781000D01*
X166078000Y-47776000D01*
X166077000Y-47771000D01*
X166076000Y-47766000D01*
X166076000Y-47760000D01*
X166075000Y-47755000D01*
X166075000Y-47750000D01*
X166075000Y-47250000D01*
X166075000Y-47245000D01*
X166076000Y-47240000D01*
X166076000Y-47234000D01*
X166077000Y-47229000D01*
X166078000Y-47224000D01*
X166080000Y-47219000D01*
X166082000Y-47214000D01*
X166084000Y-47209000D01*
X166086000Y-47205000D01*
X166088000Y-47200000D01*
X166091000Y-47196000D01*
X166094000Y-47191000D01*
X166097000Y-47187000D01*
X166101000Y-47183000D01*
X166104000Y-47179000D01*
X166108000Y-47176000D01*
X166112000Y-47172000D01*
X166116000Y-47169000D01*
X166121000Y-47166000D01*
X166125000Y-47163000D01*
X166130000Y-47161000D01*
X166134000Y-47159000D01*
X166139000Y-47157000D01*
X166144000Y-47155000D01*
X166149000Y-47153000D01*
X166154000Y-47152000D01*
X166159000Y-47151000D01*
X166165000Y-47151000D01*
X166170000Y-47150000D01*
X166175000Y-47150000D01*
X166325000Y-47150000D01*
X166330000Y-47150000D01*
X166335000Y-47151000D01*
G37*
X166075000Y-44450000D02*
X166075000Y-44950000D01*
X166075000Y-44955000D01*
X166076000Y-44960000D01*
X166076000Y-44966000D01*
X166077000Y-44971000D01*
X166078000Y-44976000D01*
X166080000Y-44981000D01*
X166082000Y-44986000D01*
X166084000Y-44991000D01*
X166086000Y-44995000D01*
X166088000Y-45000000D01*
X166091000Y-45004000D01*
X166094000Y-45009000D01*
X166097000Y-45013000D01*
X166101000Y-45017000D01*
X166104000Y-45021000D01*
X166108000Y-45024000D01*
X166112000Y-45028000D01*
X166116000Y-45031000D01*
X166121000Y-45034000D01*
X166125000Y-45037000D01*
X166130000Y-45039000D01*
X166134000Y-45041000D01*
X166139000Y-45043000D01*
X166144000Y-45045000D01*
X166149000Y-45047000D01*
X166154000Y-45048000D01*
X166159000Y-45049000D01*
X166165000Y-45049000D01*
X166170000Y-45050000D01*
X166175000Y-45050000D01*
X166325000Y-45050000D01*
X166330000Y-45050000D01*
X166335000Y-45049000D01*
X166341000Y-45049000D01*
X166346000Y-45048000D01*
X166351000Y-45047000D01*
X166356000Y-45045000D01*
X166361000Y-45043000D01*
X166366000Y-45041000D01*
X166370000Y-45039000D01*
X166375000Y-45037000D01*
X166379000Y-45034000D01*
X166384000Y-45031000D01*
X166388000Y-45028000D01*
X166392000Y-45024000D01*
X166396000Y-45021000D01*
X166399000Y-45017000D01*
X166403000Y-45013000D01*
X166406000Y-45009000D01*
X166409000Y-45004000D01*
X166412000Y-45000000D01*
X166414000Y-44995000D01*
X166416000Y-44991000D01*
X166418000Y-44986000D01*
X166420000Y-44981000D01*
X166422000Y-44976000D01*
X166423000Y-44971000D01*
X166424000Y-44966000D01*
X166424000Y-44960000D01*
X166425000Y-44955000D01*
X166425000Y-44950000D01*
X166425000Y-44450000D01*
X166425000Y-44445000D01*
X166424000Y-44440000D01*
X166424000Y-44434000D01*
X166423000Y-44429000D01*
X166422000Y-44424000D01*
X166420000Y-44419000D01*
X166418000Y-44414000D01*
X166416000Y-44409000D01*
X166414000Y-44405000D01*
X166412000Y-44400000D01*
X166409000Y-44396000D01*
X166406000Y-44391000D01*
X166403000Y-44387000D01*
X166399000Y-44383000D01*
X166396000Y-44379000D01*
X166392000Y-44376000D01*
X166388000Y-44372000D01*
X166384000Y-44369000D01*
X166379000Y-44366000D01*
X166375000Y-44363000D01*
X166370000Y-44361000D01*
X166366000Y-44359000D01*
X166361000Y-44357000D01*
X166356000Y-44355000D01*
X166351000Y-44353000D01*
X166346000Y-44352000D01*
X166341000Y-44351000D01*
X166335000Y-44351000D01*
X166330000Y-44350000D01*
X166325000Y-44350000D01*
X166175000Y-44350000D01*
X166170000Y-44350000D01*
X166165000Y-44351000D01*
X166159000Y-44351000D01*
X166154000Y-44352000D01*
X166149000Y-44353000D01*
X166144000Y-44355000D01*
X166139000Y-44357000D01*
X166134000Y-44359000D01*
X166130000Y-44361000D01*
X166125000Y-44363000D01*
X166121000Y-44366000D01*
X166116000Y-44369000D01*
X166112000Y-44372000D01*
X166108000Y-44376000D01*
X166104000Y-44379000D01*
X166101000Y-44383000D01*
X166097000Y-44387000D01*
X166094000Y-44391000D01*
X166091000Y-44396000D01*
X166088000Y-44400000D01*
X166086000Y-44405000D01*
X166084000Y-44409000D01*
X166082000Y-44414000D01*
X166080000Y-44419000D01*
X166078000Y-44424000D01*
X166077000Y-44429000D01*
X166076000Y-44434000D01*
X166076000Y-44440000D01*
X166075000Y-44445000D01*
X166075000Y-44450000D01*
G36*
X166335000Y-44351000D02*
G01*
X166341000Y-44351000D01*
X166346000Y-44352000D01*
X166351000Y-44353000D01*
X166356000Y-44355000D01*
X166361000Y-44357000D01*
X166366000Y-44359000D01*
X166370000Y-44361000D01*
X166375000Y-44363000D01*
X166379000Y-44366000D01*
X166384000Y-44369000D01*
X166388000Y-44372000D01*
X166392000Y-44376000D01*
X166396000Y-44379000D01*
X166399000Y-44383000D01*
X166403000Y-44387000D01*
X166406000Y-44391000D01*
X166409000Y-44396000D01*
X166412000Y-44400000D01*
X166414000Y-44405000D01*
X166416000Y-44409000D01*
X166418000Y-44414000D01*
X166420000Y-44419000D01*
X166422000Y-44424000D01*
X166423000Y-44429000D01*
X166424000Y-44434000D01*
X166424000Y-44440000D01*
X166425000Y-44445000D01*
X166425000Y-44450000D01*
X166425000Y-44950000D01*
X166425000Y-44955000D01*
X166424000Y-44960000D01*
X166424000Y-44966000D01*
X166423000Y-44971000D01*
X166422000Y-44976000D01*
X166420000Y-44981000D01*
X166418000Y-44986000D01*
X166416000Y-44991000D01*
X166414000Y-44995000D01*
X166412000Y-45000000D01*
X166409000Y-45004000D01*
X166406000Y-45009000D01*
X166403000Y-45013000D01*
X166399000Y-45017000D01*
X166396000Y-45021000D01*
X166392000Y-45024000D01*
X166388000Y-45028000D01*
X166384000Y-45031000D01*
X166379000Y-45034000D01*
X166375000Y-45037000D01*
X166370000Y-45039000D01*
X166366000Y-45041000D01*
X166361000Y-45043000D01*
X166356000Y-45045000D01*
X166351000Y-45047000D01*
X166346000Y-45048000D01*
X166341000Y-45049000D01*
X166335000Y-45049000D01*
X166330000Y-45050000D01*
X166325000Y-45050000D01*
X166175000Y-45050000D01*
X166170000Y-45050000D01*
X166165000Y-45049000D01*
X166159000Y-45049000D01*
X166154000Y-45048000D01*
X166149000Y-45047000D01*
X166144000Y-45045000D01*
X166139000Y-45043000D01*
X166134000Y-45041000D01*
X166130000Y-45039000D01*
X166125000Y-45037000D01*
X166121000Y-45034000D01*
X166116000Y-45031000D01*
X166112000Y-45028000D01*
X166108000Y-45024000D01*
X166104000Y-45021000D01*
X166101000Y-45017000D01*
X166097000Y-45013000D01*
X166094000Y-45009000D01*
X166091000Y-45004000D01*
X166088000Y-45000000D01*
X166086000Y-44995000D01*
X166084000Y-44991000D01*
X166082000Y-44986000D01*
X166080000Y-44981000D01*
X166078000Y-44976000D01*
X166077000Y-44971000D01*
X166076000Y-44966000D01*
X166076000Y-44960000D01*
X166075000Y-44955000D01*
X166075000Y-44950000D01*
X166075000Y-44450000D01*
X166075000Y-44445000D01*
X166076000Y-44440000D01*
X166076000Y-44434000D01*
X166077000Y-44429000D01*
X166078000Y-44424000D01*
X166080000Y-44419000D01*
X166082000Y-44414000D01*
X166084000Y-44409000D01*
X166086000Y-44405000D01*
X166088000Y-44400000D01*
X166091000Y-44396000D01*
X166094000Y-44391000D01*
X166097000Y-44387000D01*
X166101000Y-44383000D01*
X166104000Y-44379000D01*
X166108000Y-44376000D01*
X166112000Y-44372000D01*
X166116000Y-44369000D01*
X166121000Y-44366000D01*
X166125000Y-44363000D01*
X166130000Y-44361000D01*
X166134000Y-44359000D01*
X166139000Y-44357000D01*
X166144000Y-44355000D01*
X166149000Y-44353000D01*
X166154000Y-44352000D01*
X166159000Y-44351000D01*
X166165000Y-44351000D01*
X166170000Y-44350000D01*
X166175000Y-44350000D01*
X166325000Y-44350000D01*
X166330000Y-44350000D01*
X166335000Y-44351000D01*
G37*
X165575000Y-47250000D02*
X165575000Y-47750000D01*
X165575000Y-47755000D01*
X165576000Y-47760000D01*
X165576000Y-47766000D01*
X165577000Y-47771000D01*
X165578000Y-47776000D01*
X165580000Y-47781000D01*
X165582000Y-47786000D01*
X165584000Y-47791000D01*
X165586000Y-47795000D01*
X165588000Y-47800000D01*
X165591000Y-47804000D01*
X165594000Y-47809000D01*
X165597000Y-47813000D01*
X165601000Y-47817000D01*
X165604000Y-47821000D01*
X165608000Y-47824000D01*
X165612000Y-47828000D01*
X165616000Y-47831000D01*
X165621000Y-47834000D01*
X165625000Y-47837000D01*
X165630000Y-47839000D01*
X165634000Y-47841000D01*
X165639000Y-47843000D01*
X165644000Y-47845000D01*
X165649000Y-47847000D01*
X165654000Y-47848000D01*
X165659000Y-47849000D01*
X165665000Y-47849000D01*
X165670000Y-47850000D01*
X165675000Y-47850000D01*
X165825000Y-47850000D01*
X165830000Y-47850000D01*
X165835000Y-47849000D01*
X165841000Y-47849000D01*
X165846000Y-47848000D01*
X165851000Y-47847000D01*
X165856000Y-47845000D01*
X165861000Y-47843000D01*
X165866000Y-47841000D01*
X165870000Y-47839000D01*
X165875000Y-47837000D01*
X165879000Y-47834000D01*
X165884000Y-47831000D01*
X165888000Y-47828000D01*
X165892000Y-47824000D01*
X165896000Y-47821000D01*
X165899000Y-47817000D01*
X165903000Y-47813000D01*
X165906000Y-47809000D01*
X165909000Y-47804000D01*
X165912000Y-47800000D01*
X165914000Y-47795000D01*
X165916000Y-47791000D01*
X165918000Y-47786000D01*
X165920000Y-47781000D01*
X165922000Y-47776000D01*
X165923000Y-47771000D01*
X165924000Y-47766000D01*
X165924000Y-47760000D01*
X165925000Y-47755000D01*
X165925000Y-47750000D01*
X165925000Y-47250000D01*
X165925000Y-47245000D01*
X165924000Y-47240000D01*
X165924000Y-47234000D01*
X165923000Y-47229000D01*
X165922000Y-47224000D01*
X165920000Y-47219000D01*
X165918000Y-47214000D01*
X165916000Y-47209000D01*
X165914000Y-47205000D01*
X165912000Y-47200000D01*
X165909000Y-47196000D01*
X165906000Y-47191000D01*
X165903000Y-47187000D01*
X165899000Y-47183000D01*
X165896000Y-47179000D01*
X165892000Y-47176000D01*
X165888000Y-47172000D01*
X165884000Y-47169000D01*
X165879000Y-47166000D01*
X165875000Y-47163000D01*
X165870000Y-47161000D01*
X165866000Y-47159000D01*
X165861000Y-47157000D01*
X165856000Y-47155000D01*
X165851000Y-47153000D01*
X165846000Y-47152000D01*
X165841000Y-47151000D01*
X165835000Y-47151000D01*
X165830000Y-47150000D01*
X165825000Y-47150000D01*
X165675000Y-47150000D01*
X165670000Y-47150000D01*
X165665000Y-47151000D01*
X165659000Y-47151000D01*
X165654000Y-47152000D01*
X165649000Y-47153000D01*
X165644000Y-47155000D01*
X165639000Y-47157000D01*
X165634000Y-47159000D01*
X165630000Y-47161000D01*
X165625000Y-47163000D01*
X165621000Y-47166000D01*
X165616000Y-47169000D01*
X165612000Y-47172000D01*
X165608000Y-47176000D01*
X165604000Y-47179000D01*
X165601000Y-47183000D01*
X165597000Y-47187000D01*
X165594000Y-47191000D01*
X165591000Y-47196000D01*
X165588000Y-47200000D01*
X165586000Y-47205000D01*
X165584000Y-47209000D01*
X165582000Y-47214000D01*
X165580000Y-47219000D01*
X165578000Y-47224000D01*
X165577000Y-47229000D01*
X165576000Y-47234000D01*
X165576000Y-47240000D01*
X165575000Y-47245000D01*
X165575000Y-47250000D01*
G36*
X165835000Y-47151000D02*
G01*
X165841000Y-47151000D01*
X165846000Y-47152000D01*
X165851000Y-47153000D01*
X165856000Y-47155000D01*
X165861000Y-47157000D01*
X165866000Y-47159000D01*
X165870000Y-47161000D01*
X165875000Y-47163000D01*
X165879000Y-47166000D01*
X165884000Y-47169000D01*
X165888000Y-47172000D01*
X165892000Y-47176000D01*
X165896000Y-47179000D01*
X165899000Y-47183000D01*
X165903000Y-47187000D01*
X165906000Y-47191000D01*
X165909000Y-47196000D01*
X165912000Y-47200000D01*
X165914000Y-47205000D01*
X165916000Y-47209000D01*
X165918000Y-47214000D01*
X165920000Y-47219000D01*
X165922000Y-47224000D01*
X165923000Y-47229000D01*
X165924000Y-47234000D01*
X165924000Y-47240000D01*
X165925000Y-47245000D01*
X165925000Y-47250000D01*
X165925000Y-47750000D01*
X165925000Y-47755000D01*
X165924000Y-47760000D01*
X165924000Y-47766000D01*
X165923000Y-47771000D01*
X165922000Y-47776000D01*
X165920000Y-47781000D01*
X165918000Y-47786000D01*
X165916000Y-47791000D01*
X165914000Y-47795000D01*
X165912000Y-47800000D01*
X165909000Y-47804000D01*
X165906000Y-47809000D01*
X165903000Y-47813000D01*
X165899000Y-47817000D01*
X165896000Y-47821000D01*
X165892000Y-47824000D01*
X165888000Y-47828000D01*
X165884000Y-47831000D01*
X165879000Y-47834000D01*
X165875000Y-47837000D01*
X165870000Y-47839000D01*
X165866000Y-47841000D01*
X165861000Y-47843000D01*
X165856000Y-47845000D01*
X165851000Y-47847000D01*
X165846000Y-47848000D01*
X165841000Y-47849000D01*
X165835000Y-47849000D01*
X165830000Y-47850000D01*
X165825000Y-47850000D01*
X165675000Y-47850000D01*
X165670000Y-47850000D01*
X165665000Y-47849000D01*
X165659000Y-47849000D01*
X165654000Y-47848000D01*
X165649000Y-47847000D01*
X165644000Y-47845000D01*
X165639000Y-47843000D01*
X165634000Y-47841000D01*
X165630000Y-47839000D01*
X165625000Y-47837000D01*
X165621000Y-47834000D01*
X165616000Y-47831000D01*
X165612000Y-47828000D01*
X165608000Y-47824000D01*
X165604000Y-47821000D01*
X165601000Y-47817000D01*
X165597000Y-47813000D01*
X165594000Y-47809000D01*
X165591000Y-47804000D01*
X165588000Y-47800000D01*
X165586000Y-47795000D01*
X165584000Y-47791000D01*
X165582000Y-47786000D01*
X165580000Y-47781000D01*
X165578000Y-47776000D01*
X165577000Y-47771000D01*
X165576000Y-47766000D01*
X165576000Y-47760000D01*
X165575000Y-47755000D01*
X165575000Y-47750000D01*
X165575000Y-47250000D01*
X165575000Y-47245000D01*
X165576000Y-47240000D01*
X165576000Y-47234000D01*
X165577000Y-47229000D01*
X165578000Y-47224000D01*
X165580000Y-47219000D01*
X165582000Y-47214000D01*
X165584000Y-47209000D01*
X165586000Y-47205000D01*
X165588000Y-47200000D01*
X165591000Y-47196000D01*
X165594000Y-47191000D01*
X165597000Y-47187000D01*
X165601000Y-47183000D01*
X165604000Y-47179000D01*
X165608000Y-47176000D01*
X165612000Y-47172000D01*
X165616000Y-47169000D01*
X165621000Y-47166000D01*
X165625000Y-47163000D01*
X165630000Y-47161000D01*
X165634000Y-47159000D01*
X165639000Y-47157000D01*
X165644000Y-47155000D01*
X165649000Y-47153000D01*
X165654000Y-47152000D01*
X165659000Y-47151000D01*
X165665000Y-47151000D01*
X165670000Y-47150000D01*
X165675000Y-47150000D01*
X165825000Y-47150000D01*
X165830000Y-47150000D01*
X165835000Y-47151000D01*
G37*
X165575000Y-46675000D02*
X165075000Y-46675000D01*
X165070000Y-46675000D01*
X165065000Y-46676000D01*
X165059000Y-46676000D01*
X165054000Y-46677000D01*
X165049000Y-46678000D01*
X165044000Y-46680000D01*
X165039000Y-46682000D01*
X165034000Y-46684000D01*
X165030000Y-46686000D01*
X165025000Y-46688000D01*
X165021000Y-46691000D01*
X165016000Y-46694000D01*
X165012000Y-46697000D01*
X165008000Y-46701000D01*
X165004000Y-46704000D01*
X165001000Y-46708000D01*
X164997000Y-46712000D01*
X164994000Y-46716000D01*
X164991000Y-46721000D01*
X164988000Y-46725000D01*
X164986000Y-46730000D01*
X164984000Y-46734000D01*
X164982000Y-46739000D01*
X164980000Y-46744000D01*
X164978000Y-46749000D01*
X164977000Y-46754000D01*
X164976000Y-46759000D01*
X164976000Y-46765000D01*
X164975000Y-46770000D01*
X164975000Y-46775000D01*
X164975000Y-46925000D01*
X164975000Y-46930000D01*
X164976000Y-46935000D01*
X164976000Y-46941000D01*
X164977000Y-46946000D01*
X164978000Y-46951000D01*
X164980000Y-46956000D01*
X164982000Y-46961000D01*
X164984000Y-46966000D01*
X164986000Y-46970000D01*
X164988000Y-46975000D01*
X164991000Y-46979000D01*
X164994000Y-46984000D01*
X164997000Y-46988000D01*
X165001000Y-46992000D01*
X165004000Y-46996000D01*
X165008000Y-46999000D01*
X165012000Y-47003000D01*
X165016000Y-47006000D01*
X165021000Y-47009000D01*
X165025000Y-47012000D01*
X165030000Y-47014000D01*
X165034000Y-47016000D01*
X165039000Y-47018000D01*
X165044000Y-47020000D01*
X165049000Y-47022000D01*
X165054000Y-47023000D01*
X165059000Y-47024000D01*
X165065000Y-47024000D01*
X165070000Y-47025000D01*
X165075000Y-47025000D01*
X165575000Y-47025000D01*
X165580000Y-47025000D01*
X165585000Y-47024000D01*
X165591000Y-47024000D01*
X165596000Y-47023000D01*
X165601000Y-47022000D01*
X165606000Y-47020000D01*
X165611000Y-47018000D01*
X165616000Y-47016000D01*
X165620000Y-47014000D01*
X165625000Y-47012000D01*
X165629000Y-47009000D01*
X165634000Y-47006000D01*
X165638000Y-47003000D01*
X165642000Y-46999000D01*
X165646000Y-46996000D01*
X165649000Y-46992000D01*
X165653000Y-46988000D01*
X165656000Y-46984000D01*
X165659000Y-46979000D01*
X165662000Y-46975000D01*
X165664000Y-46970000D01*
X165666000Y-46966000D01*
X165668000Y-46961000D01*
X165670000Y-46956000D01*
X165672000Y-46951000D01*
X165673000Y-46946000D01*
X165674000Y-46941000D01*
X165674000Y-46935000D01*
X165675000Y-46930000D01*
X165675000Y-46925000D01*
X165675000Y-46775000D01*
X165675000Y-46770000D01*
X165674000Y-46765000D01*
X165674000Y-46759000D01*
X165673000Y-46754000D01*
X165672000Y-46749000D01*
X165670000Y-46744000D01*
X165668000Y-46739000D01*
X165666000Y-46734000D01*
X165664000Y-46730000D01*
X165662000Y-46725000D01*
X165659000Y-46721000D01*
X165656000Y-46716000D01*
X165653000Y-46712000D01*
X165649000Y-46708000D01*
X165646000Y-46704000D01*
X165642000Y-46701000D01*
X165638000Y-46697000D01*
X165634000Y-46694000D01*
X165629000Y-46691000D01*
X165625000Y-46688000D01*
X165620000Y-46686000D01*
X165616000Y-46684000D01*
X165611000Y-46682000D01*
X165606000Y-46680000D01*
X165601000Y-46678000D01*
X165596000Y-46677000D01*
X165591000Y-46676000D01*
X165585000Y-46676000D01*
X165580000Y-46675000D01*
X165575000Y-46675000D01*
G36*
X165585000Y-46676000D02*
G01*
X165591000Y-46676000D01*
X165596000Y-46677000D01*
X165601000Y-46678000D01*
X165606000Y-46680000D01*
X165611000Y-46682000D01*
X165616000Y-46684000D01*
X165620000Y-46686000D01*
X165625000Y-46688000D01*
X165629000Y-46691000D01*
X165634000Y-46694000D01*
X165638000Y-46697000D01*
X165642000Y-46701000D01*
X165646000Y-46704000D01*
X165649000Y-46708000D01*
X165653000Y-46712000D01*
X165656000Y-46716000D01*
X165659000Y-46721000D01*
X165662000Y-46725000D01*
X165664000Y-46730000D01*
X165666000Y-46734000D01*
X165668000Y-46739000D01*
X165670000Y-46744000D01*
X165672000Y-46749000D01*
X165673000Y-46754000D01*
X165674000Y-46759000D01*
X165674000Y-46765000D01*
X165675000Y-46770000D01*
X165675000Y-46775000D01*
X165675000Y-46925000D01*
X165675000Y-46930000D01*
X165674000Y-46935000D01*
X165674000Y-46941000D01*
X165673000Y-46946000D01*
X165672000Y-46951000D01*
X165670000Y-46956000D01*
X165668000Y-46961000D01*
X165666000Y-46966000D01*
X165664000Y-46970000D01*
X165662000Y-46975000D01*
X165659000Y-46979000D01*
X165656000Y-46984000D01*
X165653000Y-46988000D01*
X165649000Y-46992000D01*
X165646000Y-46996000D01*
X165642000Y-46999000D01*
X165638000Y-47003000D01*
X165634000Y-47006000D01*
X165629000Y-47009000D01*
X165625000Y-47012000D01*
X165620000Y-47014000D01*
X165616000Y-47016000D01*
X165611000Y-47018000D01*
X165606000Y-47020000D01*
X165601000Y-47022000D01*
X165596000Y-47023000D01*
X165591000Y-47024000D01*
X165585000Y-47024000D01*
X165580000Y-47025000D01*
X165575000Y-47025000D01*
X165075000Y-47025000D01*
X165070000Y-47025000D01*
X165065000Y-47024000D01*
X165059000Y-47024000D01*
X165054000Y-47023000D01*
X165049000Y-47022000D01*
X165044000Y-47020000D01*
X165039000Y-47018000D01*
X165034000Y-47016000D01*
X165030000Y-47014000D01*
X165025000Y-47012000D01*
X165021000Y-47009000D01*
X165016000Y-47006000D01*
X165012000Y-47003000D01*
X165008000Y-46999000D01*
X165004000Y-46996000D01*
X165001000Y-46992000D01*
X164997000Y-46988000D01*
X164994000Y-46984000D01*
X164991000Y-46979000D01*
X164988000Y-46975000D01*
X164986000Y-46970000D01*
X164984000Y-46966000D01*
X164982000Y-46961000D01*
X164980000Y-46956000D01*
X164978000Y-46951000D01*
X164977000Y-46946000D01*
X164976000Y-46941000D01*
X164976000Y-46935000D01*
X164975000Y-46930000D01*
X164975000Y-46925000D01*
X164975000Y-46775000D01*
X164975000Y-46770000D01*
X164976000Y-46765000D01*
X164976000Y-46759000D01*
X164977000Y-46754000D01*
X164978000Y-46749000D01*
X164980000Y-46744000D01*
X164982000Y-46739000D01*
X164984000Y-46734000D01*
X164986000Y-46730000D01*
X164988000Y-46725000D01*
X164991000Y-46721000D01*
X164994000Y-46716000D01*
X164997000Y-46712000D01*
X165001000Y-46708000D01*
X165004000Y-46704000D01*
X165008000Y-46701000D01*
X165012000Y-46697000D01*
X165016000Y-46694000D01*
X165021000Y-46691000D01*
X165025000Y-46688000D01*
X165030000Y-46686000D01*
X165034000Y-46684000D01*
X165039000Y-46682000D01*
X165044000Y-46680000D01*
X165049000Y-46678000D01*
X165054000Y-46677000D01*
X165059000Y-46676000D01*
X165065000Y-46676000D01*
X165070000Y-46675000D01*
X165075000Y-46675000D01*
X165575000Y-46675000D01*
X165580000Y-46675000D01*
X165585000Y-46676000D01*
G37*
X165575000Y-46175000D02*
X165075000Y-46175000D01*
X165070000Y-46175000D01*
X165065000Y-46176000D01*
X165059000Y-46176000D01*
X165054000Y-46177000D01*
X165049000Y-46178000D01*
X165044000Y-46180000D01*
X165039000Y-46182000D01*
X165034000Y-46184000D01*
X165030000Y-46186000D01*
X165025000Y-46188000D01*
X165021000Y-46191000D01*
X165016000Y-46194000D01*
X165012000Y-46197000D01*
X165008000Y-46201000D01*
X165004000Y-46204000D01*
X165001000Y-46208000D01*
X164997000Y-46212000D01*
X164994000Y-46216000D01*
X164991000Y-46221000D01*
X164988000Y-46225000D01*
X164986000Y-46230000D01*
X164984000Y-46234000D01*
X164982000Y-46239000D01*
X164980000Y-46244000D01*
X164978000Y-46249000D01*
X164977000Y-46254000D01*
X164976000Y-46259000D01*
X164976000Y-46265000D01*
X164975000Y-46270000D01*
X164975000Y-46275000D01*
X164975000Y-46425000D01*
X164975000Y-46430000D01*
X164976000Y-46435000D01*
X164976000Y-46441000D01*
X164977000Y-46446000D01*
X164978000Y-46451000D01*
X164980000Y-46456000D01*
X164982000Y-46461000D01*
X164984000Y-46466000D01*
X164986000Y-46470000D01*
X164988000Y-46475000D01*
X164991000Y-46479000D01*
X164994000Y-46484000D01*
X164997000Y-46488000D01*
X165001000Y-46492000D01*
X165004000Y-46496000D01*
X165008000Y-46499000D01*
X165012000Y-46503000D01*
X165016000Y-46506000D01*
X165021000Y-46509000D01*
X165025000Y-46512000D01*
X165030000Y-46514000D01*
X165034000Y-46516000D01*
X165039000Y-46518000D01*
X165044000Y-46520000D01*
X165049000Y-46522000D01*
X165054000Y-46523000D01*
X165059000Y-46524000D01*
X165065000Y-46524000D01*
X165070000Y-46525000D01*
X165075000Y-46525000D01*
X165575000Y-46525000D01*
X165580000Y-46525000D01*
X165585000Y-46524000D01*
X165591000Y-46524000D01*
X165596000Y-46523000D01*
X165601000Y-46522000D01*
X165606000Y-46520000D01*
X165611000Y-46518000D01*
X165616000Y-46516000D01*
X165620000Y-46514000D01*
X165625000Y-46512000D01*
X165629000Y-46509000D01*
X165634000Y-46506000D01*
X165638000Y-46503000D01*
X165642000Y-46499000D01*
X165646000Y-46496000D01*
X165649000Y-46492000D01*
X165653000Y-46488000D01*
X165656000Y-46484000D01*
X165659000Y-46479000D01*
X165662000Y-46475000D01*
X165664000Y-46470000D01*
X165666000Y-46466000D01*
X165668000Y-46461000D01*
X165670000Y-46456000D01*
X165672000Y-46451000D01*
X165673000Y-46446000D01*
X165674000Y-46441000D01*
X165674000Y-46435000D01*
X165675000Y-46430000D01*
X165675000Y-46425000D01*
X165675000Y-46275000D01*
X165675000Y-46270000D01*
X165674000Y-46265000D01*
X165674000Y-46259000D01*
X165673000Y-46254000D01*
X165672000Y-46249000D01*
X165670000Y-46244000D01*
X165668000Y-46239000D01*
X165666000Y-46234000D01*
X165664000Y-46230000D01*
X165662000Y-46225000D01*
X165659000Y-46221000D01*
X165656000Y-46216000D01*
X165653000Y-46212000D01*
X165649000Y-46208000D01*
X165646000Y-46204000D01*
X165642000Y-46201000D01*
X165638000Y-46197000D01*
X165634000Y-46194000D01*
X165629000Y-46191000D01*
X165625000Y-46188000D01*
X165620000Y-46186000D01*
X165616000Y-46184000D01*
X165611000Y-46182000D01*
X165606000Y-46180000D01*
X165601000Y-46178000D01*
X165596000Y-46177000D01*
X165591000Y-46176000D01*
X165585000Y-46176000D01*
X165580000Y-46175000D01*
X165575000Y-46175000D01*
G36*
X165585000Y-46176000D02*
G01*
X165591000Y-46176000D01*
X165596000Y-46177000D01*
X165601000Y-46178000D01*
X165606000Y-46180000D01*
X165611000Y-46182000D01*
X165616000Y-46184000D01*
X165620000Y-46186000D01*
X165625000Y-46188000D01*
X165629000Y-46191000D01*
X165634000Y-46194000D01*
X165638000Y-46197000D01*
X165642000Y-46201000D01*
X165646000Y-46204000D01*
X165649000Y-46208000D01*
X165653000Y-46212000D01*
X165656000Y-46216000D01*
X165659000Y-46221000D01*
X165662000Y-46225000D01*
X165664000Y-46230000D01*
X165666000Y-46234000D01*
X165668000Y-46239000D01*
X165670000Y-46244000D01*
X165672000Y-46249000D01*
X165673000Y-46254000D01*
X165674000Y-46259000D01*
X165674000Y-46265000D01*
X165675000Y-46270000D01*
X165675000Y-46275000D01*
X165675000Y-46425000D01*
X165675000Y-46430000D01*
X165674000Y-46435000D01*
X165674000Y-46441000D01*
X165673000Y-46446000D01*
X165672000Y-46451000D01*
X165670000Y-46456000D01*
X165668000Y-46461000D01*
X165666000Y-46466000D01*
X165664000Y-46470000D01*
X165662000Y-46475000D01*
X165659000Y-46479000D01*
X165656000Y-46484000D01*
X165653000Y-46488000D01*
X165649000Y-46492000D01*
X165646000Y-46496000D01*
X165642000Y-46499000D01*
X165638000Y-46503000D01*
X165634000Y-46506000D01*
X165629000Y-46509000D01*
X165625000Y-46512000D01*
X165620000Y-46514000D01*
X165616000Y-46516000D01*
X165611000Y-46518000D01*
X165606000Y-46520000D01*
X165601000Y-46522000D01*
X165596000Y-46523000D01*
X165591000Y-46524000D01*
X165585000Y-46524000D01*
X165580000Y-46525000D01*
X165575000Y-46525000D01*
X165075000Y-46525000D01*
X165070000Y-46525000D01*
X165065000Y-46524000D01*
X165059000Y-46524000D01*
X165054000Y-46523000D01*
X165049000Y-46522000D01*
X165044000Y-46520000D01*
X165039000Y-46518000D01*
X165034000Y-46516000D01*
X165030000Y-46514000D01*
X165025000Y-46512000D01*
X165021000Y-46509000D01*
X165016000Y-46506000D01*
X165012000Y-46503000D01*
X165008000Y-46499000D01*
X165004000Y-46496000D01*
X165001000Y-46492000D01*
X164997000Y-46488000D01*
X164994000Y-46484000D01*
X164991000Y-46479000D01*
X164988000Y-46475000D01*
X164986000Y-46470000D01*
X164984000Y-46466000D01*
X164982000Y-46461000D01*
X164980000Y-46456000D01*
X164978000Y-46451000D01*
X164977000Y-46446000D01*
X164976000Y-46441000D01*
X164976000Y-46435000D01*
X164975000Y-46430000D01*
X164975000Y-46425000D01*
X164975000Y-46275000D01*
X164975000Y-46270000D01*
X164976000Y-46265000D01*
X164976000Y-46259000D01*
X164977000Y-46254000D01*
X164978000Y-46249000D01*
X164980000Y-46244000D01*
X164982000Y-46239000D01*
X164984000Y-46234000D01*
X164986000Y-46230000D01*
X164988000Y-46225000D01*
X164991000Y-46221000D01*
X164994000Y-46216000D01*
X164997000Y-46212000D01*
X165001000Y-46208000D01*
X165004000Y-46204000D01*
X165008000Y-46201000D01*
X165012000Y-46197000D01*
X165016000Y-46194000D01*
X165021000Y-46191000D01*
X165025000Y-46188000D01*
X165030000Y-46186000D01*
X165034000Y-46184000D01*
X165039000Y-46182000D01*
X165044000Y-46180000D01*
X165049000Y-46178000D01*
X165054000Y-46177000D01*
X165059000Y-46176000D01*
X165065000Y-46176000D01*
X165070000Y-46175000D01*
X165075000Y-46175000D01*
X165575000Y-46175000D01*
X165580000Y-46175000D01*
X165585000Y-46176000D01*
G37*
X165575000Y-45675000D02*
X165075000Y-45675000D01*
X165070000Y-45675000D01*
X165065000Y-45676000D01*
X165059000Y-45676000D01*
X165054000Y-45677000D01*
X165049000Y-45678000D01*
X165044000Y-45680000D01*
X165039000Y-45682000D01*
X165034000Y-45684000D01*
X165030000Y-45686000D01*
X165025000Y-45688000D01*
X165021000Y-45691000D01*
X165016000Y-45694000D01*
X165012000Y-45697000D01*
X165008000Y-45701000D01*
X165004000Y-45704000D01*
X165001000Y-45708000D01*
X164997000Y-45712000D01*
X164994000Y-45716000D01*
X164991000Y-45721000D01*
X164988000Y-45725000D01*
X164986000Y-45730000D01*
X164984000Y-45734000D01*
X164982000Y-45739000D01*
X164980000Y-45744000D01*
X164978000Y-45749000D01*
X164977000Y-45754000D01*
X164976000Y-45759000D01*
X164976000Y-45765000D01*
X164975000Y-45770000D01*
X164975000Y-45775000D01*
X164975000Y-45925000D01*
X164975000Y-45930000D01*
X164976000Y-45935000D01*
X164976000Y-45941000D01*
X164977000Y-45946000D01*
X164978000Y-45951000D01*
X164980000Y-45956000D01*
X164982000Y-45961000D01*
X164984000Y-45966000D01*
X164986000Y-45970000D01*
X164988000Y-45975000D01*
X164991000Y-45979000D01*
X164994000Y-45984000D01*
X164997000Y-45988000D01*
X165001000Y-45992000D01*
X165004000Y-45996000D01*
X165008000Y-45999000D01*
X165012000Y-46003000D01*
X165016000Y-46006000D01*
X165021000Y-46009000D01*
X165025000Y-46012000D01*
X165030000Y-46014000D01*
X165034000Y-46016000D01*
X165039000Y-46018000D01*
X165044000Y-46020000D01*
X165049000Y-46022000D01*
X165054000Y-46023000D01*
X165059000Y-46024000D01*
X165065000Y-46024000D01*
X165070000Y-46025000D01*
X165075000Y-46025000D01*
X165575000Y-46025000D01*
X165580000Y-46025000D01*
X165585000Y-46024000D01*
X165591000Y-46024000D01*
X165596000Y-46023000D01*
X165601000Y-46022000D01*
X165606000Y-46020000D01*
X165611000Y-46018000D01*
X165616000Y-46016000D01*
X165620000Y-46014000D01*
X165625000Y-46012000D01*
X165629000Y-46009000D01*
X165634000Y-46006000D01*
X165638000Y-46003000D01*
X165642000Y-45999000D01*
X165646000Y-45996000D01*
X165649000Y-45992000D01*
X165653000Y-45988000D01*
X165656000Y-45984000D01*
X165659000Y-45979000D01*
X165662000Y-45975000D01*
X165664000Y-45970000D01*
X165666000Y-45966000D01*
X165668000Y-45961000D01*
X165670000Y-45956000D01*
X165672000Y-45951000D01*
X165673000Y-45946000D01*
X165674000Y-45941000D01*
X165674000Y-45935000D01*
X165675000Y-45930000D01*
X165675000Y-45925000D01*
X165675000Y-45775000D01*
X165675000Y-45770000D01*
X165674000Y-45765000D01*
X165674000Y-45759000D01*
X165673000Y-45754000D01*
X165672000Y-45749000D01*
X165670000Y-45744000D01*
X165668000Y-45739000D01*
X165666000Y-45734000D01*
X165664000Y-45730000D01*
X165662000Y-45725000D01*
X165659000Y-45721000D01*
X165656000Y-45716000D01*
X165653000Y-45712000D01*
X165649000Y-45708000D01*
X165646000Y-45704000D01*
X165642000Y-45701000D01*
X165638000Y-45697000D01*
X165634000Y-45694000D01*
X165629000Y-45691000D01*
X165625000Y-45688000D01*
X165620000Y-45686000D01*
X165616000Y-45684000D01*
X165611000Y-45682000D01*
X165606000Y-45680000D01*
X165601000Y-45678000D01*
X165596000Y-45677000D01*
X165591000Y-45676000D01*
X165585000Y-45676000D01*
X165580000Y-45675000D01*
X165575000Y-45675000D01*
G36*
X165585000Y-45676000D02*
G01*
X165591000Y-45676000D01*
X165596000Y-45677000D01*
X165601000Y-45678000D01*
X165606000Y-45680000D01*
X165611000Y-45682000D01*
X165616000Y-45684000D01*
X165620000Y-45686000D01*
X165625000Y-45688000D01*
X165629000Y-45691000D01*
X165634000Y-45694000D01*
X165638000Y-45697000D01*
X165642000Y-45701000D01*
X165646000Y-45704000D01*
X165649000Y-45708000D01*
X165653000Y-45712000D01*
X165656000Y-45716000D01*
X165659000Y-45721000D01*
X165662000Y-45725000D01*
X165664000Y-45730000D01*
X165666000Y-45734000D01*
X165668000Y-45739000D01*
X165670000Y-45744000D01*
X165672000Y-45749000D01*
X165673000Y-45754000D01*
X165674000Y-45759000D01*
X165674000Y-45765000D01*
X165675000Y-45770000D01*
X165675000Y-45775000D01*
X165675000Y-45925000D01*
X165675000Y-45930000D01*
X165674000Y-45935000D01*
X165674000Y-45941000D01*
X165673000Y-45946000D01*
X165672000Y-45951000D01*
X165670000Y-45956000D01*
X165668000Y-45961000D01*
X165666000Y-45966000D01*
X165664000Y-45970000D01*
X165662000Y-45975000D01*
X165659000Y-45979000D01*
X165656000Y-45984000D01*
X165653000Y-45988000D01*
X165649000Y-45992000D01*
X165646000Y-45996000D01*
X165642000Y-45999000D01*
X165638000Y-46003000D01*
X165634000Y-46006000D01*
X165629000Y-46009000D01*
X165625000Y-46012000D01*
X165620000Y-46014000D01*
X165616000Y-46016000D01*
X165611000Y-46018000D01*
X165606000Y-46020000D01*
X165601000Y-46022000D01*
X165596000Y-46023000D01*
X165591000Y-46024000D01*
X165585000Y-46024000D01*
X165580000Y-46025000D01*
X165575000Y-46025000D01*
X165075000Y-46025000D01*
X165070000Y-46025000D01*
X165065000Y-46024000D01*
X165059000Y-46024000D01*
X165054000Y-46023000D01*
X165049000Y-46022000D01*
X165044000Y-46020000D01*
X165039000Y-46018000D01*
X165034000Y-46016000D01*
X165030000Y-46014000D01*
X165025000Y-46012000D01*
X165021000Y-46009000D01*
X165016000Y-46006000D01*
X165012000Y-46003000D01*
X165008000Y-45999000D01*
X165004000Y-45996000D01*
X165001000Y-45992000D01*
X164997000Y-45988000D01*
X164994000Y-45984000D01*
X164991000Y-45979000D01*
X164988000Y-45975000D01*
X164986000Y-45970000D01*
X164984000Y-45966000D01*
X164982000Y-45961000D01*
X164980000Y-45956000D01*
X164978000Y-45951000D01*
X164977000Y-45946000D01*
X164976000Y-45941000D01*
X164976000Y-45935000D01*
X164975000Y-45930000D01*
X164975000Y-45925000D01*
X164975000Y-45775000D01*
X164975000Y-45770000D01*
X164976000Y-45765000D01*
X164976000Y-45759000D01*
X164977000Y-45754000D01*
X164978000Y-45749000D01*
X164980000Y-45744000D01*
X164982000Y-45739000D01*
X164984000Y-45734000D01*
X164986000Y-45730000D01*
X164988000Y-45725000D01*
X164991000Y-45721000D01*
X164994000Y-45716000D01*
X164997000Y-45712000D01*
X165001000Y-45708000D01*
X165004000Y-45704000D01*
X165008000Y-45701000D01*
X165012000Y-45697000D01*
X165016000Y-45694000D01*
X165021000Y-45691000D01*
X165025000Y-45688000D01*
X165030000Y-45686000D01*
X165034000Y-45684000D01*
X165039000Y-45682000D01*
X165044000Y-45680000D01*
X165049000Y-45678000D01*
X165054000Y-45677000D01*
X165059000Y-45676000D01*
X165065000Y-45676000D01*
X165070000Y-45675000D01*
X165075000Y-45675000D01*
X165575000Y-45675000D01*
X165580000Y-45675000D01*
X165585000Y-45676000D01*
G37*
X165575000Y-45175000D02*
X165075000Y-45175000D01*
X165070000Y-45175000D01*
X165065000Y-45176000D01*
X165059000Y-45176000D01*
X165054000Y-45177000D01*
X165049000Y-45178000D01*
X165044000Y-45180000D01*
X165039000Y-45182000D01*
X165034000Y-45184000D01*
X165030000Y-45186000D01*
X165025000Y-45188000D01*
X165021000Y-45191000D01*
X165016000Y-45194000D01*
X165012000Y-45197000D01*
X165008000Y-45201000D01*
X165004000Y-45204000D01*
X165001000Y-45208000D01*
X164997000Y-45212000D01*
X164994000Y-45216000D01*
X164991000Y-45221000D01*
X164988000Y-45225000D01*
X164986000Y-45230000D01*
X164984000Y-45234000D01*
X164982000Y-45239000D01*
X164980000Y-45244000D01*
X164978000Y-45249000D01*
X164977000Y-45254000D01*
X164976000Y-45259000D01*
X164976000Y-45265000D01*
X164975000Y-45270000D01*
X164975000Y-45275000D01*
X164975000Y-45425000D01*
X164975000Y-45430000D01*
X164976000Y-45435000D01*
X164976000Y-45441000D01*
X164977000Y-45446000D01*
X164978000Y-45451000D01*
X164980000Y-45456000D01*
X164982000Y-45461000D01*
X164984000Y-45466000D01*
X164986000Y-45470000D01*
X164988000Y-45475000D01*
X164991000Y-45479000D01*
X164994000Y-45484000D01*
X164997000Y-45488000D01*
X165001000Y-45492000D01*
X165004000Y-45496000D01*
X165008000Y-45499000D01*
X165012000Y-45503000D01*
X165016000Y-45506000D01*
X165021000Y-45509000D01*
X165025000Y-45512000D01*
X165030000Y-45514000D01*
X165034000Y-45516000D01*
X165039000Y-45518000D01*
X165044000Y-45520000D01*
X165049000Y-45522000D01*
X165054000Y-45523000D01*
X165059000Y-45524000D01*
X165065000Y-45524000D01*
X165070000Y-45525000D01*
X165075000Y-45525000D01*
X165575000Y-45525000D01*
X165580000Y-45525000D01*
X165585000Y-45524000D01*
X165591000Y-45524000D01*
X165596000Y-45523000D01*
X165601000Y-45522000D01*
X165606000Y-45520000D01*
X165611000Y-45518000D01*
X165616000Y-45516000D01*
X165620000Y-45514000D01*
X165625000Y-45512000D01*
X165629000Y-45509000D01*
X165634000Y-45506000D01*
X165638000Y-45503000D01*
X165642000Y-45499000D01*
X165646000Y-45496000D01*
X165649000Y-45492000D01*
X165653000Y-45488000D01*
X165656000Y-45484000D01*
X165659000Y-45479000D01*
X165662000Y-45475000D01*
X165664000Y-45470000D01*
X165666000Y-45466000D01*
X165668000Y-45461000D01*
X165670000Y-45456000D01*
X165672000Y-45451000D01*
X165673000Y-45446000D01*
X165674000Y-45441000D01*
X165674000Y-45435000D01*
X165675000Y-45430000D01*
X165675000Y-45425000D01*
X165675000Y-45275000D01*
X165675000Y-45270000D01*
X165674000Y-45265000D01*
X165674000Y-45259000D01*
X165673000Y-45254000D01*
X165672000Y-45249000D01*
X165670000Y-45244000D01*
X165668000Y-45239000D01*
X165666000Y-45234000D01*
X165664000Y-45230000D01*
X165662000Y-45225000D01*
X165659000Y-45221000D01*
X165656000Y-45216000D01*
X165653000Y-45212000D01*
X165649000Y-45208000D01*
X165646000Y-45204000D01*
X165642000Y-45201000D01*
X165638000Y-45197000D01*
X165634000Y-45194000D01*
X165629000Y-45191000D01*
X165625000Y-45188000D01*
X165620000Y-45186000D01*
X165616000Y-45184000D01*
X165611000Y-45182000D01*
X165606000Y-45180000D01*
X165601000Y-45178000D01*
X165596000Y-45177000D01*
X165591000Y-45176000D01*
X165585000Y-45176000D01*
X165580000Y-45175000D01*
X165575000Y-45175000D01*
G36*
X165585000Y-45176000D02*
G01*
X165591000Y-45176000D01*
X165596000Y-45177000D01*
X165601000Y-45178000D01*
X165606000Y-45180000D01*
X165611000Y-45182000D01*
X165616000Y-45184000D01*
X165620000Y-45186000D01*
X165625000Y-45188000D01*
X165629000Y-45191000D01*
X165634000Y-45194000D01*
X165638000Y-45197000D01*
X165642000Y-45201000D01*
X165646000Y-45204000D01*
X165649000Y-45208000D01*
X165653000Y-45212000D01*
X165656000Y-45216000D01*
X165659000Y-45221000D01*
X165662000Y-45225000D01*
X165664000Y-45230000D01*
X165666000Y-45234000D01*
X165668000Y-45239000D01*
X165670000Y-45244000D01*
X165672000Y-45249000D01*
X165673000Y-45254000D01*
X165674000Y-45259000D01*
X165674000Y-45265000D01*
X165675000Y-45270000D01*
X165675000Y-45275000D01*
X165675000Y-45425000D01*
X165675000Y-45430000D01*
X165674000Y-45435000D01*
X165674000Y-45441000D01*
X165673000Y-45446000D01*
X165672000Y-45451000D01*
X165670000Y-45456000D01*
X165668000Y-45461000D01*
X165666000Y-45466000D01*
X165664000Y-45470000D01*
X165662000Y-45475000D01*
X165659000Y-45479000D01*
X165656000Y-45484000D01*
X165653000Y-45488000D01*
X165649000Y-45492000D01*
X165646000Y-45496000D01*
X165642000Y-45499000D01*
X165638000Y-45503000D01*
X165634000Y-45506000D01*
X165629000Y-45509000D01*
X165625000Y-45512000D01*
X165620000Y-45514000D01*
X165616000Y-45516000D01*
X165611000Y-45518000D01*
X165606000Y-45520000D01*
X165601000Y-45522000D01*
X165596000Y-45523000D01*
X165591000Y-45524000D01*
X165585000Y-45524000D01*
X165580000Y-45525000D01*
X165575000Y-45525000D01*
X165075000Y-45525000D01*
X165070000Y-45525000D01*
X165065000Y-45524000D01*
X165059000Y-45524000D01*
X165054000Y-45523000D01*
X165049000Y-45522000D01*
X165044000Y-45520000D01*
X165039000Y-45518000D01*
X165034000Y-45516000D01*
X165030000Y-45514000D01*
X165025000Y-45512000D01*
X165021000Y-45509000D01*
X165016000Y-45506000D01*
X165012000Y-45503000D01*
X165008000Y-45499000D01*
X165004000Y-45496000D01*
X165001000Y-45492000D01*
X164997000Y-45488000D01*
X164994000Y-45484000D01*
X164991000Y-45479000D01*
X164988000Y-45475000D01*
X164986000Y-45470000D01*
X164984000Y-45466000D01*
X164982000Y-45461000D01*
X164980000Y-45456000D01*
X164978000Y-45451000D01*
X164977000Y-45446000D01*
X164976000Y-45441000D01*
X164976000Y-45435000D01*
X164975000Y-45430000D01*
X164975000Y-45425000D01*
X164975000Y-45275000D01*
X164975000Y-45270000D01*
X164976000Y-45265000D01*
X164976000Y-45259000D01*
X164977000Y-45254000D01*
X164978000Y-45249000D01*
X164980000Y-45244000D01*
X164982000Y-45239000D01*
X164984000Y-45234000D01*
X164986000Y-45230000D01*
X164988000Y-45225000D01*
X164991000Y-45221000D01*
X164994000Y-45216000D01*
X164997000Y-45212000D01*
X165001000Y-45208000D01*
X165004000Y-45204000D01*
X165008000Y-45201000D01*
X165012000Y-45197000D01*
X165016000Y-45194000D01*
X165021000Y-45191000D01*
X165025000Y-45188000D01*
X165030000Y-45186000D01*
X165034000Y-45184000D01*
X165039000Y-45182000D01*
X165044000Y-45180000D01*
X165049000Y-45178000D01*
X165054000Y-45177000D01*
X165059000Y-45176000D01*
X165065000Y-45176000D01*
X165070000Y-45175000D01*
X165075000Y-45175000D01*
X165575000Y-45175000D01*
X165580000Y-45175000D01*
X165585000Y-45176000D01*
G37*
X165575000Y-44450000D02*
X165575000Y-44950000D01*
X165575000Y-44955000D01*
X165576000Y-44960000D01*
X165576000Y-44966000D01*
X165577000Y-44971000D01*
X165578000Y-44976000D01*
X165580000Y-44981000D01*
X165582000Y-44986000D01*
X165584000Y-44991000D01*
X165586000Y-44995000D01*
X165588000Y-45000000D01*
X165591000Y-45004000D01*
X165594000Y-45009000D01*
X165597000Y-45013000D01*
X165601000Y-45017000D01*
X165604000Y-45021000D01*
X165608000Y-45024000D01*
X165612000Y-45028000D01*
X165616000Y-45031000D01*
X165621000Y-45034000D01*
X165625000Y-45037000D01*
X165630000Y-45039000D01*
X165634000Y-45041000D01*
X165639000Y-45043000D01*
X165644000Y-45045000D01*
X165649000Y-45047000D01*
X165654000Y-45048000D01*
X165659000Y-45049000D01*
X165665000Y-45049000D01*
X165670000Y-45050000D01*
X165675000Y-45050000D01*
X165825000Y-45050000D01*
X165830000Y-45050000D01*
X165835000Y-45049000D01*
X165841000Y-45049000D01*
X165846000Y-45048000D01*
X165851000Y-45047000D01*
X165856000Y-45045000D01*
X165861000Y-45043000D01*
X165866000Y-45041000D01*
X165870000Y-45039000D01*
X165875000Y-45037000D01*
X165879000Y-45034000D01*
X165884000Y-45031000D01*
X165888000Y-45028000D01*
X165892000Y-45024000D01*
X165896000Y-45021000D01*
X165899000Y-45017000D01*
X165903000Y-45013000D01*
X165906000Y-45009000D01*
X165909000Y-45004000D01*
X165912000Y-45000000D01*
X165914000Y-44995000D01*
X165916000Y-44991000D01*
X165918000Y-44986000D01*
X165920000Y-44981000D01*
X165922000Y-44976000D01*
X165923000Y-44971000D01*
X165924000Y-44966000D01*
X165924000Y-44960000D01*
X165925000Y-44955000D01*
X165925000Y-44950000D01*
X165925000Y-44450000D01*
X165925000Y-44445000D01*
X165924000Y-44440000D01*
X165924000Y-44434000D01*
X165923000Y-44429000D01*
X165922000Y-44424000D01*
X165920000Y-44419000D01*
X165918000Y-44414000D01*
X165916000Y-44409000D01*
X165914000Y-44405000D01*
X165912000Y-44400000D01*
X165909000Y-44396000D01*
X165906000Y-44391000D01*
X165903000Y-44387000D01*
X165899000Y-44383000D01*
X165896000Y-44379000D01*
X165892000Y-44376000D01*
X165888000Y-44372000D01*
X165884000Y-44369000D01*
X165879000Y-44366000D01*
X165875000Y-44363000D01*
X165870000Y-44361000D01*
X165866000Y-44359000D01*
X165861000Y-44357000D01*
X165856000Y-44355000D01*
X165851000Y-44353000D01*
X165846000Y-44352000D01*
X165841000Y-44351000D01*
X165835000Y-44351000D01*
X165830000Y-44350000D01*
X165825000Y-44350000D01*
X165675000Y-44350000D01*
X165670000Y-44350000D01*
X165665000Y-44351000D01*
X165659000Y-44351000D01*
X165654000Y-44352000D01*
X165649000Y-44353000D01*
X165644000Y-44355000D01*
X165639000Y-44357000D01*
X165634000Y-44359000D01*
X165630000Y-44361000D01*
X165625000Y-44363000D01*
X165621000Y-44366000D01*
X165616000Y-44369000D01*
X165612000Y-44372000D01*
X165608000Y-44376000D01*
X165604000Y-44379000D01*
X165601000Y-44383000D01*
X165597000Y-44387000D01*
X165594000Y-44391000D01*
X165591000Y-44396000D01*
X165588000Y-44400000D01*
X165586000Y-44405000D01*
X165584000Y-44409000D01*
X165582000Y-44414000D01*
X165580000Y-44419000D01*
X165578000Y-44424000D01*
X165577000Y-44429000D01*
X165576000Y-44434000D01*
X165576000Y-44440000D01*
X165575000Y-44445000D01*
X165575000Y-44450000D01*
G36*
X165835000Y-44351000D02*
G01*
X165841000Y-44351000D01*
X165846000Y-44352000D01*
X165851000Y-44353000D01*
X165856000Y-44355000D01*
X165861000Y-44357000D01*
X165866000Y-44359000D01*
X165870000Y-44361000D01*
X165875000Y-44363000D01*
X165879000Y-44366000D01*
X165884000Y-44369000D01*
X165888000Y-44372000D01*
X165892000Y-44376000D01*
X165896000Y-44379000D01*
X165899000Y-44383000D01*
X165903000Y-44387000D01*
X165906000Y-44391000D01*
X165909000Y-44396000D01*
X165912000Y-44400000D01*
X165914000Y-44405000D01*
X165916000Y-44409000D01*
X165918000Y-44414000D01*
X165920000Y-44419000D01*
X165922000Y-44424000D01*
X165923000Y-44429000D01*
X165924000Y-44434000D01*
X165924000Y-44440000D01*
X165925000Y-44445000D01*
X165925000Y-44450000D01*
X165925000Y-44950000D01*
X165925000Y-44955000D01*
X165924000Y-44960000D01*
X165924000Y-44966000D01*
X165923000Y-44971000D01*
X165922000Y-44976000D01*
X165920000Y-44981000D01*
X165918000Y-44986000D01*
X165916000Y-44991000D01*
X165914000Y-44995000D01*
X165912000Y-45000000D01*
X165909000Y-45004000D01*
X165906000Y-45009000D01*
X165903000Y-45013000D01*
X165899000Y-45017000D01*
X165896000Y-45021000D01*
X165892000Y-45024000D01*
X165888000Y-45028000D01*
X165884000Y-45031000D01*
X165879000Y-45034000D01*
X165875000Y-45037000D01*
X165870000Y-45039000D01*
X165866000Y-45041000D01*
X165861000Y-45043000D01*
X165856000Y-45045000D01*
X165851000Y-45047000D01*
X165846000Y-45048000D01*
X165841000Y-45049000D01*
X165835000Y-45049000D01*
X165830000Y-45050000D01*
X165825000Y-45050000D01*
X165675000Y-45050000D01*
X165670000Y-45050000D01*
X165665000Y-45049000D01*
X165659000Y-45049000D01*
X165654000Y-45048000D01*
X165649000Y-45047000D01*
X165644000Y-45045000D01*
X165639000Y-45043000D01*
X165634000Y-45041000D01*
X165630000Y-45039000D01*
X165625000Y-45037000D01*
X165621000Y-45034000D01*
X165616000Y-45031000D01*
X165612000Y-45028000D01*
X165608000Y-45024000D01*
X165604000Y-45021000D01*
X165601000Y-45017000D01*
X165597000Y-45013000D01*
X165594000Y-45009000D01*
X165591000Y-45004000D01*
X165588000Y-45000000D01*
X165586000Y-44995000D01*
X165584000Y-44991000D01*
X165582000Y-44986000D01*
X165580000Y-44981000D01*
X165578000Y-44976000D01*
X165577000Y-44971000D01*
X165576000Y-44966000D01*
X165576000Y-44960000D01*
X165575000Y-44955000D01*
X165575000Y-44950000D01*
X165575000Y-44450000D01*
X165575000Y-44445000D01*
X165576000Y-44440000D01*
X165576000Y-44434000D01*
X165577000Y-44429000D01*
X165578000Y-44424000D01*
X165580000Y-44419000D01*
X165582000Y-44414000D01*
X165584000Y-44409000D01*
X165586000Y-44405000D01*
X165588000Y-44400000D01*
X165591000Y-44396000D01*
X165594000Y-44391000D01*
X165597000Y-44387000D01*
X165601000Y-44383000D01*
X165604000Y-44379000D01*
X165608000Y-44376000D01*
X165612000Y-44372000D01*
X165616000Y-44369000D01*
X165621000Y-44366000D01*
X165625000Y-44363000D01*
X165630000Y-44361000D01*
X165634000Y-44359000D01*
X165639000Y-44357000D01*
X165644000Y-44355000D01*
X165649000Y-44353000D01*
X165654000Y-44352000D01*
X165659000Y-44351000D01*
X165665000Y-44351000D01*
X165670000Y-44350000D01*
X165675000Y-44350000D01*
X165825000Y-44350000D01*
X165830000Y-44350000D01*
X165835000Y-44351000D01*
G37*
%TD*%
D11*
%TO.C,R3*%
X166175000Y-63500000D03*
X167825000Y-63500000D03*
%TD*%
D12*
%TO.C,SW13*%
X121500000Y-97000000D03*
X115500000Y-97000000D03*
%TD*%
%TO.C,S2*%
X150500000Y-62500000D03*
X144500000Y-62500000D03*
%TD*%
D11*
%TO.C,R1*%
X167150000Y-50350000D03*
X165500000Y-50350000D03*
%TD*%
D13*
%TO.C,SW8*%
X172050000Y-94500000D03*
X160950000Y-94500000D03*
D14*
X166500000Y-87650000D03*
X172450000Y-97950000D03*
X160950000Y-98650000D03*
X172050000Y-90350000D03*
X160950000Y-90350000D03*
%TD*%
D15*
%TO.C,C3*%
X128640000Y-74000000D03*
X128000000Y-74000000D03*
%TD*%
D12*
%TO.C,S3*%
X114500000Y-59500000D03*
X108500000Y-59500000D03*
%TD*%
D16*
%TO.C,SW3*%
X139810000Y-53500000D03*
X136500000Y-56040000D03*
X139810000Y-58580000D03*
X136500000Y-61120000D03*
X139810000Y-63660000D03*
%TD*%
D15*
%TO.C,C4*%
X130820000Y-75500000D03*
X130180000Y-75500000D03*
%TD*%
D11*
%TO.C,R2*%
X130325000Y-80500000D03*
X128675000Y-80500000D03*
%TD*%
D15*
%TO.C,C5*%
X142475000Y-70500000D03*
X141835000Y-70500000D03*
%TD*%
D12*
%TO.C,SW10*%
X122000000Y-88500000D03*
X116000000Y-88500000D03*
%TD*%
D11*
%TO.C,R5*%
X130000000Y-83500000D03*
X128350000Y-83500000D03*
%TD*%
D17*
%TO.C,J1*%
X172825000Y-66570000D03*
X164625000Y-66570000D03*
D18*
X172500000Y-63500000D03*
X164950000Y-63500000D03*
D17*
X172825000Y-60430000D03*
X164625000Y-60430000D03*
D19*
X165975000Y-65700000D03*
X166475000Y-65700000D03*
X166975000Y-65700000D03*
X167475000Y-65700000D03*
X167975000Y-65700000D03*
X168475000Y-65700000D03*
X168975000Y-65700000D03*
X169475000Y-65700000D03*
X169975000Y-65700000D03*
X170475000Y-65700000D03*
X170975000Y-65700000D03*
X171475000Y-65700000D03*
X171475000Y-61300000D03*
X170975000Y-61300000D03*
X170475000Y-61300000D03*
X169975000Y-61300000D03*
X169475000Y-61300000D03*
X168975000Y-61300000D03*
X168475000Y-61300000D03*
X167975000Y-61300000D03*
X167475000Y-61300000D03*
X166975000Y-61300000D03*
X166475000Y-61300000D03*
X165975000Y-61300000D03*
%TD*%
D20*
%TO.C,Y1*%
X125250000Y-77000000D03*
X127750000Y-77000000D03*
%TD*%
D11*
%TO.C,R4*%
X171258387Y-63496670D03*
X169608387Y-63496670D03*
%TD*%
%TO.C,R13*%
X147825000Y-82500000D03*
X146175000Y-82500000D03*
%TD*%
D21*
%TO.C,L1*%
X172435000Y-45850000D03*
X170215000Y-45850000D03*
%TD*%
D13*
%TO.C,SW1*%
X151050000Y-96805750D03*
X139950000Y-96805750D03*
D14*
X145500000Y-89955750D03*
X151450000Y-100255750D03*
X139950000Y-100955750D03*
X151050000Y-92655750D03*
X139950000Y-92655750D03*
%TD*%
D22*
%TO.C,S1*%
X115550000Y-73250000D03*
X115550000Y-68750000D03*
X106450000Y-73250000D03*
X106450000Y-68750000D03*
%TD*%
D12*
%TO.C,SW11*%
X130500000Y-97000000D03*
X124500000Y-97000000D03*
%TD*%
D11*
%TO.C,R10*%
X148000000Y-80000000D03*
X146350000Y-80000000D03*
%TD*%
%TO.C,R8*%
X147825000Y-74000000D03*
X146175000Y-74000000D03*
%TD*%
%TO.C,R7*%
X134325000Y-86500000D03*
X132675000Y-86500000D03*
%TD*%
D15*
%TO.C,C2*%
X150320000Y-75000000D03*
X149680000Y-75000000D03*
%TD*%
D11*
%TO.C,R9*%
X130325000Y-69500000D03*
X128675000Y-69500000D03*
%TD*%
D12*
%TO.C,SW12*%
X112000000Y-88000000D03*
X106000000Y-88000000D03*
%TD*%
D15*
%TO.C,C1*%
X142320000Y-86500000D03*
X141680000Y-86500000D03*
%TD*%
D11*
%TO.C,R11*%
X148000000Y-77500000D03*
X146350000Y-77500000D03*
%TD*%
%TO.C,R12*%
X147825000Y-86000000D03*
X146175000Y-86000000D03*
%TD*%
D12*
%TO.C,SW9*%
X125000000Y-70000000D03*
X119000000Y-70000000D03*
%TD*%
D13*
%TO.C,SW2*%
X171050000Y-78805750D03*
X159950000Y-78805750D03*
D14*
X165500000Y-71955750D03*
X171450000Y-82255750D03*
X159950000Y-82955750D03*
X171050000Y-74655750D03*
X159950000Y-74655750D03*
%TD*%
D11*
%TO.C,R6*%
X163650000Y-44850000D03*
X162000000Y-44850000D03*
%TD*%
D23*
%TO.C,U1*%
X134750000Y-72330000D03*
X135250000Y-72330000D03*
X135750000Y-72330000D03*
X136250000Y-72330000D03*
X136750000Y-72330000D03*
X137250000Y-72330000D03*
X137750000Y-72330000D03*
X138250000Y-72330000D03*
X138750000Y-72330000D03*
X139250000Y-72330000D03*
X139750000Y-72330000D03*
X140250000Y-72330000D03*
X140750000Y-72330000D03*
X141250000Y-72330000D03*
X141750000Y-72330000D03*
X142250000Y-72330000D03*
D24*
X144170000Y-74250000D03*
X144170000Y-74750000D03*
X144170000Y-75250000D03*
X144170000Y-75750000D03*
X144170000Y-76250000D03*
X144170000Y-76750000D03*
X144170000Y-77250000D03*
X144170000Y-77750000D03*
X144170000Y-78250000D03*
X144170000Y-78750000D03*
X144170000Y-79250000D03*
X144170000Y-79750000D03*
X144170000Y-80250000D03*
X144170000Y-80750000D03*
X144170000Y-81250000D03*
X144170000Y-81750000D03*
D23*
X142250000Y-83670000D03*
X141750000Y-83670000D03*
X141250000Y-83670000D03*
X140750000Y-83670000D03*
X140250000Y-83670000D03*
X139750000Y-83670000D03*
X139250000Y-83670000D03*
X138750000Y-83670000D03*
X138250000Y-83670000D03*
X137750000Y-83670000D03*
X137250000Y-83670000D03*
X136750000Y-83670000D03*
X136250000Y-83670000D03*
X135750000Y-83670000D03*
X135250000Y-83670000D03*
X134750000Y-83670000D03*
D24*
X132830000Y-81750000D03*
X132830000Y-81250000D03*
X132830000Y-80750000D03*
X132830000Y-80250000D03*
X132830000Y-79750000D03*
X132830000Y-79250000D03*
X132830000Y-78750000D03*
X132830000Y-78250000D03*
X132830000Y-77750000D03*
X132830000Y-77250000D03*
X132830000Y-76750000D03*
X132830000Y-76250000D03*
X132830000Y-75750000D03*
X132830000Y-75250000D03*
X132830000Y-74750000D03*
X132830000Y-74250000D03*
%TD*%
M02*
