%TF.GenerationSoftware,KiCad,Pcbnew,10.0.3*%
%TF.CreationDate,2026-06-30T17:06:10+07:00*%
%TF.ProjectId,simpad,73696d70-6164-42e6-9b69-6361645f7063,rev?*%
%TF.SameCoordinates,Original*%
%TF.FileFunction,Paste,Top*%
%TF.FilePolarity,Positive*%
%FSLAX46Y46*%
G04 Gerber Fmt 4.6, Leading zero omitted, Abs format (unit mm)*
G04 Created by KiCad (PCBNEW 10.0.3) date 2026-06-30 17:06:10*
%MOMM*%
%LPD*%
G01*
G04 APERTURE LIST*
G04 Aperture macros list*
%AMRoundRect*
0 Rectangle with rounded corners*
0 $1 Rounding radius*
0 $2 $3 $4 $5 $6 $7 $8 $9 X,Y pos of 4 corners*
0 Add a 4 corners polygon primitive as box body*
4,1,4,$2,$3,$4,$5,$6,$7,$8,$9,$2,$3,0*
0 Add four circle primitives for the rounded corners*
1,1,$1+$1,$2,$3*
1,1,$1+$1,$4,$5*
1,1,$1+$1,$6,$7*
1,1,$1+$1,$8,$9*
0 Add four rect primitives between the rounded corners*
20,1,$1+$1,$2,$3,$4,$5,0*
20,1,$1+$1,$4,$5,$6,$7,0*
20,1,$1+$1,$6,$7,$8,$9,0*
20,1,$1+$1,$8,$9,$2,$3,0*%
G04 Aperture macros list end*
%ADD10C,0.010000*%
%ADD11RoundRect,0.200000X-0.200000X-0.275000X0.200000X-0.275000X0.200000X0.275000X-0.200000X0.275000X0*%
%ADD12RoundRect,0.500000X-0.500000X-0.500000X0.500000X-0.500000X0.500000X0.500000X-0.500000X0.500000X0*%
%ADD13RoundRect,0.079500X-0.079500X-0.100500X0.079500X-0.100500X0.079500X0.100500X-0.079500X0.100500X0*%
%ADD14R,2.510000X1.000000*%
%ADD15R,0.250000X1.600000*%
%ADD16R,1.000000X1.800000*%
%ADD17R,1.200000X2.220000*%
%ADD18R,2.100000X1.400000*%
%ADD19RoundRect,0.031250X-0.093750X-0.268750X0.093750X-0.268750X0.093750X0.268750X-0.093750X0.268750X0*%
%ADD20RoundRect,0.031250X-0.268750X-0.093750X0.268750X-0.093750X0.268750X0.093750X-0.268750X0.093750X0*%
%ADD21RoundRect,0.035000X-0.105000X-0.700000X0.105000X-0.700000X0.105000X0.700000X-0.105000X0.700000X0*%
%ADD22RoundRect,0.035000X-0.700000X-0.105000X0.700000X-0.105000X0.700000X0.105000X-0.700000X0.105000X0*%
G04 APERTURE END LIST*
D10*
%TO.C,U2*%
X167325000Y-47800000D02*
X167175000Y-47800000D01*
X167172000Y-47800000D01*
X167170000Y-47800000D01*
X167167000Y-47799000D01*
X167165000Y-47799000D01*
X167162000Y-47798000D01*
X167160000Y-47798000D01*
X167157000Y-47797000D01*
X167155000Y-47796000D01*
X167152000Y-47795000D01*
X167150000Y-47793000D01*
X167148000Y-47792000D01*
X167146000Y-47790000D01*
X167144000Y-47789000D01*
X167142000Y-47787000D01*
X167140000Y-47785000D01*
X167138000Y-47783000D01*
X167136000Y-47781000D01*
X167135000Y-47779000D01*
X167133000Y-47777000D01*
X167132000Y-47775000D01*
X167130000Y-47773000D01*
X167129000Y-47770000D01*
X167128000Y-47768000D01*
X167127000Y-47765000D01*
X167127000Y-47763000D01*
X167126000Y-47760000D01*
X167126000Y-47758000D01*
X167125000Y-47755000D01*
X167125000Y-47753000D01*
X167125000Y-47750000D01*
X167125000Y-47450000D01*
X166875000Y-47450000D01*
X166875000Y-47750000D01*
X166875000Y-47753000D01*
X166875000Y-47755000D01*
X166874000Y-47758000D01*
X166874000Y-47760000D01*
X166873000Y-47763000D01*
X166873000Y-47765000D01*
X166872000Y-47768000D01*
X166871000Y-47770000D01*
X166870000Y-47773000D01*
X166868000Y-47775000D01*
X166867000Y-47777000D01*
X166865000Y-47779000D01*
X166864000Y-47781000D01*
X166862000Y-47783000D01*
X166860000Y-47785000D01*
X166858000Y-47787000D01*
X166856000Y-47789000D01*
X166854000Y-47790000D01*
X166852000Y-47792000D01*
X166850000Y-47793000D01*
X166848000Y-47795000D01*
X166845000Y-47796000D01*
X166843000Y-47797000D01*
X166840000Y-47798000D01*
X166838000Y-47798000D01*
X166835000Y-47799000D01*
X166833000Y-47799000D01*
X166830000Y-47800000D01*
X166828000Y-47800000D01*
X166825000Y-47800000D01*
X166675000Y-47800000D01*
X166672000Y-47800000D01*
X166670000Y-47800000D01*
X166667000Y-47799000D01*
X166665000Y-47799000D01*
X166662000Y-47798000D01*
X166660000Y-47798000D01*
X166657000Y-47797000D01*
X166655000Y-47796000D01*
X166652000Y-47795000D01*
X166650000Y-47793000D01*
X166648000Y-47792000D01*
X166646000Y-47790000D01*
X166644000Y-47789000D01*
X166642000Y-47787000D01*
X166640000Y-47785000D01*
X166638000Y-47783000D01*
X166636000Y-47781000D01*
X166635000Y-47779000D01*
X166633000Y-47777000D01*
X166632000Y-47775000D01*
X166630000Y-47773000D01*
X166629000Y-47770000D01*
X166628000Y-47768000D01*
X166627000Y-47765000D01*
X166627000Y-47763000D01*
X166626000Y-47760000D01*
X166626000Y-47758000D01*
X166625000Y-47755000D01*
X166625000Y-47753000D01*
X166625000Y-47750000D01*
X166625000Y-47250000D01*
X166625000Y-47247000D01*
X166625000Y-47245000D01*
X166626000Y-47242000D01*
X166626000Y-47240000D01*
X166627000Y-47237000D01*
X166627000Y-47235000D01*
X166628000Y-47232000D01*
X166629000Y-47230000D01*
X166630000Y-47227000D01*
X166632000Y-47225000D01*
X166633000Y-47223000D01*
X166635000Y-47221000D01*
X166636000Y-47219000D01*
X166638000Y-47217000D01*
X166640000Y-47215000D01*
X166642000Y-47213000D01*
X166644000Y-47211000D01*
X166646000Y-47210000D01*
X166648000Y-47208000D01*
X166650000Y-47207000D01*
X166652000Y-47205000D01*
X166655000Y-47204000D01*
X166657000Y-47203000D01*
X166660000Y-47202000D01*
X166662000Y-47202000D01*
X166665000Y-47201000D01*
X166667000Y-47201000D01*
X166670000Y-47200000D01*
X166672000Y-47200000D01*
X166675000Y-47200000D01*
X167325000Y-47200000D01*
X167328000Y-47200000D01*
X167330000Y-47200000D01*
X167333000Y-47201000D01*
X167335000Y-47201000D01*
X167338000Y-47202000D01*
X167340000Y-47202000D01*
X167343000Y-47203000D01*
X167345000Y-47204000D01*
X167348000Y-47205000D01*
X167350000Y-47207000D01*
X167352000Y-47208000D01*
X167354000Y-47210000D01*
X167356000Y-47211000D01*
X167358000Y-47213000D01*
X167360000Y-47215000D01*
X167362000Y-47217000D01*
X167364000Y-47219000D01*
X167365000Y-47221000D01*
X167367000Y-47223000D01*
X167368000Y-47225000D01*
X167370000Y-47227000D01*
X167371000Y-47230000D01*
X167372000Y-47232000D01*
X167373000Y-47235000D01*
X167373000Y-47237000D01*
X167374000Y-47240000D01*
X167374000Y-47242000D01*
X167375000Y-47245000D01*
X167375000Y-47247000D01*
X167375000Y-47250000D01*
X167375000Y-47750000D01*
X167375000Y-47753000D01*
X167375000Y-47755000D01*
X167374000Y-47758000D01*
X167374000Y-47760000D01*
X167373000Y-47763000D01*
X167373000Y-47765000D01*
X167372000Y-47768000D01*
X167371000Y-47770000D01*
X167370000Y-47773000D01*
X167368000Y-47775000D01*
X167367000Y-47777000D01*
X167365000Y-47779000D01*
X167364000Y-47781000D01*
X167362000Y-47783000D01*
X167360000Y-47785000D01*
X167358000Y-47787000D01*
X167356000Y-47789000D01*
X167354000Y-47790000D01*
X167352000Y-47792000D01*
X167350000Y-47793000D01*
X167348000Y-47795000D01*
X167345000Y-47796000D01*
X167343000Y-47797000D01*
X167340000Y-47798000D01*
X167338000Y-47798000D01*
X167335000Y-47799000D01*
X167333000Y-47799000D01*
X167330000Y-47800000D01*
X167328000Y-47800000D01*
X167325000Y-47800000D01*
G36*
X167333000Y-47201000D02*
G01*
X167335000Y-47201000D01*
X167338000Y-47202000D01*
X167340000Y-47202000D01*
X167343000Y-47203000D01*
X167345000Y-47204000D01*
X167348000Y-47205000D01*
X167350000Y-47207000D01*
X167352000Y-47208000D01*
X167354000Y-47210000D01*
X167356000Y-47211000D01*
X167358000Y-47213000D01*
X167360000Y-47215000D01*
X167362000Y-47217000D01*
X167364000Y-47219000D01*
X167365000Y-47221000D01*
X167367000Y-47223000D01*
X167368000Y-47225000D01*
X167370000Y-47227000D01*
X167371000Y-47230000D01*
X167372000Y-47232000D01*
X167373000Y-47235000D01*
X167373000Y-47237000D01*
X167374000Y-47240000D01*
X167374000Y-47242000D01*
X167375000Y-47245000D01*
X167375000Y-47247000D01*
X167375000Y-47250000D01*
X167375000Y-47750000D01*
X167375000Y-47753000D01*
X167375000Y-47755000D01*
X167374000Y-47758000D01*
X167374000Y-47760000D01*
X167373000Y-47763000D01*
X167373000Y-47765000D01*
X167372000Y-47768000D01*
X167371000Y-47770000D01*
X167370000Y-47773000D01*
X167368000Y-47775000D01*
X167367000Y-47777000D01*
X167365000Y-47779000D01*
X167364000Y-47781000D01*
X167362000Y-47783000D01*
X167360000Y-47785000D01*
X167358000Y-47787000D01*
X167356000Y-47789000D01*
X167354000Y-47790000D01*
X167352000Y-47792000D01*
X167350000Y-47793000D01*
X167348000Y-47795000D01*
X167345000Y-47796000D01*
X167343000Y-47797000D01*
X167340000Y-47798000D01*
X167338000Y-47798000D01*
X167335000Y-47799000D01*
X167333000Y-47799000D01*
X167330000Y-47800000D01*
X167328000Y-47800000D01*
X167325000Y-47800000D01*
X167175000Y-47800000D01*
X167172000Y-47800000D01*
X167170000Y-47800000D01*
X167167000Y-47799000D01*
X167165000Y-47799000D01*
X167162000Y-47798000D01*
X167160000Y-47798000D01*
X167157000Y-47797000D01*
X167155000Y-47796000D01*
X167152000Y-47795000D01*
X167150000Y-47793000D01*
X167148000Y-47792000D01*
X167146000Y-47790000D01*
X167144000Y-47789000D01*
X167142000Y-47787000D01*
X167140000Y-47785000D01*
X167138000Y-47783000D01*
X167136000Y-47781000D01*
X167135000Y-47779000D01*
X167133000Y-47777000D01*
X167132000Y-47775000D01*
X167130000Y-47773000D01*
X167129000Y-47770000D01*
X167128000Y-47768000D01*
X167127000Y-47765000D01*
X167127000Y-47763000D01*
X167126000Y-47760000D01*
X167126000Y-47758000D01*
X167125000Y-47755000D01*
X167125000Y-47753000D01*
X167125000Y-47750000D01*
X167125000Y-47450000D01*
X166875000Y-47450000D01*
X166875000Y-47750000D01*
X166875000Y-47753000D01*
X166875000Y-47755000D01*
X166874000Y-47758000D01*
X166874000Y-47760000D01*
X166873000Y-47763000D01*
X166873000Y-47765000D01*
X166872000Y-47768000D01*
X166871000Y-47770000D01*
X166870000Y-47773000D01*
X166868000Y-47775000D01*
X166867000Y-47777000D01*
X166865000Y-47779000D01*
X166864000Y-47781000D01*
X166862000Y-47783000D01*
X166860000Y-47785000D01*
X166858000Y-47787000D01*
X166856000Y-47789000D01*
X166854000Y-47790000D01*
X166852000Y-47792000D01*
X166850000Y-47793000D01*
X166848000Y-47795000D01*
X166845000Y-47796000D01*
X166843000Y-47797000D01*
X166840000Y-47798000D01*
X166838000Y-47798000D01*
X166835000Y-47799000D01*
X166833000Y-47799000D01*
X166830000Y-47800000D01*
X166828000Y-47800000D01*
X166825000Y-47800000D01*
X166675000Y-47800000D01*
X166672000Y-47800000D01*
X166670000Y-47800000D01*
X166667000Y-47799000D01*
X166665000Y-47799000D01*
X166662000Y-47798000D01*
X166660000Y-47798000D01*
X166657000Y-47797000D01*
X166655000Y-47796000D01*
X166652000Y-47795000D01*
X166650000Y-47793000D01*
X166648000Y-47792000D01*
X166646000Y-47790000D01*
X166644000Y-47789000D01*
X166642000Y-47787000D01*
X166640000Y-47785000D01*
X166638000Y-47783000D01*
X166636000Y-47781000D01*
X166635000Y-47779000D01*
X166633000Y-47777000D01*
X166632000Y-47775000D01*
X166630000Y-47773000D01*
X166629000Y-47770000D01*
X166628000Y-47768000D01*
X166627000Y-47765000D01*
X166627000Y-47763000D01*
X166626000Y-47760000D01*
X166626000Y-47758000D01*
X166625000Y-47755000D01*
X166625000Y-47753000D01*
X166625000Y-47750000D01*
X166625000Y-47250000D01*
X166625000Y-47247000D01*
X166625000Y-47245000D01*
X166626000Y-47242000D01*
X166626000Y-47240000D01*
X166627000Y-47237000D01*
X166627000Y-47235000D01*
X166628000Y-47232000D01*
X166629000Y-47230000D01*
X166630000Y-47227000D01*
X166632000Y-47225000D01*
X166633000Y-47223000D01*
X166635000Y-47221000D01*
X166636000Y-47219000D01*
X166638000Y-47217000D01*
X166640000Y-47215000D01*
X166642000Y-47213000D01*
X166644000Y-47211000D01*
X166646000Y-47210000D01*
X166648000Y-47208000D01*
X166650000Y-47207000D01*
X166652000Y-47205000D01*
X166655000Y-47204000D01*
X166657000Y-47203000D01*
X166660000Y-47202000D01*
X166662000Y-47202000D01*
X166665000Y-47201000D01*
X166667000Y-47201000D01*
X166670000Y-47200000D01*
X166672000Y-47200000D01*
X166675000Y-47200000D01*
X167325000Y-47200000D01*
X167328000Y-47200000D01*
X167330000Y-47200000D01*
X167333000Y-47201000D01*
G37*
X166675000Y-44400000D02*
X166825000Y-44400000D01*
X166828000Y-44400000D01*
X166830000Y-44400000D01*
X166833000Y-44401000D01*
X166835000Y-44401000D01*
X166838000Y-44402000D01*
X166840000Y-44402000D01*
X166843000Y-44403000D01*
X166845000Y-44404000D01*
X166848000Y-44405000D01*
X166850000Y-44407000D01*
X166852000Y-44408000D01*
X166854000Y-44410000D01*
X166856000Y-44411000D01*
X166858000Y-44413000D01*
X166860000Y-44415000D01*
X166862000Y-44417000D01*
X166864000Y-44419000D01*
X166865000Y-44421000D01*
X166867000Y-44423000D01*
X166868000Y-44425000D01*
X166870000Y-44427000D01*
X166871000Y-44430000D01*
X166872000Y-44432000D01*
X166873000Y-44435000D01*
X166873000Y-44437000D01*
X166874000Y-44440000D01*
X166874000Y-44442000D01*
X166875000Y-44445000D01*
X166875000Y-44447000D01*
X166875000Y-44450000D01*
X166875000Y-44750000D01*
X167125000Y-44750000D01*
X167125000Y-44450000D01*
X167125000Y-44447000D01*
X167125000Y-44445000D01*
X167126000Y-44442000D01*
X167126000Y-44440000D01*
X167127000Y-44437000D01*
X167127000Y-44435000D01*
X167128000Y-44432000D01*
X167129000Y-44430000D01*
X167130000Y-44427000D01*
X167132000Y-44425000D01*
X167133000Y-44423000D01*
X167135000Y-44421000D01*
X167136000Y-44419000D01*
X167138000Y-44417000D01*
X167140000Y-44415000D01*
X167142000Y-44413000D01*
X167144000Y-44411000D01*
X167146000Y-44410000D01*
X167148000Y-44408000D01*
X167150000Y-44407000D01*
X167152000Y-44405000D01*
X167155000Y-44404000D01*
X167157000Y-44403000D01*
X167160000Y-44402000D01*
X167162000Y-44402000D01*
X167165000Y-44401000D01*
X167167000Y-44401000D01*
X167170000Y-44400000D01*
X167172000Y-44400000D01*
X167175000Y-44400000D01*
X167325000Y-44400000D01*
X167328000Y-44400000D01*
X167330000Y-44400000D01*
X167333000Y-44401000D01*
X167335000Y-44401000D01*
X167338000Y-44402000D01*
X167340000Y-44402000D01*
X167343000Y-44403000D01*
X167345000Y-44404000D01*
X167348000Y-44405000D01*
X167350000Y-44407000D01*
X167352000Y-44408000D01*
X167354000Y-44410000D01*
X167356000Y-44411000D01*
X167358000Y-44413000D01*
X167360000Y-44415000D01*
X167362000Y-44417000D01*
X167364000Y-44419000D01*
X167365000Y-44421000D01*
X167367000Y-44423000D01*
X167368000Y-44425000D01*
X167370000Y-44427000D01*
X167371000Y-44430000D01*
X167372000Y-44432000D01*
X167373000Y-44435000D01*
X167373000Y-44437000D01*
X167374000Y-44440000D01*
X167374000Y-44442000D01*
X167375000Y-44445000D01*
X167375000Y-44447000D01*
X167375000Y-44450000D01*
X167375000Y-44950000D01*
X167375000Y-44953000D01*
X167375000Y-44955000D01*
X167374000Y-44958000D01*
X167374000Y-44960000D01*
X167373000Y-44963000D01*
X167373000Y-44965000D01*
X167372000Y-44968000D01*
X167371000Y-44970000D01*
X167370000Y-44973000D01*
X167368000Y-44975000D01*
X167367000Y-44977000D01*
X167365000Y-44979000D01*
X167364000Y-44981000D01*
X167362000Y-44983000D01*
X167360000Y-44985000D01*
X167358000Y-44987000D01*
X167356000Y-44989000D01*
X167354000Y-44990000D01*
X167352000Y-44992000D01*
X167350000Y-44993000D01*
X167348000Y-44995000D01*
X167345000Y-44996000D01*
X167343000Y-44997000D01*
X167340000Y-44998000D01*
X167338000Y-44998000D01*
X167335000Y-44999000D01*
X167333000Y-44999000D01*
X167330000Y-45000000D01*
X167328000Y-45000000D01*
X167325000Y-45000000D01*
X166675000Y-45000000D01*
X166672000Y-45000000D01*
X166670000Y-45000000D01*
X166667000Y-44999000D01*
X166665000Y-44999000D01*
X166662000Y-44998000D01*
X166660000Y-44998000D01*
X166657000Y-44997000D01*
X166655000Y-44996000D01*
X166652000Y-44995000D01*
X166650000Y-44993000D01*
X166648000Y-44992000D01*
X166646000Y-44990000D01*
X166644000Y-44989000D01*
X166642000Y-44987000D01*
X166640000Y-44985000D01*
X166638000Y-44983000D01*
X166636000Y-44981000D01*
X166635000Y-44979000D01*
X166633000Y-44977000D01*
X166632000Y-44975000D01*
X166630000Y-44973000D01*
X166629000Y-44970000D01*
X166628000Y-44968000D01*
X166627000Y-44965000D01*
X166627000Y-44963000D01*
X166626000Y-44960000D01*
X166626000Y-44958000D01*
X166625000Y-44955000D01*
X166625000Y-44953000D01*
X166625000Y-44950000D01*
X166625000Y-44450000D01*
X166625000Y-44447000D01*
X166625000Y-44445000D01*
X166626000Y-44442000D01*
X166626000Y-44440000D01*
X166627000Y-44437000D01*
X166627000Y-44435000D01*
X166628000Y-44432000D01*
X166629000Y-44430000D01*
X166630000Y-44427000D01*
X166632000Y-44425000D01*
X166633000Y-44423000D01*
X166635000Y-44421000D01*
X166636000Y-44419000D01*
X166638000Y-44417000D01*
X166640000Y-44415000D01*
X166642000Y-44413000D01*
X166644000Y-44411000D01*
X166646000Y-44410000D01*
X166648000Y-44408000D01*
X166650000Y-44407000D01*
X166652000Y-44405000D01*
X166655000Y-44404000D01*
X166657000Y-44403000D01*
X166660000Y-44402000D01*
X166662000Y-44402000D01*
X166665000Y-44401000D01*
X166667000Y-44401000D01*
X166670000Y-44400000D01*
X166672000Y-44400000D01*
X166675000Y-44400000D01*
G36*
X166833000Y-44401000D02*
G01*
X166835000Y-44401000D01*
X166838000Y-44402000D01*
X166840000Y-44402000D01*
X166843000Y-44403000D01*
X166845000Y-44404000D01*
X166848000Y-44405000D01*
X166850000Y-44407000D01*
X166852000Y-44408000D01*
X166854000Y-44410000D01*
X166856000Y-44411000D01*
X166858000Y-44413000D01*
X166860000Y-44415000D01*
X166862000Y-44417000D01*
X166864000Y-44419000D01*
X166865000Y-44421000D01*
X166867000Y-44423000D01*
X166868000Y-44425000D01*
X166870000Y-44427000D01*
X166871000Y-44430000D01*
X166872000Y-44432000D01*
X166873000Y-44435000D01*
X166873000Y-44437000D01*
X166874000Y-44440000D01*
X166874000Y-44442000D01*
X166875000Y-44445000D01*
X166875000Y-44447000D01*
X166875000Y-44450000D01*
X166875000Y-44750000D01*
X167125000Y-44750000D01*
X167125000Y-44450000D01*
X167125000Y-44447000D01*
X167125000Y-44445000D01*
X167126000Y-44442000D01*
X167126000Y-44440000D01*
X167127000Y-44437000D01*
X167127000Y-44435000D01*
X167128000Y-44432000D01*
X167129000Y-44430000D01*
X167130000Y-44427000D01*
X167132000Y-44425000D01*
X167133000Y-44423000D01*
X167135000Y-44421000D01*
X167136000Y-44419000D01*
X167138000Y-44417000D01*
X167140000Y-44415000D01*
X167142000Y-44413000D01*
X167144000Y-44411000D01*
X167146000Y-44410000D01*
X167148000Y-44408000D01*
X167150000Y-44407000D01*
X167152000Y-44405000D01*
X167155000Y-44404000D01*
X167157000Y-44403000D01*
X167160000Y-44402000D01*
X167162000Y-44402000D01*
X167165000Y-44401000D01*
X167167000Y-44401000D01*
X167170000Y-44400000D01*
X167172000Y-44400000D01*
X167175000Y-44400000D01*
X167325000Y-44400000D01*
X167328000Y-44400000D01*
X167330000Y-44400000D01*
X167333000Y-44401000D01*
X167335000Y-44401000D01*
X167338000Y-44402000D01*
X167340000Y-44402000D01*
X167343000Y-44403000D01*
X167345000Y-44404000D01*
X167348000Y-44405000D01*
X167350000Y-44407000D01*
X167352000Y-44408000D01*
X167354000Y-44410000D01*
X167356000Y-44411000D01*
X167358000Y-44413000D01*
X167360000Y-44415000D01*
X167362000Y-44417000D01*
X167364000Y-44419000D01*
X167365000Y-44421000D01*
X167367000Y-44423000D01*
X167368000Y-44425000D01*
X167370000Y-44427000D01*
X167371000Y-44430000D01*
X167372000Y-44432000D01*
X167373000Y-44435000D01*
X167373000Y-44437000D01*
X167374000Y-44440000D01*
X167374000Y-44442000D01*
X167375000Y-44445000D01*
X167375000Y-44447000D01*
X167375000Y-44450000D01*
X167375000Y-44950000D01*
X167375000Y-44953000D01*
X167375000Y-44955000D01*
X167374000Y-44958000D01*
X167374000Y-44960000D01*
X167373000Y-44963000D01*
X167373000Y-44965000D01*
X167372000Y-44968000D01*
X167371000Y-44970000D01*
X167370000Y-44973000D01*
X167368000Y-44975000D01*
X167367000Y-44977000D01*
X167365000Y-44979000D01*
X167364000Y-44981000D01*
X167362000Y-44983000D01*
X167360000Y-44985000D01*
X167358000Y-44987000D01*
X167356000Y-44989000D01*
X167354000Y-44990000D01*
X167352000Y-44992000D01*
X167350000Y-44993000D01*
X167348000Y-44995000D01*
X167345000Y-44996000D01*
X167343000Y-44997000D01*
X167340000Y-44998000D01*
X167338000Y-44998000D01*
X167335000Y-44999000D01*
X167333000Y-44999000D01*
X167330000Y-45000000D01*
X167328000Y-45000000D01*
X167325000Y-45000000D01*
X166675000Y-45000000D01*
X166672000Y-45000000D01*
X166670000Y-45000000D01*
X166667000Y-44999000D01*
X166665000Y-44999000D01*
X166662000Y-44998000D01*
X166660000Y-44998000D01*
X166657000Y-44997000D01*
X166655000Y-44996000D01*
X166652000Y-44995000D01*
X166650000Y-44993000D01*
X166648000Y-44992000D01*
X166646000Y-44990000D01*
X166644000Y-44989000D01*
X166642000Y-44987000D01*
X166640000Y-44985000D01*
X166638000Y-44983000D01*
X166636000Y-44981000D01*
X166635000Y-44979000D01*
X166633000Y-44977000D01*
X166632000Y-44975000D01*
X166630000Y-44973000D01*
X166629000Y-44970000D01*
X166628000Y-44968000D01*
X166627000Y-44965000D01*
X166627000Y-44963000D01*
X166626000Y-44960000D01*
X166626000Y-44958000D01*
X166625000Y-44955000D01*
X166625000Y-44953000D01*
X166625000Y-44950000D01*
X166625000Y-44450000D01*
X166625000Y-44447000D01*
X166625000Y-44445000D01*
X166626000Y-44442000D01*
X166626000Y-44440000D01*
X166627000Y-44437000D01*
X166627000Y-44435000D01*
X166628000Y-44432000D01*
X166629000Y-44430000D01*
X166630000Y-44427000D01*
X166632000Y-44425000D01*
X166633000Y-44423000D01*
X166635000Y-44421000D01*
X166636000Y-44419000D01*
X166638000Y-44417000D01*
X166640000Y-44415000D01*
X166642000Y-44413000D01*
X166644000Y-44411000D01*
X166646000Y-44410000D01*
X166648000Y-44408000D01*
X166650000Y-44407000D01*
X166652000Y-44405000D01*
X166655000Y-44404000D01*
X166657000Y-44403000D01*
X166660000Y-44402000D01*
X166662000Y-44402000D01*
X166665000Y-44401000D01*
X166667000Y-44401000D01*
X166670000Y-44400000D01*
X166672000Y-44400000D01*
X166675000Y-44400000D01*
X166825000Y-44400000D01*
X166828000Y-44400000D01*
X166830000Y-44400000D01*
X166833000Y-44401000D01*
G37*
X167350500Y-46525000D02*
X167350000Y-46675000D01*
X167351000Y-46678000D01*
X167351000Y-46680000D01*
X167351000Y-46683000D01*
X167352000Y-46685000D01*
X167352000Y-46688000D01*
X167353000Y-46690000D01*
X167354000Y-46693000D01*
X167355000Y-46695000D01*
X167356000Y-46698000D01*
X167357000Y-46700000D01*
X167359000Y-46702000D01*
X167360000Y-46704000D01*
X167362000Y-46706000D01*
X167363000Y-46708000D01*
X167365000Y-46710000D01*
X167367000Y-46712000D01*
X167369000Y-46714000D01*
X167371000Y-46715000D01*
X167373000Y-46717000D01*
X167375000Y-46718000D01*
X167378000Y-46720000D01*
X167380000Y-46721000D01*
X167383000Y-46722000D01*
X167385000Y-46723000D01*
X167388000Y-46723000D01*
X167390000Y-46724000D01*
X167393000Y-46724000D01*
X167395000Y-46725000D01*
X167398000Y-46725000D01*
X167400000Y-46725000D01*
X167876000Y-46725000D01*
X167878000Y-46725000D01*
X167881000Y-46725000D01*
X167883000Y-46724000D01*
X167886000Y-46724000D01*
X167888000Y-46723000D01*
X167891000Y-46723000D01*
X167893000Y-46722000D01*
X167896000Y-46721000D01*
X167898000Y-46720000D01*
X167900000Y-46718000D01*
X167903000Y-46717000D01*
X167905000Y-46715000D01*
X167907000Y-46714000D01*
X167909000Y-46712000D01*
X167911000Y-46710000D01*
X167913000Y-46708000D01*
X167914000Y-46706000D01*
X167916000Y-46704000D01*
X167917000Y-46702000D01*
X167919000Y-46700000D01*
X167920000Y-46698000D01*
X167921000Y-46695000D01*
X167922000Y-46693000D01*
X167923000Y-46690000D01*
X167924000Y-46688000D01*
X167924000Y-46685000D01*
X167925000Y-46683000D01*
X167925000Y-46680000D01*
X167925000Y-46678000D01*
X167925000Y-46675000D01*
X167925000Y-46525000D01*
X167925000Y-46522000D01*
X167925000Y-46520000D01*
X167925000Y-46517000D01*
X167924000Y-46515000D01*
X167924000Y-46512000D01*
X167923000Y-46510000D01*
X167922000Y-46507000D01*
X167921000Y-46505000D01*
X167920000Y-46502000D01*
X167919000Y-46500000D01*
X167917000Y-46498000D01*
X167916000Y-46496000D01*
X167914000Y-46494000D01*
X167913000Y-46492000D01*
X167911000Y-46490000D01*
X167909000Y-46488000D01*
X167907000Y-46486000D01*
X167905000Y-46485000D01*
X167903000Y-46483000D01*
X167900000Y-46482000D01*
X167898000Y-46480000D01*
X167896000Y-46479000D01*
X167893000Y-46478000D01*
X167891000Y-46477000D01*
X167888000Y-46477000D01*
X167886000Y-46476000D01*
X167883000Y-46476000D01*
X167881000Y-46475000D01*
X167878000Y-46475000D01*
X167876000Y-46475000D01*
X167400000Y-46475000D01*
X167398000Y-46475000D01*
X167395000Y-46475000D01*
X167393000Y-46476000D01*
X167390000Y-46476000D01*
X167388000Y-46477000D01*
X167385000Y-46477000D01*
X167383000Y-46478000D01*
X167380000Y-46479000D01*
X167378000Y-46480000D01*
X167375000Y-46482000D01*
X167373000Y-46483000D01*
X167371000Y-46485000D01*
X167369000Y-46486000D01*
X167367000Y-46488000D01*
X167365000Y-46490000D01*
X167363000Y-46492000D01*
X167362000Y-46494000D01*
X167360000Y-46496000D01*
X167359000Y-46498000D01*
X167357000Y-46500000D01*
X167356000Y-46502000D01*
X167355000Y-46505000D01*
X167354000Y-46507000D01*
X167353000Y-46510000D01*
X167352000Y-46512000D01*
X167352000Y-46515000D01*
X167351000Y-46517000D01*
X167351000Y-46520000D01*
X167351000Y-46522000D01*
X167350000Y-46525000D01*
X167350500Y-46525000D01*
G36*
X167883000Y-46476000D02*
G01*
X167886000Y-46476000D01*
X167888000Y-46477000D01*
X167891000Y-46477000D01*
X167893000Y-46478000D01*
X167896000Y-46479000D01*
X167898000Y-46480000D01*
X167900000Y-46482000D01*
X167903000Y-46483000D01*
X167905000Y-46485000D01*
X167907000Y-46486000D01*
X167909000Y-46488000D01*
X167911000Y-46490000D01*
X167913000Y-46492000D01*
X167914000Y-46494000D01*
X167916000Y-46496000D01*
X167917000Y-46498000D01*
X167919000Y-46500000D01*
X167920000Y-46502000D01*
X167921000Y-46505000D01*
X167922000Y-46507000D01*
X167923000Y-46510000D01*
X167924000Y-46512000D01*
X167924000Y-46515000D01*
X167925000Y-46517000D01*
X167925000Y-46520000D01*
X167925000Y-46522000D01*
X167925000Y-46525000D01*
X167925000Y-46675000D01*
X167925000Y-46678000D01*
X167925000Y-46680000D01*
X167925000Y-46683000D01*
X167924000Y-46685000D01*
X167924000Y-46688000D01*
X167923000Y-46690000D01*
X167922000Y-46693000D01*
X167921000Y-46695000D01*
X167920000Y-46698000D01*
X167919000Y-46700000D01*
X167917000Y-46702000D01*
X167916000Y-46704000D01*
X167914000Y-46706000D01*
X167913000Y-46708000D01*
X167911000Y-46710000D01*
X167909000Y-46712000D01*
X167907000Y-46714000D01*
X167905000Y-46715000D01*
X167903000Y-46717000D01*
X167900000Y-46718000D01*
X167898000Y-46720000D01*
X167896000Y-46721000D01*
X167893000Y-46722000D01*
X167891000Y-46723000D01*
X167888000Y-46723000D01*
X167886000Y-46724000D01*
X167883000Y-46724000D01*
X167881000Y-46725000D01*
X167878000Y-46725000D01*
X167876000Y-46725000D01*
X167400000Y-46725000D01*
X167398000Y-46725000D01*
X167395000Y-46725000D01*
X167393000Y-46724000D01*
X167390000Y-46724000D01*
X167388000Y-46723000D01*
X167385000Y-46723000D01*
X167383000Y-46722000D01*
X167380000Y-46721000D01*
X167378000Y-46720000D01*
X167375000Y-46718000D01*
X167373000Y-46717000D01*
X167371000Y-46715000D01*
X167369000Y-46714000D01*
X167367000Y-46712000D01*
X167365000Y-46710000D01*
X167363000Y-46708000D01*
X167362000Y-46706000D01*
X167360000Y-46704000D01*
X167359000Y-46702000D01*
X167357000Y-46700000D01*
X167356000Y-46698000D01*
X167355000Y-46695000D01*
X167354000Y-46693000D01*
X167353000Y-46690000D01*
X167352000Y-46688000D01*
X167352000Y-46685000D01*
X167351000Y-46683000D01*
X167351000Y-46680000D01*
X167351000Y-46678000D01*
X167350000Y-46675000D01*
X167350500Y-46525000D01*
X167350000Y-46525000D01*
X167351000Y-46522000D01*
X167351000Y-46520000D01*
X167351000Y-46517000D01*
X167352000Y-46515000D01*
X167352000Y-46512000D01*
X167353000Y-46510000D01*
X167354000Y-46507000D01*
X167355000Y-46505000D01*
X167356000Y-46502000D01*
X167357000Y-46500000D01*
X167359000Y-46498000D01*
X167360000Y-46496000D01*
X167362000Y-46494000D01*
X167363000Y-46492000D01*
X167365000Y-46490000D01*
X167367000Y-46488000D01*
X167369000Y-46486000D01*
X167371000Y-46485000D01*
X167373000Y-46483000D01*
X167375000Y-46482000D01*
X167378000Y-46480000D01*
X167380000Y-46479000D01*
X167383000Y-46478000D01*
X167385000Y-46477000D01*
X167388000Y-46477000D01*
X167390000Y-46476000D01*
X167393000Y-46476000D01*
X167395000Y-46475000D01*
X167398000Y-46475000D01*
X167400000Y-46475000D01*
X167876000Y-46475000D01*
X167878000Y-46475000D01*
X167881000Y-46475000D01*
X167883000Y-46476000D01*
G37*
X167350500Y-45525000D02*
X167350000Y-45675000D01*
X167351000Y-45678000D01*
X167351000Y-45680000D01*
X167351000Y-45683000D01*
X167352000Y-45685000D01*
X167352000Y-45688000D01*
X167353000Y-45690000D01*
X167354000Y-45693000D01*
X167355000Y-45695000D01*
X167356000Y-45698000D01*
X167357000Y-45700000D01*
X167359000Y-45702000D01*
X167360000Y-45704000D01*
X167362000Y-45706000D01*
X167363000Y-45708000D01*
X167365000Y-45710000D01*
X167367000Y-45712000D01*
X167369000Y-45714000D01*
X167371000Y-45715000D01*
X167373000Y-45717000D01*
X167375000Y-45718000D01*
X167378000Y-45720000D01*
X167380000Y-45721000D01*
X167383000Y-45722000D01*
X167385000Y-45723000D01*
X167388000Y-45723000D01*
X167390000Y-45724000D01*
X167393000Y-45724000D01*
X167395000Y-45725000D01*
X167398000Y-45725000D01*
X167400000Y-45725000D01*
X167876000Y-45725000D01*
X167878000Y-45725000D01*
X167881000Y-45725000D01*
X167883000Y-45724000D01*
X167886000Y-45724000D01*
X167888000Y-45723000D01*
X167891000Y-45723000D01*
X167893000Y-45722000D01*
X167896000Y-45721000D01*
X167898000Y-45720000D01*
X167900000Y-45718000D01*
X167903000Y-45717000D01*
X167905000Y-45715000D01*
X167907000Y-45714000D01*
X167909000Y-45712000D01*
X167911000Y-45710000D01*
X167913000Y-45708000D01*
X167914000Y-45706000D01*
X167916000Y-45704000D01*
X167917000Y-45702000D01*
X167919000Y-45700000D01*
X167920000Y-45698000D01*
X167921000Y-45695000D01*
X167922000Y-45693000D01*
X167923000Y-45690000D01*
X167924000Y-45688000D01*
X167924000Y-45685000D01*
X167925000Y-45683000D01*
X167925000Y-45680000D01*
X167925000Y-45678000D01*
X167925000Y-45675000D01*
X167925000Y-45525000D01*
X167925000Y-45522000D01*
X167925000Y-45520000D01*
X167925000Y-45517000D01*
X167924000Y-45515000D01*
X167924000Y-45512000D01*
X167923000Y-45510000D01*
X167922000Y-45507000D01*
X167921000Y-45505000D01*
X167920000Y-45502000D01*
X167919000Y-45500000D01*
X167917000Y-45498000D01*
X167916000Y-45496000D01*
X167914000Y-45494000D01*
X167913000Y-45492000D01*
X167911000Y-45490000D01*
X167909000Y-45488000D01*
X167907000Y-45486000D01*
X167905000Y-45485000D01*
X167903000Y-45483000D01*
X167900000Y-45482000D01*
X167898000Y-45480000D01*
X167896000Y-45479000D01*
X167893000Y-45478000D01*
X167891000Y-45477000D01*
X167888000Y-45477000D01*
X167886000Y-45476000D01*
X167883000Y-45476000D01*
X167881000Y-45475000D01*
X167878000Y-45475000D01*
X167876000Y-45475000D01*
X167400000Y-45475000D01*
X167398000Y-45475000D01*
X167395000Y-45475000D01*
X167393000Y-45476000D01*
X167390000Y-45476000D01*
X167388000Y-45477000D01*
X167385000Y-45477000D01*
X167383000Y-45478000D01*
X167380000Y-45479000D01*
X167378000Y-45480000D01*
X167375000Y-45482000D01*
X167373000Y-45483000D01*
X167371000Y-45485000D01*
X167369000Y-45486000D01*
X167367000Y-45488000D01*
X167365000Y-45490000D01*
X167363000Y-45492000D01*
X167362000Y-45494000D01*
X167360000Y-45496000D01*
X167359000Y-45498000D01*
X167357000Y-45500000D01*
X167356000Y-45502000D01*
X167355000Y-45505000D01*
X167354000Y-45507000D01*
X167353000Y-45510000D01*
X167352000Y-45512000D01*
X167352000Y-45515000D01*
X167351000Y-45517000D01*
X167351000Y-45520000D01*
X167351000Y-45522000D01*
X167350000Y-45525000D01*
X167350500Y-45525000D01*
G36*
X167883000Y-45476000D02*
G01*
X167886000Y-45476000D01*
X167888000Y-45477000D01*
X167891000Y-45477000D01*
X167893000Y-45478000D01*
X167896000Y-45479000D01*
X167898000Y-45480000D01*
X167900000Y-45482000D01*
X167903000Y-45483000D01*
X167905000Y-45485000D01*
X167907000Y-45486000D01*
X167909000Y-45488000D01*
X167911000Y-45490000D01*
X167913000Y-45492000D01*
X167914000Y-45494000D01*
X167916000Y-45496000D01*
X167917000Y-45498000D01*
X167919000Y-45500000D01*
X167920000Y-45502000D01*
X167921000Y-45505000D01*
X167922000Y-45507000D01*
X167923000Y-45510000D01*
X167924000Y-45512000D01*
X167924000Y-45515000D01*
X167925000Y-45517000D01*
X167925000Y-45520000D01*
X167925000Y-45522000D01*
X167925000Y-45525000D01*
X167925000Y-45675000D01*
X167925000Y-45678000D01*
X167925000Y-45680000D01*
X167925000Y-45683000D01*
X167924000Y-45685000D01*
X167924000Y-45688000D01*
X167923000Y-45690000D01*
X167922000Y-45693000D01*
X167921000Y-45695000D01*
X167920000Y-45698000D01*
X167919000Y-45700000D01*
X167917000Y-45702000D01*
X167916000Y-45704000D01*
X167914000Y-45706000D01*
X167913000Y-45708000D01*
X167911000Y-45710000D01*
X167909000Y-45712000D01*
X167907000Y-45714000D01*
X167905000Y-45715000D01*
X167903000Y-45717000D01*
X167900000Y-45718000D01*
X167898000Y-45720000D01*
X167896000Y-45721000D01*
X167893000Y-45722000D01*
X167891000Y-45723000D01*
X167888000Y-45723000D01*
X167886000Y-45724000D01*
X167883000Y-45724000D01*
X167881000Y-45725000D01*
X167878000Y-45725000D01*
X167876000Y-45725000D01*
X167400000Y-45725000D01*
X167398000Y-45725000D01*
X167395000Y-45725000D01*
X167393000Y-45724000D01*
X167390000Y-45724000D01*
X167388000Y-45723000D01*
X167385000Y-45723000D01*
X167383000Y-45722000D01*
X167380000Y-45721000D01*
X167378000Y-45720000D01*
X167375000Y-45718000D01*
X167373000Y-45717000D01*
X167371000Y-45715000D01*
X167369000Y-45714000D01*
X167367000Y-45712000D01*
X167365000Y-45710000D01*
X167363000Y-45708000D01*
X167362000Y-45706000D01*
X167360000Y-45704000D01*
X167359000Y-45702000D01*
X167357000Y-45700000D01*
X167356000Y-45698000D01*
X167355000Y-45695000D01*
X167354000Y-45693000D01*
X167353000Y-45690000D01*
X167352000Y-45688000D01*
X167352000Y-45685000D01*
X167351000Y-45683000D01*
X167351000Y-45680000D01*
X167351000Y-45678000D01*
X167350000Y-45675000D01*
X167350500Y-45525000D01*
X167350000Y-45525000D01*
X167351000Y-45522000D01*
X167351000Y-45520000D01*
X167351000Y-45517000D01*
X167352000Y-45515000D01*
X167352000Y-45512000D01*
X167353000Y-45510000D01*
X167354000Y-45507000D01*
X167355000Y-45505000D01*
X167356000Y-45502000D01*
X167357000Y-45500000D01*
X167359000Y-45498000D01*
X167360000Y-45496000D01*
X167362000Y-45494000D01*
X167363000Y-45492000D01*
X167365000Y-45490000D01*
X167367000Y-45488000D01*
X167369000Y-45486000D01*
X167371000Y-45485000D01*
X167373000Y-45483000D01*
X167375000Y-45482000D01*
X167378000Y-45480000D01*
X167380000Y-45479000D01*
X167383000Y-45478000D01*
X167385000Y-45477000D01*
X167388000Y-45477000D01*
X167390000Y-45476000D01*
X167393000Y-45476000D01*
X167395000Y-45475000D01*
X167398000Y-45475000D01*
X167400000Y-45475000D01*
X167876000Y-45475000D01*
X167878000Y-45475000D01*
X167881000Y-45475000D01*
X167883000Y-45476000D01*
G37*
X166575500Y-46525000D02*
X166576000Y-46675000D01*
X166576000Y-46678000D01*
X166576000Y-46680000D01*
X166576000Y-46683000D01*
X166577000Y-46685000D01*
X166577000Y-46688000D01*
X166578000Y-46690000D01*
X166579000Y-46693000D01*
X166580000Y-46695000D01*
X166581000Y-46698000D01*
X166582000Y-46700000D01*
X166584000Y-46702000D01*
X166585000Y-46704000D01*
X166587000Y-46706000D01*
X166588000Y-46708000D01*
X166590000Y-46710000D01*
X166592000Y-46712000D01*
X166594000Y-46714000D01*
X166596000Y-46715000D01*
X166598000Y-46717000D01*
X166601000Y-46718000D01*
X166603000Y-46720000D01*
X166605000Y-46721000D01*
X166608000Y-46722000D01*
X166610000Y-46723000D01*
X166613000Y-46723000D01*
X166615000Y-46724000D01*
X166618000Y-46724000D01*
X166620000Y-46725000D01*
X166623000Y-46725000D01*
X166625000Y-46725000D01*
X167100000Y-46725000D01*
X167103000Y-46725000D01*
X167106000Y-46725000D01*
X167108000Y-46724000D01*
X167111000Y-46724000D01*
X167113000Y-46723000D01*
X167116000Y-46723000D01*
X167118000Y-46722000D01*
X167121000Y-46721000D01*
X167123000Y-46720000D01*
X167125000Y-46718000D01*
X167128000Y-46717000D01*
X167130000Y-46715000D01*
X167132000Y-46714000D01*
X167134000Y-46712000D01*
X167136000Y-46710000D01*
X167138000Y-46708000D01*
X167139000Y-46706000D01*
X167141000Y-46704000D01*
X167142000Y-46702000D01*
X167144000Y-46700000D01*
X167145000Y-46698000D01*
X167146000Y-46695000D01*
X167147000Y-46693000D01*
X167148000Y-46690000D01*
X167149000Y-46688000D01*
X167149000Y-46685000D01*
X167150000Y-46683000D01*
X167150000Y-46680000D01*
X167150000Y-46678000D01*
X167150000Y-46675000D01*
X167150000Y-46525000D01*
X167150000Y-46522000D01*
X167150000Y-46520000D01*
X167150000Y-46517000D01*
X167149000Y-46515000D01*
X167149000Y-46512000D01*
X167148000Y-46510000D01*
X167147000Y-46507000D01*
X167146000Y-46505000D01*
X167145000Y-46502000D01*
X167144000Y-46500000D01*
X167142000Y-46498000D01*
X167141000Y-46496000D01*
X167139000Y-46494000D01*
X167138000Y-46492000D01*
X167136000Y-46490000D01*
X167134000Y-46488000D01*
X167132000Y-46486000D01*
X167130000Y-46485000D01*
X167128000Y-46483000D01*
X167125000Y-46482000D01*
X167123000Y-46480000D01*
X167121000Y-46479000D01*
X167118000Y-46478000D01*
X167116000Y-46477000D01*
X167113000Y-46477000D01*
X167111000Y-46476000D01*
X167108000Y-46476000D01*
X167106000Y-46475000D01*
X167103000Y-46475000D01*
X167100000Y-46475000D01*
X166625000Y-46475000D01*
X166623000Y-46475000D01*
X166620000Y-46475000D01*
X166618000Y-46476000D01*
X166615000Y-46476000D01*
X166613000Y-46477000D01*
X166610000Y-46477000D01*
X166608000Y-46478000D01*
X166605000Y-46479000D01*
X166603000Y-46480000D01*
X166601000Y-46482000D01*
X166598000Y-46483000D01*
X166596000Y-46485000D01*
X166594000Y-46486000D01*
X166592000Y-46488000D01*
X166590000Y-46490000D01*
X166588000Y-46492000D01*
X166587000Y-46494000D01*
X166585000Y-46496000D01*
X166584000Y-46498000D01*
X166582000Y-46500000D01*
X166581000Y-46502000D01*
X166580000Y-46505000D01*
X166579000Y-46507000D01*
X166578000Y-46510000D01*
X166577000Y-46512000D01*
X166577000Y-46515000D01*
X166576000Y-46517000D01*
X166576000Y-46520000D01*
X166576000Y-46522000D01*
X166576000Y-46525000D01*
X166575500Y-46525000D01*
G36*
X167108000Y-46476000D02*
G01*
X167111000Y-46476000D01*
X167113000Y-46477000D01*
X167116000Y-46477000D01*
X167118000Y-46478000D01*
X167121000Y-46479000D01*
X167123000Y-46480000D01*
X167125000Y-46482000D01*
X167128000Y-46483000D01*
X167130000Y-46485000D01*
X167132000Y-46486000D01*
X167134000Y-46488000D01*
X167136000Y-46490000D01*
X167138000Y-46492000D01*
X167139000Y-46494000D01*
X167141000Y-46496000D01*
X167142000Y-46498000D01*
X167144000Y-46500000D01*
X167145000Y-46502000D01*
X167146000Y-46505000D01*
X167147000Y-46507000D01*
X167148000Y-46510000D01*
X167149000Y-46512000D01*
X167149000Y-46515000D01*
X167150000Y-46517000D01*
X167150000Y-46520000D01*
X167150000Y-46522000D01*
X167150000Y-46525000D01*
X167150000Y-46675000D01*
X167150000Y-46678000D01*
X167150000Y-46680000D01*
X167150000Y-46683000D01*
X167149000Y-46685000D01*
X167149000Y-46688000D01*
X167148000Y-46690000D01*
X167147000Y-46693000D01*
X167146000Y-46695000D01*
X167145000Y-46698000D01*
X167144000Y-46700000D01*
X167142000Y-46702000D01*
X167141000Y-46704000D01*
X167139000Y-46706000D01*
X167138000Y-46708000D01*
X167136000Y-46710000D01*
X167134000Y-46712000D01*
X167132000Y-46714000D01*
X167130000Y-46715000D01*
X167128000Y-46717000D01*
X167125000Y-46718000D01*
X167123000Y-46720000D01*
X167121000Y-46721000D01*
X167118000Y-46722000D01*
X167116000Y-46723000D01*
X167113000Y-46723000D01*
X167111000Y-46724000D01*
X167108000Y-46724000D01*
X167106000Y-46725000D01*
X167103000Y-46725000D01*
X167100000Y-46725000D01*
X166625000Y-46725000D01*
X166623000Y-46725000D01*
X166620000Y-46725000D01*
X166618000Y-46724000D01*
X166615000Y-46724000D01*
X166613000Y-46723000D01*
X166610000Y-46723000D01*
X166608000Y-46722000D01*
X166605000Y-46721000D01*
X166603000Y-46720000D01*
X166601000Y-46718000D01*
X166598000Y-46717000D01*
X166596000Y-46715000D01*
X166594000Y-46714000D01*
X166592000Y-46712000D01*
X166590000Y-46710000D01*
X166588000Y-46708000D01*
X166587000Y-46706000D01*
X166585000Y-46704000D01*
X166584000Y-46702000D01*
X166582000Y-46700000D01*
X166581000Y-46698000D01*
X166580000Y-46695000D01*
X166579000Y-46693000D01*
X166578000Y-46690000D01*
X166577000Y-46688000D01*
X166577000Y-46685000D01*
X166576000Y-46683000D01*
X166576000Y-46680000D01*
X166576000Y-46678000D01*
X166576000Y-46675000D01*
X166575500Y-46525000D01*
X166576000Y-46525000D01*
X166576000Y-46522000D01*
X166576000Y-46520000D01*
X166576000Y-46517000D01*
X166577000Y-46515000D01*
X166577000Y-46512000D01*
X166578000Y-46510000D01*
X166579000Y-46507000D01*
X166580000Y-46505000D01*
X166581000Y-46502000D01*
X166582000Y-46500000D01*
X166584000Y-46498000D01*
X166585000Y-46496000D01*
X166587000Y-46494000D01*
X166588000Y-46492000D01*
X166590000Y-46490000D01*
X166592000Y-46488000D01*
X166594000Y-46486000D01*
X166596000Y-46485000D01*
X166598000Y-46483000D01*
X166601000Y-46482000D01*
X166603000Y-46480000D01*
X166605000Y-46479000D01*
X166608000Y-46478000D01*
X166610000Y-46477000D01*
X166613000Y-46477000D01*
X166615000Y-46476000D01*
X166618000Y-46476000D01*
X166620000Y-46475000D01*
X166623000Y-46475000D01*
X166625000Y-46475000D01*
X167100000Y-46475000D01*
X167103000Y-46475000D01*
X167106000Y-46475000D01*
X167108000Y-46476000D01*
G37*
X166575500Y-45525000D02*
X166576000Y-45675000D01*
X166576000Y-45678000D01*
X166576000Y-45680000D01*
X166576000Y-45683000D01*
X166577000Y-45685000D01*
X166577000Y-45688000D01*
X166578000Y-45690000D01*
X166579000Y-45693000D01*
X166580000Y-45695000D01*
X166581000Y-45698000D01*
X166582000Y-45700000D01*
X166584000Y-45702000D01*
X166585000Y-45704000D01*
X166587000Y-45706000D01*
X166588000Y-45708000D01*
X166590000Y-45710000D01*
X166592000Y-45712000D01*
X166594000Y-45714000D01*
X166596000Y-45715000D01*
X166598000Y-45717000D01*
X166601000Y-45718000D01*
X166603000Y-45720000D01*
X166605000Y-45721000D01*
X166608000Y-45722000D01*
X166610000Y-45723000D01*
X166613000Y-45723000D01*
X166615000Y-45724000D01*
X166618000Y-45724000D01*
X166620000Y-45725000D01*
X166623000Y-45725000D01*
X166625000Y-45725000D01*
X167100000Y-45725000D01*
X167103000Y-45725000D01*
X167106000Y-45725000D01*
X167108000Y-45724000D01*
X167111000Y-45724000D01*
X167113000Y-45723000D01*
X167116000Y-45723000D01*
X167118000Y-45722000D01*
X167121000Y-45721000D01*
X167123000Y-45720000D01*
X167125000Y-45718000D01*
X167128000Y-45717000D01*
X167130000Y-45715000D01*
X167132000Y-45714000D01*
X167134000Y-45712000D01*
X167136000Y-45710000D01*
X167138000Y-45708000D01*
X167139000Y-45706000D01*
X167141000Y-45704000D01*
X167142000Y-45702000D01*
X167144000Y-45700000D01*
X167145000Y-45698000D01*
X167146000Y-45695000D01*
X167147000Y-45693000D01*
X167148000Y-45690000D01*
X167149000Y-45688000D01*
X167149000Y-45685000D01*
X167150000Y-45683000D01*
X167150000Y-45680000D01*
X167150000Y-45678000D01*
X167150000Y-45675000D01*
X167150000Y-45525000D01*
X167150000Y-45522000D01*
X167150000Y-45520000D01*
X167150000Y-45517000D01*
X167149000Y-45515000D01*
X167149000Y-45512000D01*
X167148000Y-45510000D01*
X167147000Y-45507000D01*
X167146000Y-45505000D01*
X167145000Y-45502000D01*
X167144000Y-45500000D01*
X167142000Y-45498000D01*
X167141000Y-45496000D01*
X167139000Y-45494000D01*
X167138000Y-45492000D01*
X167136000Y-45490000D01*
X167134000Y-45488000D01*
X167132000Y-45486000D01*
X167130000Y-45485000D01*
X167128000Y-45483000D01*
X167125000Y-45482000D01*
X167123000Y-45480000D01*
X167121000Y-45479000D01*
X167118000Y-45478000D01*
X167116000Y-45477000D01*
X167113000Y-45477000D01*
X167111000Y-45476000D01*
X167108000Y-45476000D01*
X167106000Y-45475000D01*
X167103000Y-45475000D01*
X167100000Y-45475000D01*
X166625000Y-45475000D01*
X166623000Y-45475000D01*
X166620000Y-45475000D01*
X166618000Y-45476000D01*
X166615000Y-45476000D01*
X166613000Y-45477000D01*
X166610000Y-45477000D01*
X166608000Y-45478000D01*
X166605000Y-45479000D01*
X166603000Y-45480000D01*
X166601000Y-45482000D01*
X166598000Y-45483000D01*
X166596000Y-45485000D01*
X166594000Y-45486000D01*
X166592000Y-45488000D01*
X166590000Y-45490000D01*
X166588000Y-45492000D01*
X166587000Y-45494000D01*
X166585000Y-45496000D01*
X166584000Y-45498000D01*
X166582000Y-45500000D01*
X166581000Y-45502000D01*
X166580000Y-45505000D01*
X166579000Y-45507000D01*
X166578000Y-45510000D01*
X166577000Y-45512000D01*
X166577000Y-45515000D01*
X166576000Y-45517000D01*
X166576000Y-45520000D01*
X166576000Y-45522000D01*
X166576000Y-45525000D01*
X166575500Y-45525000D01*
G36*
X167108000Y-45476000D02*
G01*
X167111000Y-45476000D01*
X167113000Y-45477000D01*
X167116000Y-45477000D01*
X167118000Y-45478000D01*
X167121000Y-45479000D01*
X167123000Y-45480000D01*
X167125000Y-45482000D01*
X167128000Y-45483000D01*
X167130000Y-45485000D01*
X167132000Y-45486000D01*
X167134000Y-45488000D01*
X167136000Y-45490000D01*
X167138000Y-45492000D01*
X167139000Y-45494000D01*
X167141000Y-45496000D01*
X167142000Y-45498000D01*
X167144000Y-45500000D01*
X167145000Y-45502000D01*
X167146000Y-45505000D01*
X167147000Y-45507000D01*
X167148000Y-45510000D01*
X167149000Y-45512000D01*
X167149000Y-45515000D01*
X167150000Y-45517000D01*
X167150000Y-45520000D01*
X167150000Y-45522000D01*
X167150000Y-45525000D01*
X167150000Y-45675000D01*
X167150000Y-45678000D01*
X167150000Y-45680000D01*
X167150000Y-45683000D01*
X167149000Y-45685000D01*
X167149000Y-45688000D01*
X167148000Y-45690000D01*
X167147000Y-45693000D01*
X167146000Y-45695000D01*
X167145000Y-45698000D01*
X167144000Y-45700000D01*
X167142000Y-45702000D01*
X167141000Y-45704000D01*
X167139000Y-45706000D01*
X167138000Y-45708000D01*
X167136000Y-45710000D01*
X167134000Y-45712000D01*
X167132000Y-45714000D01*
X167130000Y-45715000D01*
X167128000Y-45717000D01*
X167125000Y-45718000D01*
X167123000Y-45720000D01*
X167121000Y-45721000D01*
X167118000Y-45722000D01*
X167116000Y-45723000D01*
X167113000Y-45723000D01*
X167111000Y-45724000D01*
X167108000Y-45724000D01*
X167106000Y-45725000D01*
X167103000Y-45725000D01*
X167100000Y-45725000D01*
X166625000Y-45725000D01*
X166623000Y-45725000D01*
X166620000Y-45725000D01*
X166618000Y-45724000D01*
X166615000Y-45724000D01*
X166613000Y-45723000D01*
X166610000Y-45723000D01*
X166608000Y-45722000D01*
X166605000Y-45721000D01*
X166603000Y-45720000D01*
X166601000Y-45718000D01*
X166598000Y-45717000D01*
X166596000Y-45715000D01*
X166594000Y-45714000D01*
X166592000Y-45712000D01*
X166590000Y-45710000D01*
X166588000Y-45708000D01*
X166587000Y-45706000D01*
X166585000Y-45704000D01*
X166584000Y-45702000D01*
X166582000Y-45700000D01*
X166581000Y-45698000D01*
X166580000Y-45695000D01*
X166579000Y-45693000D01*
X166578000Y-45690000D01*
X166577000Y-45688000D01*
X166577000Y-45685000D01*
X166576000Y-45683000D01*
X166576000Y-45680000D01*
X166576000Y-45678000D01*
X166576000Y-45675000D01*
X166575500Y-45525000D01*
X166576000Y-45525000D01*
X166576000Y-45522000D01*
X166576000Y-45520000D01*
X166576000Y-45517000D01*
X166577000Y-45515000D01*
X166577000Y-45512000D01*
X166578000Y-45510000D01*
X166579000Y-45507000D01*
X166580000Y-45505000D01*
X166581000Y-45502000D01*
X166582000Y-45500000D01*
X166584000Y-45498000D01*
X166585000Y-45496000D01*
X166587000Y-45494000D01*
X166588000Y-45492000D01*
X166590000Y-45490000D01*
X166592000Y-45488000D01*
X166594000Y-45486000D01*
X166596000Y-45485000D01*
X166598000Y-45483000D01*
X166601000Y-45482000D01*
X166603000Y-45480000D01*
X166605000Y-45479000D01*
X166608000Y-45478000D01*
X166610000Y-45477000D01*
X166613000Y-45477000D01*
X166615000Y-45476000D01*
X166618000Y-45476000D01*
X166620000Y-45475000D01*
X166623000Y-45475000D01*
X166625000Y-45475000D01*
X167100000Y-45475000D01*
X167103000Y-45475000D01*
X167106000Y-45475000D01*
X167108000Y-45476000D01*
G37*
X167175000Y-46025000D02*
X167175000Y-46175000D01*
X167175000Y-46178000D01*
X167175000Y-46180000D01*
X167176000Y-46183000D01*
X167176000Y-46185000D01*
X167177000Y-46188000D01*
X167177000Y-46190000D01*
X167178000Y-46193000D01*
X167179000Y-46195000D01*
X167180000Y-46198000D01*
X167182000Y-46200000D01*
X167183000Y-46202000D01*
X167185000Y-46204000D01*
X167186000Y-46206000D01*
X167188000Y-46208000D01*
X167190000Y-46210000D01*
X167192000Y-46212000D01*
X167194000Y-46214000D01*
X167196000Y-46215000D01*
X167198000Y-46217000D01*
X167200000Y-46218000D01*
X167202000Y-46220000D01*
X167205000Y-46221000D01*
X167207000Y-46222000D01*
X167210000Y-46223000D01*
X167212000Y-46223000D01*
X167215000Y-46224000D01*
X167217000Y-46224000D01*
X167220000Y-46225000D01*
X167222000Y-46225000D01*
X167225000Y-46225000D01*
X167845000Y-46225000D01*
X167848000Y-46225000D01*
X167850000Y-46225000D01*
X167853000Y-46224000D01*
X167855000Y-46224000D01*
X167858000Y-46223000D01*
X167860000Y-46223000D01*
X167863000Y-46222000D01*
X167865000Y-46221000D01*
X167868000Y-46220000D01*
X167870000Y-46218000D01*
X167872000Y-46217000D01*
X167874000Y-46215000D01*
X167876000Y-46214000D01*
X167878000Y-46212000D01*
X167880000Y-46210000D01*
X167882000Y-46208000D01*
X167884000Y-46206000D01*
X167885000Y-46204000D01*
X167887000Y-46202000D01*
X167888000Y-46200000D01*
X167890000Y-46198000D01*
X167891000Y-46195000D01*
X167892000Y-46193000D01*
X167893000Y-46190000D01*
X167893000Y-46188000D01*
X167894000Y-46185000D01*
X167894000Y-46183000D01*
X167895000Y-46180000D01*
X167895000Y-46178000D01*
X167895000Y-46175000D01*
X167895000Y-46025000D01*
X167895000Y-46022000D01*
X167895000Y-46020000D01*
X167894000Y-46017000D01*
X167894000Y-46015000D01*
X167893000Y-46012000D01*
X167893000Y-46010000D01*
X167892000Y-46007000D01*
X167891000Y-46005000D01*
X167890000Y-46002000D01*
X167888000Y-46000000D01*
X167887000Y-45998000D01*
X167885000Y-45996000D01*
X167884000Y-45994000D01*
X167882000Y-45992000D01*
X167880000Y-45990000D01*
X167878000Y-45988000D01*
X167876000Y-45986000D01*
X167874000Y-45985000D01*
X167872000Y-45983000D01*
X167870000Y-45982000D01*
X167868000Y-45980000D01*
X167865000Y-45979000D01*
X167863000Y-45978000D01*
X167860000Y-45977000D01*
X167858000Y-45977000D01*
X167855000Y-45976000D01*
X167853000Y-45976000D01*
X167850000Y-45975000D01*
X167848000Y-45975000D01*
X167845000Y-45975000D01*
X167225000Y-45975000D01*
X167222000Y-45975000D01*
X167220000Y-45975000D01*
X167217000Y-45976000D01*
X167215000Y-45976000D01*
X167212000Y-45977000D01*
X167210000Y-45977000D01*
X167207000Y-45978000D01*
X167205000Y-45979000D01*
X167202000Y-45980000D01*
X167200000Y-45982000D01*
X167198000Y-45983000D01*
X167196000Y-45985000D01*
X167194000Y-45986000D01*
X167192000Y-45988000D01*
X167190000Y-45990000D01*
X167188000Y-45992000D01*
X167186000Y-45994000D01*
X167185000Y-45996000D01*
X167183000Y-45998000D01*
X167182000Y-46000000D01*
X167180000Y-46002000D01*
X167179000Y-46005000D01*
X167178000Y-46007000D01*
X167177000Y-46010000D01*
X167177000Y-46012000D01*
X167176000Y-46015000D01*
X167176000Y-46017000D01*
X167175000Y-46020000D01*
X167175000Y-46022000D01*
X167175000Y-46025000D01*
G36*
X167853000Y-45976000D02*
G01*
X167855000Y-45976000D01*
X167858000Y-45977000D01*
X167860000Y-45977000D01*
X167863000Y-45978000D01*
X167865000Y-45979000D01*
X167868000Y-45980000D01*
X167870000Y-45982000D01*
X167872000Y-45983000D01*
X167874000Y-45985000D01*
X167876000Y-45986000D01*
X167878000Y-45988000D01*
X167880000Y-45990000D01*
X167882000Y-45992000D01*
X167884000Y-45994000D01*
X167885000Y-45996000D01*
X167887000Y-45998000D01*
X167888000Y-46000000D01*
X167890000Y-46002000D01*
X167891000Y-46005000D01*
X167892000Y-46007000D01*
X167893000Y-46010000D01*
X167893000Y-46012000D01*
X167894000Y-46015000D01*
X167894000Y-46017000D01*
X167895000Y-46020000D01*
X167895000Y-46022000D01*
X167895000Y-46025000D01*
X167895000Y-46175000D01*
X167895000Y-46178000D01*
X167895000Y-46180000D01*
X167894000Y-46183000D01*
X167894000Y-46185000D01*
X167893000Y-46188000D01*
X167893000Y-46190000D01*
X167892000Y-46193000D01*
X167891000Y-46195000D01*
X167890000Y-46198000D01*
X167888000Y-46200000D01*
X167887000Y-46202000D01*
X167885000Y-46204000D01*
X167884000Y-46206000D01*
X167882000Y-46208000D01*
X167880000Y-46210000D01*
X167878000Y-46212000D01*
X167876000Y-46214000D01*
X167874000Y-46215000D01*
X167872000Y-46217000D01*
X167870000Y-46218000D01*
X167868000Y-46220000D01*
X167865000Y-46221000D01*
X167863000Y-46222000D01*
X167860000Y-46223000D01*
X167858000Y-46223000D01*
X167855000Y-46224000D01*
X167853000Y-46224000D01*
X167850000Y-46225000D01*
X167848000Y-46225000D01*
X167845000Y-46225000D01*
X167225000Y-46225000D01*
X167222000Y-46225000D01*
X167220000Y-46225000D01*
X167217000Y-46224000D01*
X167215000Y-46224000D01*
X167212000Y-46223000D01*
X167210000Y-46223000D01*
X167207000Y-46222000D01*
X167205000Y-46221000D01*
X167202000Y-46220000D01*
X167200000Y-46218000D01*
X167198000Y-46217000D01*
X167196000Y-46215000D01*
X167194000Y-46214000D01*
X167192000Y-46212000D01*
X167190000Y-46210000D01*
X167188000Y-46208000D01*
X167186000Y-46206000D01*
X167185000Y-46204000D01*
X167183000Y-46202000D01*
X167182000Y-46200000D01*
X167180000Y-46198000D01*
X167179000Y-46195000D01*
X167178000Y-46193000D01*
X167177000Y-46190000D01*
X167177000Y-46188000D01*
X167176000Y-46185000D01*
X167176000Y-46183000D01*
X167175000Y-46180000D01*
X167175000Y-46178000D01*
X167175000Y-46175000D01*
X167175000Y-46025000D01*
X167175000Y-46022000D01*
X167175000Y-46020000D01*
X167176000Y-46017000D01*
X167176000Y-46015000D01*
X167177000Y-46012000D01*
X167177000Y-46010000D01*
X167178000Y-46007000D01*
X167179000Y-46005000D01*
X167180000Y-46002000D01*
X167182000Y-46000000D01*
X167183000Y-45998000D01*
X167185000Y-45996000D01*
X167186000Y-45994000D01*
X167188000Y-45992000D01*
X167190000Y-45990000D01*
X167192000Y-45988000D01*
X167194000Y-45986000D01*
X167196000Y-45985000D01*
X167198000Y-45983000D01*
X167200000Y-45982000D01*
X167202000Y-45980000D01*
X167205000Y-45979000D01*
X167207000Y-45978000D01*
X167210000Y-45977000D01*
X167212000Y-45977000D01*
X167215000Y-45976000D01*
X167217000Y-45976000D01*
X167220000Y-45975000D01*
X167222000Y-45975000D01*
X167225000Y-45975000D01*
X167845000Y-45975000D01*
X167848000Y-45975000D01*
X167850000Y-45975000D01*
X167853000Y-45976000D01*
G37*
X166255000Y-46025000D02*
X166255000Y-46175000D01*
X166255000Y-46178000D01*
X166255000Y-46180000D01*
X166256000Y-46183000D01*
X166256000Y-46185000D01*
X166257000Y-46188000D01*
X166257000Y-46190000D01*
X166258000Y-46193000D01*
X166259000Y-46195000D01*
X166260000Y-46198000D01*
X166262000Y-46200000D01*
X166263000Y-46202000D01*
X166265000Y-46204000D01*
X166266000Y-46206000D01*
X166268000Y-46208000D01*
X166270000Y-46210000D01*
X166272000Y-46212000D01*
X166274000Y-46214000D01*
X166276000Y-46215000D01*
X166278000Y-46217000D01*
X166280000Y-46218000D01*
X166282000Y-46220000D01*
X166285000Y-46221000D01*
X166287000Y-46222000D01*
X166290000Y-46223000D01*
X166292000Y-46223000D01*
X166295000Y-46224000D01*
X166297000Y-46224000D01*
X166300000Y-46225000D01*
X166302000Y-46225000D01*
X166305000Y-46225000D01*
X166925000Y-46225000D01*
X166928000Y-46225000D01*
X166930000Y-46225000D01*
X166933000Y-46224000D01*
X166935000Y-46224000D01*
X166938000Y-46223000D01*
X166940000Y-46223000D01*
X166943000Y-46222000D01*
X166945000Y-46221000D01*
X166948000Y-46220000D01*
X166950000Y-46218000D01*
X166952000Y-46217000D01*
X166954000Y-46215000D01*
X166956000Y-46214000D01*
X166958000Y-46212000D01*
X166960000Y-46210000D01*
X166962000Y-46208000D01*
X166964000Y-46206000D01*
X166965000Y-46204000D01*
X166967000Y-46202000D01*
X166968000Y-46200000D01*
X166970000Y-46198000D01*
X166971000Y-46195000D01*
X166972000Y-46193000D01*
X166973000Y-46190000D01*
X166973000Y-46188000D01*
X166974000Y-46185000D01*
X166974000Y-46183000D01*
X166975000Y-46180000D01*
X166975000Y-46178000D01*
X166975000Y-46175000D01*
X166975000Y-46025000D01*
X166975000Y-46022000D01*
X166975000Y-46020000D01*
X166974000Y-46017000D01*
X166974000Y-46015000D01*
X166973000Y-46012000D01*
X166973000Y-46010000D01*
X166972000Y-46007000D01*
X166971000Y-46005000D01*
X166970000Y-46002000D01*
X166968000Y-46000000D01*
X166967000Y-45998000D01*
X166965000Y-45996000D01*
X166964000Y-45994000D01*
X166962000Y-45992000D01*
X166960000Y-45990000D01*
X166958000Y-45988000D01*
X166956000Y-45986000D01*
X166954000Y-45985000D01*
X166952000Y-45983000D01*
X166950000Y-45982000D01*
X166948000Y-45980000D01*
X166945000Y-45979000D01*
X166943000Y-45978000D01*
X166940000Y-45977000D01*
X166938000Y-45977000D01*
X166935000Y-45976000D01*
X166933000Y-45976000D01*
X166930000Y-45975000D01*
X166928000Y-45975000D01*
X166925000Y-45975000D01*
X166305000Y-45975000D01*
X166302000Y-45975000D01*
X166300000Y-45975000D01*
X166297000Y-45976000D01*
X166295000Y-45976000D01*
X166292000Y-45977000D01*
X166290000Y-45977000D01*
X166287000Y-45978000D01*
X166285000Y-45979000D01*
X166282000Y-45980000D01*
X166280000Y-45982000D01*
X166278000Y-45983000D01*
X166276000Y-45985000D01*
X166274000Y-45986000D01*
X166272000Y-45988000D01*
X166270000Y-45990000D01*
X166268000Y-45992000D01*
X166266000Y-45994000D01*
X166265000Y-45996000D01*
X166263000Y-45998000D01*
X166262000Y-46000000D01*
X166260000Y-46002000D01*
X166259000Y-46005000D01*
X166258000Y-46007000D01*
X166257000Y-46010000D01*
X166257000Y-46012000D01*
X166256000Y-46015000D01*
X166256000Y-46017000D01*
X166255000Y-46020000D01*
X166255000Y-46022000D01*
X166255000Y-46025000D01*
G36*
X166933000Y-45976000D02*
G01*
X166935000Y-45976000D01*
X166938000Y-45977000D01*
X166940000Y-45977000D01*
X166943000Y-45978000D01*
X166945000Y-45979000D01*
X166948000Y-45980000D01*
X166950000Y-45982000D01*
X166952000Y-45983000D01*
X166954000Y-45985000D01*
X166956000Y-45986000D01*
X166958000Y-45988000D01*
X166960000Y-45990000D01*
X166962000Y-45992000D01*
X166964000Y-45994000D01*
X166965000Y-45996000D01*
X166967000Y-45998000D01*
X166968000Y-46000000D01*
X166970000Y-46002000D01*
X166971000Y-46005000D01*
X166972000Y-46007000D01*
X166973000Y-46010000D01*
X166973000Y-46012000D01*
X166974000Y-46015000D01*
X166974000Y-46017000D01*
X166975000Y-46020000D01*
X166975000Y-46022000D01*
X166975000Y-46025000D01*
X166975000Y-46175000D01*
X166975000Y-46178000D01*
X166975000Y-46180000D01*
X166974000Y-46183000D01*
X166974000Y-46185000D01*
X166973000Y-46188000D01*
X166973000Y-46190000D01*
X166972000Y-46193000D01*
X166971000Y-46195000D01*
X166970000Y-46198000D01*
X166968000Y-46200000D01*
X166967000Y-46202000D01*
X166965000Y-46204000D01*
X166964000Y-46206000D01*
X166962000Y-46208000D01*
X166960000Y-46210000D01*
X166958000Y-46212000D01*
X166956000Y-46214000D01*
X166954000Y-46215000D01*
X166952000Y-46217000D01*
X166950000Y-46218000D01*
X166948000Y-46220000D01*
X166945000Y-46221000D01*
X166943000Y-46222000D01*
X166940000Y-46223000D01*
X166938000Y-46223000D01*
X166935000Y-46224000D01*
X166933000Y-46224000D01*
X166930000Y-46225000D01*
X166928000Y-46225000D01*
X166925000Y-46225000D01*
X166305000Y-46225000D01*
X166302000Y-46225000D01*
X166300000Y-46225000D01*
X166297000Y-46224000D01*
X166295000Y-46224000D01*
X166292000Y-46223000D01*
X166290000Y-46223000D01*
X166287000Y-46222000D01*
X166285000Y-46221000D01*
X166282000Y-46220000D01*
X166280000Y-46218000D01*
X166278000Y-46217000D01*
X166276000Y-46215000D01*
X166274000Y-46214000D01*
X166272000Y-46212000D01*
X166270000Y-46210000D01*
X166268000Y-46208000D01*
X166266000Y-46206000D01*
X166265000Y-46204000D01*
X166263000Y-46202000D01*
X166262000Y-46200000D01*
X166260000Y-46198000D01*
X166259000Y-46195000D01*
X166258000Y-46193000D01*
X166257000Y-46190000D01*
X166257000Y-46188000D01*
X166256000Y-46185000D01*
X166256000Y-46183000D01*
X166255000Y-46180000D01*
X166255000Y-46178000D01*
X166255000Y-46175000D01*
X166255000Y-46025000D01*
X166255000Y-46022000D01*
X166255000Y-46020000D01*
X166256000Y-46017000D01*
X166256000Y-46015000D01*
X166257000Y-46012000D01*
X166257000Y-46010000D01*
X166258000Y-46007000D01*
X166259000Y-46005000D01*
X166260000Y-46002000D01*
X166262000Y-46000000D01*
X166263000Y-45998000D01*
X166265000Y-45996000D01*
X166266000Y-45994000D01*
X166268000Y-45992000D01*
X166270000Y-45990000D01*
X166272000Y-45988000D01*
X166274000Y-45986000D01*
X166276000Y-45985000D01*
X166278000Y-45983000D01*
X166280000Y-45982000D01*
X166282000Y-45980000D01*
X166285000Y-45979000D01*
X166287000Y-45978000D01*
X166290000Y-45977000D01*
X166292000Y-45977000D01*
X166295000Y-45976000D01*
X166297000Y-45976000D01*
X166300000Y-45975000D01*
X166302000Y-45975000D01*
X166305000Y-45975000D01*
X166925000Y-45975000D01*
X166928000Y-45975000D01*
X166930000Y-45975000D01*
X166933000Y-45976000D01*
G37*
%TD*%
D11*
%TO.C,R3*%
X166175000Y-63500000D03*
X167825000Y-63500000D03*
%TD*%
D12*
%TO.C,SW13*%
X121500000Y-97000000D03*
X115500000Y-97000000D03*
%TD*%
%TO.C,S2*%
X150500000Y-62500000D03*
X144500000Y-62500000D03*
%TD*%
D11*
%TO.C,R1*%
X167150000Y-50350000D03*
X165500000Y-50350000D03*
%TD*%
D13*
%TO.C,C3*%
X128665000Y-74000000D03*
X127975000Y-74000000D03*
%TD*%
D12*
%TO.C,S3*%
X114500000Y-59500000D03*
X108500000Y-59500000D03*
%TD*%
D14*
%TO.C,SW3*%
X139810000Y-53500000D03*
X136500000Y-56040000D03*
X139810000Y-58580000D03*
X136500000Y-61120000D03*
X139810000Y-63660000D03*
%TD*%
D13*
%TO.C,C4*%
X130845000Y-75500000D03*
X130155000Y-75500000D03*
%TD*%
D11*
%TO.C,R2*%
X130325000Y-80500000D03*
X128675000Y-80500000D03*
%TD*%
D13*
%TO.C,C5*%
X142500000Y-70500000D03*
X141810000Y-70500000D03*
%TD*%
D12*
%TO.C,SW10*%
X122000000Y-88500000D03*
X116000000Y-88500000D03*
%TD*%
D11*
%TO.C,R5*%
X130000000Y-83500000D03*
X128350000Y-83500000D03*
%TD*%
D15*
%TO.C,J1*%
X165975000Y-65700000D03*
X166475000Y-65700000D03*
X166975000Y-65700000D03*
X167475000Y-65700000D03*
X167975000Y-65700000D03*
X168475000Y-65700000D03*
X168975000Y-65700000D03*
X169475000Y-65700000D03*
X169975000Y-65700000D03*
X170475000Y-65700000D03*
X170975000Y-65700000D03*
X171475000Y-65700000D03*
X171475000Y-61300000D03*
X170975000Y-61300000D03*
X170475000Y-61300000D03*
X169975000Y-61300000D03*
X169475000Y-61300000D03*
X168975000Y-61300000D03*
X168475000Y-61300000D03*
X167975000Y-61300000D03*
X167475000Y-61300000D03*
X166975000Y-61300000D03*
X166475000Y-61300000D03*
X165975000Y-61300000D03*
%TD*%
D16*
%TO.C,Y1*%
X125250000Y-77000000D03*
X127750000Y-77000000D03*
%TD*%
D11*
%TO.C,R4*%
X171258387Y-63496670D03*
X169608387Y-63496670D03*
%TD*%
%TO.C,R13*%
X147825000Y-82500000D03*
X146175000Y-82500000D03*
%TD*%
D17*
%TO.C,L1*%
X172435000Y-45850000D03*
X170215000Y-45850000D03*
%TD*%
D18*
%TO.C,S1*%
X115550000Y-73250000D03*
X115550000Y-68750000D03*
X106450000Y-73250000D03*
X106450000Y-68750000D03*
%TD*%
D12*
%TO.C,SW11*%
X130500000Y-97000000D03*
X124500000Y-97000000D03*
%TD*%
D19*
%TO.C,U2*%
X165750000Y-44700000D03*
X166250000Y-44700000D03*
X166250000Y-47500000D03*
X165750000Y-47500000D03*
D20*
X165325000Y-46850000D03*
X165325000Y-46350000D03*
X165325000Y-45850000D03*
X165325000Y-45350000D03*
%TD*%
D11*
%TO.C,R10*%
X148000000Y-80000000D03*
X146350000Y-80000000D03*
%TD*%
%TO.C,R8*%
X147825000Y-74000000D03*
X146175000Y-74000000D03*
%TD*%
%TO.C,R7*%
X134325000Y-86500000D03*
X132675000Y-86500000D03*
%TD*%
D13*
%TO.C,C2*%
X150345000Y-75000000D03*
X149655000Y-75000000D03*
%TD*%
D11*
%TO.C,R9*%
X130325000Y-69500000D03*
X128675000Y-69500000D03*
%TD*%
D12*
%TO.C,SW12*%
X112000000Y-88000000D03*
X106000000Y-88000000D03*
%TD*%
D13*
%TO.C,C1*%
X142345000Y-86500000D03*
X141655000Y-86500000D03*
%TD*%
D11*
%TO.C,R11*%
X148000000Y-77500000D03*
X146350000Y-77500000D03*
%TD*%
%TO.C,R12*%
X147825000Y-86000000D03*
X146175000Y-86000000D03*
%TD*%
D12*
%TO.C,SW9*%
X125000000Y-70000000D03*
X119000000Y-70000000D03*
%TD*%
D11*
%TO.C,R6*%
X163650000Y-44850000D03*
X162000000Y-44850000D03*
%TD*%
D21*
%TO.C,U1*%
X134750000Y-72330000D03*
X135250000Y-72330000D03*
X135750000Y-72330000D03*
X136250000Y-72330000D03*
X136750000Y-72330000D03*
X137250000Y-72330000D03*
X137750000Y-72330000D03*
X138250000Y-72330000D03*
X138750000Y-72330000D03*
X139250000Y-72330000D03*
X139750000Y-72330000D03*
X140250000Y-72330000D03*
X140750000Y-72330000D03*
X141250000Y-72330000D03*
X141750000Y-72330000D03*
X142250000Y-72330000D03*
D22*
X144170000Y-74250000D03*
X144170000Y-74750000D03*
X144170000Y-75250000D03*
X144170000Y-75750000D03*
X144170000Y-76250000D03*
X144170000Y-76750000D03*
X144170000Y-77250000D03*
X144170000Y-77750000D03*
X144170000Y-78250000D03*
X144170000Y-78750000D03*
X144170000Y-79250000D03*
X144170000Y-79750000D03*
X144170000Y-80250000D03*
X144170000Y-80750000D03*
X144170000Y-81250000D03*
X144170000Y-81750000D03*
D21*
X142250000Y-83670000D03*
X141750000Y-83670000D03*
X141250000Y-83670000D03*
X140750000Y-83670000D03*
X140250000Y-83670000D03*
X139750000Y-83670000D03*
X139250000Y-83670000D03*
X138750000Y-83670000D03*
X138250000Y-83670000D03*
X137750000Y-83670000D03*
X137250000Y-83670000D03*
X136750000Y-83670000D03*
X136250000Y-83670000D03*
X135750000Y-83670000D03*
X135250000Y-83670000D03*
X134750000Y-83670000D03*
D22*
X132830000Y-81750000D03*
X132830000Y-81250000D03*
X132830000Y-80750000D03*
X132830000Y-80250000D03*
X132830000Y-79750000D03*
X132830000Y-79250000D03*
X132830000Y-78750000D03*
X132830000Y-78250000D03*
X132830000Y-77750000D03*
X132830000Y-77250000D03*
X132830000Y-76750000D03*
X132830000Y-76250000D03*
X132830000Y-75750000D03*
X132830000Y-75250000D03*
X132830000Y-74750000D03*
X132830000Y-74250000D03*
%TD*%
M02*
