%TF.GenerationSoftware,KiCad,Pcbnew,10.0.3*%
%TF.CreationDate,2026-06-30T17:06:10+07:00*%
%TF.ProjectId,simpad,73696d70-6164-42e6-9b69-6361645f7063,rev?*%
%TF.SameCoordinates,Original*%
%TF.FileFunction,Legend,Top*%
%TF.FilePolarity,Positive*%
%FSLAX46Y46*%
G04 Gerber Fmt 4.6, Leading zero omitted, Abs format (unit mm)*
G04 Created by KiCad (PCBNEW 10.0.3) date 2026-06-30 17:06:10*
%MOMM*%
%LPD*%
G01*
G04 APERTURE LIST*
%ADD10C,0.150000*%
%ADD11C,0.120000*%
%ADD12C,0.127000*%
%ADD13C,0.200000*%
G04 APERTURE END LIST*
D10*
X165433332Y-91776200D02*
X165547618Y-91814295D01*
X165547618Y-91814295D02*
X165738094Y-91814295D01*
X165738094Y-91814295D02*
X165814285Y-91776200D01*
X165814285Y-91776200D02*
X165852380Y-91738104D01*
X165852380Y-91738104D02*
X165890475Y-91661914D01*
X165890475Y-91661914D02*
X165890475Y-91585723D01*
X165890475Y-91585723D02*
X165852380Y-91509533D01*
X165852380Y-91509533D02*
X165814285Y-91471438D01*
X165814285Y-91471438D02*
X165738094Y-91433342D01*
X165738094Y-91433342D02*
X165585713Y-91395247D01*
X165585713Y-91395247D02*
X165509523Y-91357152D01*
X165509523Y-91357152D02*
X165471428Y-91319057D01*
X165471428Y-91319057D02*
X165433332Y-91242866D01*
X165433332Y-91242866D02*
X165433332Y-91166676D01*
X165433332Y-91166676D02*
X165471428Y-91090485D01*
X165471428Y-91090485D02*
X165509523Y-91052390D01*
X165509523Y-91052390D02*
X165585713Y-91014295D01*
X165585713Y-91014295D02*
X165776190Y-91014295D01*
X165776190Y-91014295D02*
X165890475Y-91052390D01*
X166157142Y-91014295D02*
X166347618Y-91814295D01*
X166347618Y-91814295D02*
X166499999Y-91242866D01*
X166499999Y-91242866D02*
X166652380Y-91814295D01*
X166652380Y-91814295D02*
X166842857Y-91014295D01*
X167261904Y-91357152D02*
X167185714Y-91319057D01*
X167185714Y-91319057D02*
X167147619Y-91280961D01*
X167147619Y-91280961D02*
X167109523Y-91204771D01*
X167109523Y-91204771D02*
X167109523Y-91166676D01*
X167109523Y-91166676D02*
X167147619Y-91090485D01*
X167147619Y-91090485D02*
X167185714Y-91052390D01*
X167185714Y-91052390D02*
X167261904Y-91014295D01*
X167261904Y-91014295D02*
X167414285Y-91014295D01*
X167414285Y-91014295D02*
X167490476Y-91052390D01*
X167490476Y-91052390D02*
X167528571Y-91090485D01*
X167528571Y-91090485D02*
X167566666Y-91166676D01*
X167566666Y-91166676D02*
X167566666Y-91204771D01*
X167566666Y-91204771D02*
X167528571Y-91280961D01*
X167528571Y-91280961D02*
X167490476Y-91319057D01*
X167490476Y-91319057D02*
X167414285Y-91357152D01*
X167414285Y-91357152D02*
X167261904Y-91357152D01*
X167261904Y-91357152D02*
X167185714Y-91395247D01*
X167185714Y-91395247D02*
X167147619Y-91433342D01*
X167147619Y-91433342D02*
X167109523Y-91509533D01*
X167109523Y-91509533D02*
X167109523Y-91661914D01*
X167109523Y-91661914D02*
X167147619Y-91738104D01*
X167147619Y-91738104D02*
X167185714Y-91776200D01*
X167185714Y-91776200D02*
X167261904Y-91814295D01*
X167261904Y-91814295D02*
X167414285Y-91814295D01*
X167414285Y-91814295D02*
X167490476Y-91776200D01*
X167490476Y-91776200D02*
X167528571Y-91738104D01*
X167528571Y-91738104D02*
X167566666Y-91661914D01*
X167566666Y-91661914D02*
X167566666Y-91509533D01*
X167566666Y-91509533D02*
X167528571Y-91433342D01*
X167528571Y-91433342D02*
X167490476Y-91395247D01*
X167490476Y-91395247D02*
X167414285Y-91357152D01*
X136821667Y-66447200D02*
X136964524Y-66494819D01*
X136964524Y-66494819D02*
X137202619Y-66494819D01*
X137202619Y-66494819D02*
X137297857Y-66447200D01*
X137297857Y-66447200D02*
X137345476Y-66399580D01*
X137345476Y-66399580D02*
X137393095Y-66304342D01*
X137393095Y-66304342D02*
X137393095Y-66209104D01*
X137393095Y-66209104D02*
X137345476Y-66113866D01*
X137345476Y-66113866D02*
X137297857Y-66066247D01*
X137297857Y-66066247D02*
X137202619Y-66018628D01*
X137202619Y-66018628D02*
X137012143Y-65971009D01*
X137012143Y-65971009D02*
X136916905Y-65923390D01*
X136916905Y-65923390D02*
X136869286Y-65875771D01*
X136869286Y-65875771D02*
X136821667Y-65780533D01*
X136821667Y-65780533D02*
X136821667Y-65685295D01*
X136821667Y-65685295D02*
X136869286Y-65590057D01*
X136869286Y-65590057D02*
X136916905Y-65542438D01*
X136916905Y-65542438D02*
X137012143Y-65494819D01*
X137012143Y-65494819D02*
X137250238Y-65494819D01*
X137250238Y-65494819D02*
X137393095Y-65542438D01*
X137726429Y-65494819D02*
X137964524Y-66494819D01*
X137964524Y-66494819D02*
X138155000Y-65780533D01*
X138155000Y-65780533D02*
X138345476Y-66494819D01*
X138345476Y-66494819D02*
X138583572Y-65494819D01*
X138869286Y-65494819D02*
X139488333Y-65494819D01*
X139488333Y-65494819D02*
X139155000Y-65875771D01*
X139155000Y-65875771D02*
X139297857Y-65875771D01*
X139297857Y-65875771D02*
X139393095Y-65923390D01*
X139393095Y-65923390D02*
X139440714Y-65971009D01*
X139440714Y-65971009D02*
X139488333Y-66066247D01*
X139488333Y-66066247D02*
X139488333Y-66304342D01*
X139488333Y-66304342D02*
X139440714Y-66399580D01*
X139440714Y-66399580D02*
X139393095Y-66447200D01*
X139393095Y-66447200D02*
X139297857Y-66494819D01*
X139297857Y-66494819D02*
X139012143Y-66494819D01*
X139012143Y-66494819D02*
X138916905Y-66447200D01*
X138916905Y-66447200D02*
X138869286Y-66399580D01*
X144433332Y-94081950D02*
X144547618Y-94120045D01*
X144547618Y-94120045D02*
X144738094Y-94120045D01*
X144738094Y-94120045D02*
X144814285Y-94081950D01*
X144814285Y-94081950D02*
X144852380Y-94043854D01*
X144852380Y-94043854D02*
X144890475Y-93967664D01*
X144890475Y-93967664D02*
X144890475Y-93891473D01*
X144890475Y-93891473D02*
X144852380Y-93815283D01*
X144852380Y-93815283D02*
X144814285Y-93777188D01*
X144814285Y-93777188D02*
X144738094Y-93739092D01*
X144738094Y-93739092D02*
X144585713Y-93700997D01*
X144585713Y-93700997D02*
X144509523Y-93662902D01*
X144509523Y-93662902D02*
X144471428Y-93624807D01*
X144471428Y-93624807D02*
X144433332Y-93548616D01*
X144433332Y-93548616D02*
X144433332Y-93472426D01*
X144433332Y-93472426D02*
X144471428Y-93396235D01*
X144471428Y-93396235D02*
X144509523Y-93358140D01*
X144509523Y-93358140D02*
X144585713Y-93320045D01*
X144585713Y-93320045D02*
X144776190Y-93320045D01*
X144776190Y-93320045D02*
X144890475Y-93358140D01*
X145157142Y-93320045D02*
X145347618Y-94120045D01*
X145347618Y-94120045D02*
X145499999Y-93548616D01*
X145499999Y-93548616D02*
X145652380Y-94120045D01*
X145652380Y-94120045D02*
X145842857Y-93320045D01*
X146566666Y-94120045D02*
X146109523Y-94120045D01*
X146338095Y-94120045D02*
X146338095Y-93320045D01*
X146338095Y-93320045D02*
X146261904Y-93434330D01*
X146261904Y-93434330D02*
X146185714Y-93510521D01*
X146185714Y-93510521D02*
X146109523Y-93548616D01*
X164433332Y-76081950D02*
X164547618Y-76120045D01*
X164547618Y-76120045D02*
X164738094Y-76120045D01*
X164738094Y-76120045D02*
X164814285Y-76081950D01*
X164814285Y-76081950D02*
X164852380Y-76043854D01*
X164852380Y-76043854D02*
X164890475Y-75967664D01*
X164890475Y-75967664D02*
X164890475Y-75891473D01*
X164890475Y-75891473D02*
X164852380Y-75815283D01*
X164852380Y-75815283D02*
X164814285Y-75777188D01*
X164814285Y-75777188D02*
X164738094Y-75739092D01*
X164738094Y-75739092D02*
X164585713Y-75700997D01*
X164585713Y-75700997D02*
X164509523Y-75662902D01*
X164509523Y-75662902D02*
X164471428Y-75624807D01*
X164471428Y-75624807D02*
X164433332Y-75548616D01*
X164433332Y-75548616D02*
X164433332Y-75472426D01*
X164433332Y-75472426D02*
X164471428Y-75396235D01*
X164471428Y-75396235D02*
X164509523Y-75358140D01*
X164509523Y-75358140D02*
X164585713Y-75320045D01*
X164585713Y-75320045D02*
X164776190Y-75320045D01*
X164776190Y-75320045D02*
X164890475Y-75358140D01*
X165157142Y-75320045D02*
X165347618Y-76120045D01*
X165347618Y-76120045D02*
X165499999Y-75548616D01*
X165499999Y-75548616D02*
X165652380Y-76120045D01*
X165652380Y-76120045D02*
X165842857Y-75320045D01*
X166109523Y-75396235D02*
X166147619Y-75358140D01*
X166147619Y-75358140D02*
X166223809Y-75320045D01*
X166223809Y-75320045D02*
X166414285Y-75320045D01*
X166414285Y-75320045D02*
X166490476Y-75358140D01*
X166490476Y-75358140D02*
X166528571Y-75396235D01*
X166528571Y-75396235D02*
X166566666Y-75472426D01*
X166566666Y-75472426D02*
X166566666Y-75548616D01*
X166566666Y-75548616D02*
X166528571Y-75662902D01*
X166528571Y-75662902D02*
X166071428Y-76120045D01*
X166071428Y-76120045D02*
X166566666Y-76120045D01*
%TO.C,R3*%
D11*
X166762742Y-62977500D02*
X167237258Y-62977500D01*
X166762742Y-64022500D02*
X167237258Y-64022500D01*
%TO.C,SW13*%
X121650000Y-99000000D02*
X121650000Y-98300000D01*
X121650000Y-95000000D02*
X121650000Y-95700000D01*
X120500000Y-100150000D02*
X121650000Y-99000000D01*
X120500000Y-93850000D02*
X121650000Y-95000000D01*
X116500000Y-100150000D02*
X120500000Y-100150000D01*
X116500000Y-93850000D02*
X120500000Y-93850000D01*
X115350000Y-99000000D02*
X116500000Y-100150000D01*
X115350000Y-98300000D02*
X115350000Y-99000000D01*
X115350000Y-95700000D02*
X115350000Y-95019000D01*
X115350000Y-95019000D02*
X116500000Y-93850000D01*
%TO.C,S2*%
X150650000Y-64500000D02*
X150650000Y-63800000D01*
X150650000Y-60500000D02*
X150650000Y-61200000D01*
X149500000Y-65650000D02*
X150650000Y-64500000D01*
X149500000Y-59350000D02*
X150650000Y-60500000D01*
X145500000Y-65650000D02*
X149500000Y-65650000D01*
X145500000Y-59350000D02*
X149500000Y-59350000D01*
X144350000Y-64500000D02*
X145500000Y-65650000D01*
X144350000Y-63800000D02*
X144350000Y-64500000D01*
X144350000Y-61200000D02*
X144350000Y-60519000D01*
X144350000Y-60519000D02*
X145500000Y-59350000D01*
%TO.C,R1*%
X166087742Y-50872500D02*
X166562258Y-50872500D01*
X166087742Y-49827500D02*
X166562258Y-49827500D01*
%TO.C,SW8*%
D12*
X173500000Y-98000000D02*
X171000000Y-100500000D01*
X173500000Y-91000000D02*
X173500000Y-98000000D01*
X171000000Y-100500000D02*
X162000000Y-100500000D01*
X171000000Y-88500000D02*
X173500000Y-91000000D01*
X162000000Y-100500000D02*
X159500000Y-98000000D01*
X162000000Y-88500000D02*
X171000000Y-88500000D01*
X159500000Y-98000000D02*
X159500000Y-91000000D01*
X159500000Y-91000000D02*
X162000000Y-88500000D01*
%TO.C,S3*%
D11*
X114650000Y-61500000D02*
X114650000Y-60800000D01*
X114650000Y-57500000D02*
X114650000Y-58200000D01*
X113500000Y-62650000D02*
X114650000Y-61500000D01*
X113500000Y-56350000D02*
X114650000Y-57500000D01*
X109500000Y-62650000D02*
X113500000Y-62650000D01*
X109500000Y-56350000D02*
X113500000Y-56350000D01*
X108350000Y-61500000D02*
X109500000Y-62650000D01*
X108350000Y-60800000D02*
X108350000Y-61500000D01*
X108350000Y-58200000D02*
X108350000Y-57519000D01*
X108350000Y-57519000D02*
X109500000Y-56350000D01*
%TO.C,SW3*%
X139535000Y-65040000D02*
X139535000Y-64470000D01*
X139535000Y-65040000D02*
X136775000Y-65040000D01*
X139535000Y-64470000D02*
X141005000Y-64470000D01*
X139535000Y-62850000D02*
X139535000Y-59390000D01*
X139535000Y-57770000D02*
X139535000Y-54310000D01*
X139535000Y-52120000D02*
X136775000Y-52120000D01*
X136775000Y-64470000D02*
X136775000Y-61930000D01*
X136775000Y-60310000D02*
X136775000Y-56850000D01*
X136775000Y-55230000D02*
X136775000Y-52120000D01*
X136775000Y-52690000D02*
X136775000Y-52120000D01*
%TO.C,R2*%
X129262742Y-81022500D02*
X129737258Y-81022500D01*
X129262742Y-79977500D02*
X129737258Y-79977500D01*
%TO.C,SW10*%
X122150000Y-90500000D02*
X122150000Y-89800000D01*
X122150000Y-86500000D02*
X122150000Y-87200000D01*
X121000000Y-91650000D02*
X122150000Y-90500000D01*
X121000000Y-85350000D02*
X122150000Y-86500000D01*
X117000000Y-91650000D02*
X121000000Y-91650000D01*
X117000000Y-85350000D02*
X121000000Y-85350000D01*
X115850000Y-90500000D02*
X117000000Y-91650000D01*
X115850000Y-89800000D02*
X115850000Y-90500000D01*
X115850000Y-87200000D02*
X115850000Y-86519000D01*
X115850000Y-86519000D02*
X117000000Y-85350000D01*
%TO.C,R5*%
X128937742Y-84022500D02*
X129412258Y-84022500D01*
X128937742Y-82977500D02*
X129412258Y-82977500D01*
%TO.C,J1*%
D13*
X166075000Y-59250000D02*
G75*
G02*
X165875000Y-59250000I-100000J0D01*
G01*
X165875000Y-59250000D02*
G75*
G02*
X166075000Y-59250000I100000J0D01*
G01*
D12*
X173300000Y-64313500D02*
X173300000Y-65631500D01*
X173300000Y-61368500D02*
X173300000Y-62686500D01*
X164150000Y-65631500D02*
X164150000Y-64313500D01*
X164150000Y-62686500D02*
X164150000Y-61368500D01*
%TO.C,Y1*%
D11*
X125825000Y-77875000D02*
X127175000Y-77875000D01*
X125825000Y-76125000D02*
X127175000Y-76125000D01*
%TO.C,R4*%
X170196129Y-64019170D02*
X170670645Y-64019170D01*
X170196129Y-62974170D02*
X170670645Y-62974170D01*
%TO.C,R13*%
X146762742Y-83022500D02*
X147237258Y-83022500D01*
X146762742Y-81977500D02*
X147237258Y-81977500D01*
%TO.C,L1*%
D12*
X171135000Y-46950000D02*
X171515000Y-46950000D01*
X171135000Y-44750000D02*
X171515000Y-44750000D01*
%TO.C,SW1*%
X152500000Y-100305750D02*
X150000000Y-102805750D01*
X152500000Y-93305750D02*
X152500000Y-100305750D01*
X150000000Y-102805750D02*
X141000000Y-102805750D01*
X150000000Y-90805750D02*
X152500000Y-93305750D01*
X141000000Y-102805750D02*
X138500000Y-100305750D01*
X141000000Y-90805750D02*
X150000000Y-90805750D01*
X138500000Y-100305750D02*
X138500000Y-93305750D01*
X138500000Y-93305750D02*
X141000000Y-90805750D01*
%TO.C,S1*%
D13*
X104850000Y-68750000D02*
G75*
G02*
X104650000Y-68750000I-100000J0D01*
G01*
X104650000Y-68750000D02*
G75*
G02*
X104850000Y-68750000I100000J0D01*
G01*
D12*
X114000000Y-74000000D02*
X114000000Y-68000000D01*
X114000000Y-68000000D02*
X108000000Y-68000000D01*
X108000000Y-74000000D02*
X114000000Y-74000000D01*
X108000000Y-68000000D02*
X108000000Y-74000000D01*
%TO.C,SW11*%
D11*
X130650000Y-99000000D02*
X130650000Y-98300000D01*
X130650000Y-95000000D02*
X130650000Y-95700000D01*
X129500000Y-100150000D02*
X130650000Y-99000000D01*
X129500000Y-93850000D02*
X130650000Y-95000000D01*
X125500000Y-100150000D02*
X129500000Y-100150000D01*
X125500000Y-93850000D02*
X129500000Y-93850000D01*
X124350000Y-99000000D02*
X125500000Y-100150000D01*
X124350000Y-98300000D02*
X124350000Y-99000000D01*
X124350000Y-95700000D02*
X124350000Y-95019000D01*
X124350000Y-95019000D02*
X125500000Y-93850000D01*
%TO.C,U2*%
D13*
X164575000Y-44950000D02*
G75*
G02*
X164375000Y-44950000I-100000J0D01*
G01*
X164375000Y-44950000D02*
G75*
G02*
X164575000Y-44950000I100000J0D01*
G01*
D12*
X167745000Y-47095000D02*
X167745000Y-47600000D01*
X167745000Y-44600000D02*
X167745000Y-45105000D01*
X165305000Y-47600000D02*
X165205000Y-47600000D01*
X165305000Y-44600000D02*
X165205000Y-44600000D01*
X165205000Y-47600000D02*
X165205000Y-47295000D01*
X165205000Y-44600000D02*
X165205000Y-44905000D01*
%TO.C,R10*%
D11*
X146937742Y-80522500D02*
X147412258Y-80522500D01*
X146937742Y-79477500D02*
X147412258Y-79477500D01*
%TO.C,R8*%
X146762742Y-74522500D02*
X147237258Y-74522500D01*
X146762742Y-73477500D02*
X147237258Y-73477500D01*
%TO.C,R7*%
X133262742Y-87022500D02*
X133737258Y-87022500D01*
X133262742Y-85977500D02*
X133737258Y-85977500D01*
%TO.C,R9*%
X129262742Y-70022500D02*
X129737258Y-70022500D01*
X129262742Y-68977500D02*
X129737258Y-68977500D01*
%TO.C,SW12*%
X112150000Y-90000000D02*
X112150000Y-89300000D01*
X112150000Y-86000000D02*
X112150000Y-86700000D01*
X111000000Y-91150000D02*
X112150000Y-90000000D01*
X111000000Y-84850000D02*
X112150000Y-86000000D01*
X107000000Y-91150000D02*
X111000000Y-91150000D01*
X107000000Y-84850000D02*
X111000000Y-84850000D01*
X105850000Y-90000000D02*
X107000000Y-91150000D01*
X105850000Y-89300000D02*
X105850000Y-90000000D01*
X105850000Y-86700000D02*
X105850000Y-86019000D01*
X105850000Y-86019000D02*
X107000000Y-84850000D01*
%TO.C,R11*%
X146937742Y-78022500D02*
X147412258Y-78022500D01*
X146937742Y-76977500D02*
X147412258Y-76977500D01*
%TO.C,R12*%
X146762742Y-86522500D02*
X147237258Y-86522500D01*
X146762742Y-85477500D02*
X147237258Y-85477500D01*
%TO.C,SW9*%
X125150000Y-72000000D02*
X125150000Y-71300000D01*
X125150000Y-68000000D02*
X125150000Y-68700000D01*
X124000000Y-73150000D02*
X125150000Y-72000000D01*
X124000000Y-66850000D02*
X125150000Y-68000000D01*
X120000000Y-73150000D02*
X124000000Y-73150000D01*
X120000000Y-66850000D02*
X124000000Y-66850000D01*
X118850000Y-72000000D02*
X120000000Y-73150000D01*
X118850000Y-71300000D02*
X118850000Y-72000000D01*
X118850000Y-68700000D02*
X118850000Y-68019000D01*
X118850000Y-68019000D02*
X120000000Y-66850000D01*
%TO.C,SW2*%
D12*
X172500000Y-82305750D02*
X170000000Y-84805750D01*
X172500000Y-75305750D02*
X172500000Y-82305750D01*
X170000000Y-84805750D02*
X161000000Y-84805750D01*
X170000000Y-72805750D02*
X172500000Y-75305750D01*
X161000000Y-84805750D02*
X158500000Y-82305750D01*
X161000000Y-72805750D02*
X170000000Y-72805750D01*
X158500000Y-82305750D02*
X158500000Y-75305750D01*
X158500000Y-75305750D02*
X161000000Y-72805750D01*
%TO.C,R6*%
D11*
X162587742Y-45372500D02*
X163062258Y-45372500D01*
X162587742Y-44327500D02*
X163062258Y-44327500D01*
%TO.C,U1*%
D13*
X131260000Y-74250000D02*
G75*
G02*
X131060000Y-74250000I-100000J0D01*
G01*
X131060000Y-74250000D02*
G75*
G02*
X131260000Y-74250000I100000J0D01*
G01*
D12*
X143500000Y-83000000D02*
X143500000Y-82210000D01*
X143500000Y-83000000D02*
X142710000Y-83000000D01*
X143500000Y-73000000D02*
X143500000Y-73790000D01*
X143500000Y-73000000D02*
X142710000Y-73000000D01*
X133500000Y-83000000D02*
X134290000Y-83000000D01*
X133500000Y-83000000D02*
X133500000Y-82210000D01*
X133500000Y-73000000D02*
X134290000Y-73000000D01*
X133500000Y-73000000D02*
X133500000Y-73790000D01*
%TD*%
M02*
